solid PRT0001
  facet normal 0.000000e+00 -1.000000e+00 0.000000e+00
    outer loop
      vertex -5.625000e+00 0.000000e+00 -5.000000e-01
      vertex -6.000000e+00 0.000000e+00 1.500000e+00
      vertex -6.000000e+00 0.000000e+00 -1.500000e+00
    endloop
  endfacet
  facet normal -1.000000e+00 0.000000e+00 0.000000e+00
    outer loop
      vertex -6.000000e+00 3.750000e-01 -1.500000e+00
      vertex -6.000000e+00 0.000000e+00 -1.500000e+00
      vertex -6.000000e+00 0.000000e+00 1.500000e+00
    endloop
  endfacet
  facet normal 0.000000e+00 -1.000000e+00 0.000000e+00
    outer loop
      vertex -5.500000e+00 0.000000e+00 -6.250000e-01
      vertex -6.000000e+00 0.000000e+00 -1.500000e+00
      vertex 5.000000e+00 0.000000e+00 -1.500000e+00
    endloop
  endfacet
  facet normal 0.000000e+00 0.000000e+00 -1.000000e+00
    outer loop
      vertex 5.000000e+00 3.750000e-01 -1.500000e+00
      vertex 5.000000e+00 0.000000e+00 -1.500000e+00
      vertex -6.000000e+00 0.000000e+00 -1.500000e+00
    endloop
  endfacet
  facet normal 0.000000e+00 -1.000000e+00 0.000000e+00
    outer loop
      vertex -5.615494e+00 0.000000e+00 -5.477731e-01
      vertex -5.625000e+00 0.000000e+00 -5.000000e-01
      vertex -6.000000e+00 0.000000e+00 -1.500000e+00
    endloop
  endfacet
  facet normal 0.000000e+00 -1.000000e+00 0.000000e+00
    outer loop
      vertex -5.588368e+00 0.000000e+00 -5.883683e-01
      vertex -5.615494e+00 0.000000e+00 -5.477731e-01
      vertex -6.000000e+00 0.000000e+00 -1.500000e+00
    endloop
  endfacet
  facet normal 0.000000e+00 -1.000000e+00 0.000000e+00
    outer loop
      vertex -5.547773e+00 0.000000e+00 -6.154936e-01
      vertex -5.588368e+00 0.000000e+00 -5.883683e-01
      vertex -6.000000e+00 0.000000e+00 -1.500000e+00
    endloop
  endfacet
  facet normal 0.000000e+00 -1.000000e+00 0.000000e+00
    outer loop
      vertex -5.500000e+00 0.000000e+00 -6.250000e-01
      vertex -5.547773e+00 0.000000e+00 -6.154936e-01
      vertex -6.000000e+00 0.000000e+00 -1.500000e+00
    endloop
  endfacet
  facet normal 0.000000e+00 0.000000e+00 -1.000000e+00
    outer loop
      vertex 5.000000e+00 3.750000e-01 -1.500000e+00
      vertex -6.000000e+00 0.000000e+00 -1.500000e+00
      vertex -6.000000e+00 3.750000e-01 -1.500000e+00
    endloop
  endfacet
  facet normal 0.000000e+00 -1.000000e+00 0.000000e+00
    outer loop
      vertex 4.000000e+00 0.000000e+00 6.250000e-01
      vertex 5.000000e+00 0.000000e+00 1.500000e+00
      vertex -6.000000e+00 0.000000e+00 1.500000e+00
    endloop
  endfacet
  facet normal 0.000000e+00 0.000000e+00 1.000000e+00
    outer loop
      vertex -6.000000e+00 3.750000e-01 1.500000e+00
      vertex -6.000000e+00 0.000000e+00 1.500000e+00
      vertex 5.000000e+00 0.000000e+00 1.500000e+00
    endloop
  endfacet
  facet normal 0.000000e+00 -1.000000e+00 0.000000e+00
    outer loop
      vertex 3.952227e+00 0.000000e+00 6.154936e-01
      vertex 4.000000e+00 0.000000e+00 6.250000e-01
      vertex -6.000000e+00 0.000000e+00 1.500000e+00
    endloop
  endfacet
  facet normal 0.000000e+00 -1.000000e+00 0.000000e+00
    outer loop
      vertex 3.911632e+00 0.000000e+00 5.883683e-01
      vertex 3.952227e+00 0.000000e+00 6.154936e-01
      vertex -6.000000e+00 0.000000e+00 1.500000e+00
    endloop
  endfacet
  facet normal 0.000000e+00 -1.000000e+00 0.000000e+00
    outer loop
      vertex 3.884506e+00 0.000000e+00 5.477731e-01
      vertex 3.911632e+00 0.000000e+00 5.883683e-01
      vertex -6.000000e+00 0.000000e+00 1.500000e+00
    endloop
  endfacet
  facet normal 0.000000e+00 -1.000000e+00 0.000000e+00
    outer loop
      vertex 3.875000e+00 0.000000e+00 5.000000e-01
      vertex 3.884506e+00 0.000000e+00 5.477731e-01
      vertex -6.000000e+00 0.000000e+00 1.500000e+00
    endloop
  endfacet
  facet normal 0.000000e+00 -1.000000e+00 0.000000e+00
    outer loop
      vertex 2.825000e-01 0.000000e+00 5.562917e-01
      vertex 3.875000e+00 0.000000e+00 5.000000e-01
      vertex -6.000000e+00 0.000000e+00 1.500000e+00
    endloop
  endfacet
  facet normal 0.000000e+00 -1.000000e+00 0.000000e+00
    outer loop
      vertex -5.411632e+00 0.000000e+00 5.883683e-01
      vertex -5.384506e+00 0.000000e+00 5.477731e-01
      vertex -6.000000e+00 0.000000e+00 1.500000e+00
    endloop
  endfacet
  facet normal 0.000000e+00 -1.000000e+00 0.000000e+00
    outer loop
      vertex -2.315000e+00 0.000000e+00 -5.000000e-01
      vertex -6.000000e+00 0.000000e+00 1.500000e+00
      vertex -5.384506e+00 0.000000e+00 5.477731e-01
    endloop
  endfacet
  facet normal 0.000000e+00 -1.000000e+00 0.000000e+00
    outer loop
      vertex -5.452227e+00 0.000000e+00 6.154936e-01
      vertex -5.411632e+00 0.000000e+00 5.883683e-01
      vertex -6.000000e+00 0.000000e+00 1.500000e+00
    endloop
  endfacet
  facet normal 0.000000e+00 -1.000000e+00 0.000000e+00
    outer loop
      vertex -5.500000e+00 0.000000e+00 6.250000e-01
      vertex -5.452227e+00 0.000000e+00 6.154936e-01
      vertex -6.000000e+00 0.000000e+00 1.500000e+00
    endloop
  endfacet
  facet normal 0.000000e+00 -1.000000e+00 0.000000e+00
    outer loop
      vertex -5.547773e+00 0.000000e+00 6.154936e-01
      vertex -5.500000e+00 0.000000e+00 6.250000e-01
      vertex -6.000000e+00 0.000000e+00 1.500000e+00
    endloop
  endfacet
  facet normal 0.000000e+00 -1.000000e+00 0.000000e+00
    outer loop
      vertex -5.588368e+00 0.000000e+00 5.883683e-01
      vertex -5.547773e+00 0.000000e+00 6.154936e-01
      vertex -6.000000e+00 0.000000e+00 1.500000e+00
    endloop
  endfacet
  facet normal 0.000000e+00 -1.000000e+00 0.000000e+00
    outer loop
      vertex -5.615494e+00 0.000000e+00 5.477731e-01
      vertex -5.588368e+00 0.000000e+00 5.883683e-01
      vertex -6.000000e+00 0.000000e+00 1.500000e+00
    endloop
  endfacet
  facet normal 0.000000e+00 -1.000000e+00 0.000000e+00
    outer loop
      vertex -5.625000e+00 0.000000e+00 5.000000e-01
      vertex -5.615494e+00 0.000000e+00 5.477731e-01
      vertex -6.000000e+00 0.000000e+00 1.500000e+00
    endloop
  endfacet
  facet normal 0.000000e+00 -1.000000e+00 0.000000e+00
    outer loop
      vertex -5.625000e+00 0.000000e+00 -5.000000e-01
      vertex -5.625000e+00 0.000000e+00 5.000000e-01
      vertex -6.000000e+00 0.000000e+00 1.500000e+00
    endloop
  endfacet
  facet normal 0.000000e+00 -1.000000e+00 0.000000e+00
    outer loop
      vertex -2.282500e+00 0.000000e+00 5.562917e-01
      vertex -2.217500e+00 0.000000e+00 5.562917e-01
      vertex -6.000000e+00 0.000000e+00 1.500000e+00
    endloop
  endfacet
  facet normal 0.000000e+00 -1.000000e+00 0.000000e+00
    outer loop
      vertex 1.850000e-01 0.000000e+00 5.000000e-01
      vertex -6.000000e+00 0.000000e+00 1.500000e+00
      vertex -2.217500e+00 0.000000e+00 5.562917e-01
    endloop
  endfacet
  facet normal 0.000000e+00 -1.000000e+00 0.000000e+00
    outer loop
      vertex -2.315000e+00 0.000000e+00 5.000000e-01
      vertex -2.282500e+00 0.000000e+00 5.562917e-01
      vertex -6.000000e+00 0.000000e+00 1.500000e+00
    endloop
  endfacet
  facet normal 0.000000e+00 -1.000000e+00 0.000000e+00
    outer loop
      vertex -2.315000e+00 0.000000e+00 -5.000000e-01
      vertex -2.315000e+00 0.000000e+00 5.000000e-01
      vertex -6.000000e+00 0.000000e+00 1.500000e+00
    endloop
  endfacet
  facet normal 0.000000e+00 -1.000000e+00 0.000000e+00
    outer loop
      vertex 2.175000e-01 0.000000e+00 5.562917e-01
      vertex 2.825000e-01 0.000000e+00 5.562917e-01
      vertex -6.000000e+00 0.000000e+00 1.500000e+00
    endloop
  endfacet
  facet normal 0.000000e+00 -1.000000e+00 0.000000e+00
    outer loop
      vertex 1.850000e-01 0.000000e+00 5.000000e-01
      vertex 2.175000e-01 0.000000e+00 5.562917e-01
      vertex -6.000000e+00 0.000000e+00 1.500000e+00
    endloop
  endfacet
  facet normal -1.000000e+00 0.000000e+00 0.000000e+00
    outer loop
      vertex -6.000000e+00 3.750000e-01 1.500000e+00
      vertex -6.000000e+00 3.750000e-01 -1.500000e+00
      vertex -6.000000e+00 0.000000e+00 1.500000e+00
    endloop
  endfacet
  facet normal 0.000000e+00 -1.000000e+00 0.000000e+00
    outer loop
      vertex 4.115494e+00 0.000000e+00 5.477731e-01
      vertex 5.000000e+00 0.000000e+00 -1.500000e+00
      vertex 5.000000e+00 0.000000e+00 1.500000e+00
    endloop
  endfacet
  facet normal 1.000000e+00 0.000000e+00 0.000000e+00
    outer loop
      vertex 5.000000e+00 3.750000e-01 1.500000e+00
      vertex 5.000000e+00 0.000000e+00 1.500000e+00
      vertex 5.000000e+00 0.000000e+00 -1.500000e+00
    endloop
  endfacet
  facet normal 0.000000e+00 -1.000000e+00 0.000000e+00
    outer loop
      vertex 4.088368e+00 0.000000e+00 5.883683e-01
      vertex 4.115494e+00 0.000000e+00 5.477731e-01
      vertex 5.000000e+00 0.000000e+00 1.500000e+00
    endloop
  endfacet
  facet normal 0.000000e+00 -1.000000e+00 0.000000e+00
    outer loop
      vertex 4.047773e+00 0.000000e+00 6.154936e-01
      vertex 4.088368e+00 0.000000e+00 5.883683e-01
      vertex 5.000000e+00 0.000000e+00 1.500000e+00
    endloop
  endfacet
  facet normal 0.000000e+00 -1.000000e+00 0.000000e+00
    outer loop
      vertex 4.000000e+00 0.000000e+00 6.250000e-01
      vertex 4.047773e+00 0.000000e+00 6.154936e-01
      vertex 5.000000e+00 0.000000e+00 1.500000e+00
    endloop
  endfacet
  facet normal 0.000000e+00 0.000000e+00 1.000000e+00
    outer loop
      vertex -6.000000e+00 3.750000e-01 1.500000e+00
      vertex 5.000000e+00 0.000000e+00 1.500000e+00
      vertex 5.000000e+00 3.750000e-01 1.500000e+00
    endloop
  endfacet
  facet normal 0.000000e+00 -1.000000e+00 0.000000e+00
    outer loop
      vertex 4.115494e+00 0.000000e+00 5.477731e-01
      vertex 4.125000e+00 0.000000e+00 5.000000e-01
      vertex 5.000000e+00 0.000000e+00 -1.500000e+00
    endloop
  endfacet
  facet normal 0.000000e+00 -1.000000e+00 0.000000e+00
    outer loop
      vertex 4.125000e+00 0.000000e+00 -5.000000e-01
      vertex 5.000000e+00 0.000000e+00 -1.500000e+00
      vertex 4.125000e+00 0.000000e+00 5.000000e-01
    endloop
  endfacet
  facet normal 0.000000e+00 -1.000000e+00 0.000000e+00
    outer loop
      vertex 4.115494e+00 0.000000e+00 -5.477731e-01
      vertex 5.000000e+00 0.000000e+00 -1.500000e+00
      vertex 4.125000e+00 0.000000e+00 -5.000000e-01
    endloop
  endfacet
  facet normal 0.000000e+00 -1.000000e+00 0.000000e+00
    outer loop
      vertex 3.952227e+00 0.000000e+00 -6.154936e-01
      vertex 3.911632e+00 0.000000e+00 -5.883683e-01
      vertex 5.000000e+00 0.000000e+00 -1.500000e+00
    endloop
  endfacet
  facet normal 0.000000e+00 -1.000000e+00 0.000000e+00
    outer loop
      vertex 3.150000e-01 0.000000e+00 5.000000e-01
      vertex 5.000000e+00 0.000000e+00 -1.500000e+00
      vertex 3.911632e+00 0.000000e+00 -5.883683e-01
    endloop
  endfacet
  facet normal 0.000000e+00 -1.000000e+00 0.000000e+00
    outer loop
      vertex 4.000000e+00 0.000000e+00 -6.250000e-01
      vertex 3.952227e+00 0.000000e+00 -6.154936e-01
      vertex 5.000000e+00 0.000000e+00 -1.500000e+00
    endloop
  endfacet
  facet normal 0.000000e+00 -1.000000e+00 0.000000e+00
    outer loop
      vertex 4.047773e+00 0.000000e+00 -6.154936e-01
      vertex 4.000000e+00 0.000000e+00 -6.250000e-01
      vertex 5.000000e+00 0.000000e+00 -1.500000e+00
    endloop
  endfacet
  facet normal 0.000000e+00 -1.000000e+00 0.000000e+00
    outer loop
      vertex 4.088368e+00 0.000000e+00 -5.883683e-01
      vertex 4.047773e+00 0.000000e+00 -6.154936e-01
      vertex 5.000000e+00 0.000000e+00 -1.500000e+00
    endloop
  endfacet
  facet normal 0.000000e+00 -1.000000e+00 0.000000e+00
    outer loop
      vertex 4.115494e+00 0.000000e+00 -5.477731e-01
      vertex 4.088368e+00 0.000000e+00 -5.883683e-01
      vertex 5.000000e+00 0.000000e+00 -1.500000e+00
    endloop
  endfacet
  facet normal 0.000000e+00 -1.000000e+00 0.000000e+00
    outer loop
      vertex -5.384506e+00 0.000000e+00 -5.477731e-01
      vertex 5.000000e+00 0.000000e+00 -1.500000e+00
      vertex -5.375000e+00 0.000000e+00 -5.000000e-01
    endloop
  endfacet
  facet normal 0.000000e+00 -1.000000e+00 0.000000e+00
    outer loop
      vertex -2.282500e+00 0.000000e+00 -5.562917e-01
      vertex -5.375000e+00 0.000000e+00 -5.000000e-01
      vertex 5.000000e+00 0.000000e+00 -1.500000e+00
    endloop
  endfacet
  facet normal 0.000000e+00 -1.000000e+00 0.000000e+00
    outer loop
      vertex -5.452227e+00 0.000000e+00 -6.154936e-01
      vertex -5.500000e+00 0.000000e+00 -6.250000e-01
      vertex 5.000000e+00 0.000000e+00 -1.500000e+00
    endloop
  endfacet
  facet normal 0.000000e+00 -1.000000e+00 0.000000e+00
    outer loop
      vertex -5.411632e+00 0.000000e+00 -5.883683e-01
      vertex -5.452227e+00 0.000000e+00 -6.154936e-01
      vertex 5.000000e+00 0.000000e+00 -1.500000e+00
    endloop
  endfacet
  facet normal 0.000000e+00 -1.000000e+00 0.000000e+00
    outer loop
      vertex -5.384506e+00 0.000000e+00 -5.477731e-01
      vertex -5.411632e+00 0.000000e+00 -5.883683e-01
      vertex 5.000000e+00 0.000000e+00 -1.500000e+00
    endloop
  endfacet
  facet normal 0.000000e+00 -1.000000e+00 0.000000e+00
    outer loop
      vertex -2.217500e+00 0.000000e+00 -5.562917e-01
      vertex 5.000000e+00 0.000000e+00 -1.500000e+00
      vertex -2.185000e+00 0.000000e+00 -5.000000e-01
    endloop
  endfacet
  facet normal 0.000000e+00 -1.000000e+00 0.000000e+00
    outer loop
      vertex 2.175000e-01 0.000000e+00 -5.562917e-01
      vertex -2.185000e+00 0.000000e+00 -5.000000e-01
      vertex 5.000000e+00 0.000000e+00 -1.500000e+00
    endloop
  endfacet
  facet normal 0.000000e+00 -1.000000e+00 0.000000e+00
    outer loop
      vertex -2.217500e+00 0.000000e+00 -5.562917e-01
      vertex -2.282500e+00 0.000000e+00 -5.562917e-01
      vertex 5.000000e+00 0.000000e+00 -1.500000e+00
    endloop
  endfacet
  facet normal 0.000000e+00 -1.000000e+00 0.000000e+00
    outer loop
      vertex 2.825000e-01 0.000000e+00 -5.562917e-01
      vertex 5.000000e+00 0.000000e+00 -1.500000e+00
      vertex 3.150000e-01 0.000000e+00 -5.000000e-01
    endloop
  endfacet
  facet normal 0.000000e+00 -1.000000e+00 0.000000e+00
    outer loop
      vertex 3.150000e-01 0.000000e+00 5.000000e-01
      vertex 3.150000e-01 0.000000e+00 -5.000000e-01
      vertex 5.000000e+00 0.000000e+00 -1.500000e+00
    endloop
  endfacet
  facet normal 0.000000e+00 -1.000000e+00 0.000000e+00
    outer loop
      vertex 2.825000e-01 0.000000e+00 -5.562917e-01
      vertex 2.175000e-01 0.000000e+00 -5.562917e-01
      vertex 5.000000e+00 0.000000e+00 -1.500000e+00
    endloop
  endfacet
  facet normal 1.000000e+00 0.000000e+00 0.000000e+00
    outer loop
      vertex 5.000000e+00 3.750000e-01 1.500000e+00
      vertex 5.000000e+00 0.000000e+00 -1.500000e+00
      vertex 5.000000e+00 3.750000e-01 -1.500000e+00
    endloop
  endfacet
  facet normal -9.807704e-01 0.000000e+00 -1.951650e-01
    outer loop
      vertex 4.125000e+00 3.750000e-01 5.000000e-01
      vertex 4.125000e+00 0.000000e+00 5.000000e-01
      vertex 4.115494e+00 0.000000e+00 5.477731e-01
    endloop
  endfacet
  facet normal 0.000000e+00 -1.000000e+00 0.000000e+00
    outer loop
      vertex 4.125000e+00 0.000000e+00 -5.000000e-01
      vertex 4.125000e+00 0.000000e+00 5.000000e-01
      vertex 4.115494e+00 0.000000e+00 4.522269e-01
    endloop
  endfacet
  facet normal -9.807704e-01 0.000000e+00 1.951650e-01
    outer loop
      vertex 4.115494e+00 3.750000e-01 4.522269e-01
      vertex 4.115494e+00 0.000000e+00 4.522269e-01
      vertex 4.125000e+00 0.000000e+00 5.000000e-01
    endloop
  endfacet
  facet normal -9.807704e-01 0.000000e+00 1.951650e-01
    outer loop
      vertex 4.115494e+00 3.750000e-01 4.522269e-01
      vertex 4.125000e+00 0.000000e+00 5.000000e-01
      vertex 4.125000e+00 3.750000e-01 5.000000e-01
    endloop
  endfacet
  facet normal -8.314665e-01 0.000000e+00 -5.555749e-01
    outer loop
      vertex 4.115494e+00 3.750000e-01 5.477731e-01
      vertex 4.115494e+00 0.000000e+00 5.477731e-01
      vertex 4.088368e+00 0.000000e+00 5.883683e-01
    endloop
  endfacet
  facet normal -9.807704e-01 0.000000e+00 -1.951650e-01
    outer loop
      vertex 4.115494e+00 3.750000e-01 5.477731e-01
      vertex 4.125000e+00 3.750000e-01 5.000000e-01
      vertex 4.115494e+00 0.000000e+00 5.477731e-01
    endloop
  endfacet
  facet normal -5.555749e-01 0.000000e+00 -8.314665e-01
    outer loop
      vertex 4.088368e+00 3.750000e-01 5.883683e-01
      vertex 4.088368e+00 0.000000e+00 5.883683e-01
      vertex 4.047773e+00 0.000000e+00 6.154936e-01
    endloop
  endfacet
  facet normal -8.314665e-01 0.000000e+00 -5.555749e-01
    outer loop
      vertex 4.115494e+00 3.750000e-01 5.477731e-01
      vertex 4.088368e+00 0.000000e+00 5.883683e-01
      vertex 4.088368e+00 3.750000e-01 5.883683e-01
    endloop
  endfacet
  facet normal -1.951650e-01 0.000000e+00 -9.807704e-01
    outer loop
      vertex 4.047773e+00 3.750000e-01 6.154936e-01
      vertex 4.047773e+00 0.000000e+00 6.154936e-01
      vertex 4.000000e+00 0.000000e+00 6.250000e-01
    endloop
  endfacet
  facet normal -5.555749e-01 0.000000e+00 -8.314665e-01
    outer loop
      vertex 4.088368e+00 3.750000e-01 5.883683e-01
      vertex 4.047773e+00 0.000000e+00 6.154936e-01
      vertex 4.047773e+00 3.750000e-01 6.154936e-01
    endloop
  endfacet
  facet normal 1.951650e-01 0.000000e+00 -9.807704e-01
    outer loop
      vertex 4.000000e+00 3.750000e-01 6.250000e-01
      vertex 4.000000e+00 0.000000e+00 6.250000e-01
      vertex 3.952227e+00 0.000000e+00 6.154936e-01
    endloop
  endfacet
  facet normal -1.951650e-01 0.000000e+00 -9.807704e-01
    outer loop
      vertex 4.047773e+00 3.750000e-01 6.154936e-01
      vertex 4.000000e+00 0.000000e+00 6.250000e-01
      vertex 4.000000e+00 3.750000e-01 6.250000e-01
    endloop
  endfacet
  facet normal 5.555749e-01 0.000000e+00 -8.314665e-01
    outer loop
      vertex 3.952227e+00 3.750000e-01 6.154936e-01
      vertex 3.952227e+00 0.000000e+00 6.154936e-01
      vertex 3.911632e+00 0.000000e+00 5.883683e-01
    endloop
  endfacet
  facet normal 1.951650e-01 0.000000e+00 -9.807704e-01
    outer loop
      vertex 4.000000e+00 3.750000e-01 6.250000e-01
      vertex 3.952227e+00 0.000000e+00 6.154936e-01
      vertex 3.952227e+00 3.750000e-01 6.154936e-01
    endloop
  endfacet
  facet normal 8.314665e-01 0.000000e+00 -5.555749e-01
    outer loop
      vertex 3.911632e+00 3.750000e-01 5.883683e-01
      vertex 3.911632e+00 0.000000e+00 5.883683e-01
      vertex 3.884506e+00 0.000000e+00 5.477731e-01
    endloop
  endfacet
  facet normal 5.555749e-01 0.000000e+00 -8.314665e-01
    outer loop
      vertex 3.952227e+00 3.750000e-01 6.154936e-01
      vertex 3.911632e+00 0.000000e+00 5.883683e-01
      vertex 3.911632e+00 3.750000e-01 5.883683e-01
    endloop
  endfacet
  facet normal 9.807704e-01 0.000000e+00 -1.951650e-01
    outer loop
      vertex 3.884506e+00 3.750000e-01 5.477731e-01
      vertex 3.884506e+00 0.000000e+00 5.477731e-01
      vertex 3.875000e+00 0.000000e+00 5.000000e-01
    endloop
  endfacet
  facet normal 8.314665e-01 0.000000e+00 -5.555749e-01
    outer loop
      vertex 3.911632e+00 3.750000e-01 5.883683e-01
      vertex 3.884506e+00 0.000000e+00 5.477731e-01
      vertex 3.884506e+00 3.750000e-01 5.477731e-01
    endloop
  endfacet
  facet normal 0.000000e+00 -1.000000e+00 0.000000e+00
    outer loop
      vertex 3.884506e+00 0.000000e+00 -4.522269e-01
      vertex 3.884506e+00 0.000000e+00 4.522269e-01
      vertex 3.875000e+00 0.000000e+00 5.000000e-01
    endloop
  endfacet
  facet normal 9.807704e-01 0.000000e+00 1.951650e-01
    outer loop
      vertex 3.875000e+00 3.750000e-01 5.000000e-01
      vertex 3.875000e+00 0.000000e+00 5.000000e-01
      vertex 3.884506e+00 0.000000e+00 4.522269e-01
    endloop
  endfacet
  facet normal 0.000000e+00 -1.000000e+00 0.000000e+00
    outer loop
      vertex 3.875000e+00 0.000000e+00 -5.000000e-01
      vertex 3.884506e+00 0.000000e+00 -4.522269e-01
      vertex 3.875000e+00 0.000000e+00 5.000000e-01
    endloop
  endfacet
  facet normal 0.000000e+00 -1.000000e+00 0.000000e+00
    outer loop
      vertex 2.825000e-01 0.000000e+00 5.562917e-01
      vertex 3.875000e+00 0.000000e+00 -5.000000e-01
      vertex 3.875000e+00 0.000000e+00 5.000000e-01
    endloop
  endfacet
  facet normal 9.807704e-01 0.000000e+00 -1.951650e-01
    outer loop
      vertex 3.884506e+00 3.750000e-01 5.477731e-01
      vertex 3.875000e+00 0.000000e+00 5.000000e-01
      vertex 3.875000e+00 3.750000e-01 5.000000e-01
    endloop
  endfacet
  facet normal 0.000000e+00 -1.000000e+00 0.000000e+00
    outer loop
      vertex 3.911632e+00 0.000000e+00 -4.116317e-01
      vertex 3.911632e+00 0.000000e+00 4.116317e-01
      vertex 3.884506e+00 0.000000e+00 4.522269e-01
    endloop
  endfacet
  facet normal 8.314665e-01 0.000000e+00 5.555749e-01
    outer loop
      vertex 3.884506e+00 3.750000e-01 4.522269e-01
      vertex 3.884506e+00 0.000000e+00 4.522269e-01
      vertex 3.911632e+00 0.000000e+00 4.116317e-01
    endloop
  endfacet
  facet normal 0.000000e+00 -1.000000e+00 0.000000e+00
    outer loop
      vertex 3.884506e+00 0.000000e+00 -4.522269e-01
      vertex 3.911632e+00 0.000000e+00 -4.116317e-01
      vertex 3.884506e+00 0.000000e+00 4.522269e-01
    endloop
  endfacet
  facet normal 9.807704e-01 0.000000e+00 1.951650e-01
    outer loop
      vertex 3.875000e+00 3.750000e-01 5.000000e-01
      vertex 3.884506e+00 0.000000e+00 4.522269e-01
      vertex 3.884506e+00 3.750000e-01 4.522269e-01
    endloop
  endfacet
  facet normal 0.000000e+00 -1.000000e+00 0.000000e+00
    outer loop
      vertex 3.952227e+00 0.000000e+00 -3.845064e-01
      vertex 3.952227e+00 0.000000e+00 3.845064e-01
      vertex 3.911632e+00 0.000000e+00 4.116317e-01
    endloop
  endfacet
  facet normal 5.555749e-01 0.000000e+00 8.314665e-01
    outer loop
      vertex 3.911632e+00 3.750000e-01 4.116317e-01
      vertex 3.911632e+00 0.000000e+00 4.116317e-01
      vertex 3.952227e+00 0.000000e+00 3.845064e-01
    endloop
  endfacet
  facet normal 0.000000e+00 -1.000000e+00 0.000000e+00
    outer loop
      vertex 3.911632e+00 0.000000e+00 -4.116317e-01
      vertex 3.952227e+00 0.000000e+00 -3.845064e-01
      vertex 3.911632e+00 0.000000e+00 4.116317e-01
    endloop
  endfacet
  facet normal 8.314665e-01 0.000000e+00 5.555749e-01
    outer loop
      vertex 3.884506e+00 3.750000e-01 4.522269e-01
      vertex 3.911632e+00 0.000000e+00 4.116317e-01
      vertex 3.911632e+00 3.750000e-01 4.116317e-01
    endloop
  endfacet
  facet normal 0.000000e+00 -1.000000e+00 0.000000e+00
    outer loop
      vertex 4.000000e+00 0.000000e+00 -3.750000e-01
      vertex 4.000000e+00 0.000000e+00 3.750000e-01
      vertex 3.952227e+00 0.000000e+00 3.845064e-01
    endloop
  endfacet
  facet normal 1.951650e-01 0.000000e+00 9.807704e-01
    outer loop
      vertex 3.952227e+00 3.750000e-01 3.845064e-01
      vertex 3.952227e+00 0.000000e+00 3.845064e-01
      vertex 4.000000e+00 0.000000e+00 3.750000e-01
    endloop
  endfacet
  facet normal 0.000000e+00 -1.000000e+00 0.000000e+00
    outer loop
      vertex 3.952227e+00 0.000000e+00 -3.845064e-01
      vertex 4.000000e+00 0.000000e+00 -3.750000e-01
      vertex 3.952227e+00 0.000000e+00 3.845064e-01
    endloop
  endfacet
  facet normal 5.555749e-01 0.000000e+00 8.314665e-01
    outer loop
      vertex 3.911632e+00 3.750000e-01 4.116317e-01
      vertex 3.952227e+00 0.000000e+00 3.845064e-01
      vertex 3.952227e+00 3.750000e-01 3.845064e-01
    endloop
  endfacet
  facet normal 0.000000e+00 -1.000000e+00 0.000000e+00
    outer loop
      vertex 4.047773e+00 0.000000e+00 -3.845064e-01
      vertex 4.047773e+00 0.000000e+00 3.845064e-01
      vertex 4.000000e+00 0.000000e+00 3.750000e-01
    endloop
  endfacet
  facet normal -1.951650e-01 0.000000e+00 9.807704e-01
    outer loop
      vertex 4.000000e+00 3.750000e-01 3.750000e-01
      vertex 4.000000e+00 0.000000e+00 3.750000e-01
      vertex 4.047773e+00 0.000000e+00 3.845064e-01
    endloop
  endfacet
  facet normal 0.000000e+00 -1.000000e+00 0.000000e+00
    outer loop
      vertex 4.000000e+00 0.000000e+00 -3.750000e-01
      vertex 4.047773e+00 0.000000e+00 -3.845064e-01
      vertex 4.000000e+00 0.000000e+00 3.750000e-01
    endloop
  endfacet
  facet normal 1.951650e-01 0.000000e+00 9.807704e-01
    outer loop
      vertex 3.952227e+00 3.750000e-01 3.845064e-01
      vertex 4.000000e+00 0.000000e+00 3.750000e-01
      vertex 4.000000e+00 3.750000e-01 3.750000e-01
    endloop
  endfacet
  facet normal 0.000000e+00 -1.000000e+00 0.000000e+00
    outer loop
      vertex 4.088368e+00 0.000000e+00 -4.116317e-01
      vertex 4.088368e+00 0.000000e+00 4.116317e-01
      vertex 4.047773e+00 0.000000e+00 3.845064e-01
    endloop
  endfacet
  facet normal -5.555749e-01 0.000000e+00 8.314665e-01
    outer loop
      vertex 4.047773e+00 3.750000e-01 3.845064e-01
      vertex 4.047773e+00 0.000000e+00 3.845064e-01
      vertex 4.088368e+00 0.000000e+00 4.116317e-01
    endloop
  endfacet
  facet normal 0.000000e+00 -1.000000e+00 0.000000e+00
    outer loop
      vertex 4.047773e+00 0.000000e+00 -3.845064e-01
      vertex 4.088368e+00 0.000000e+00 -4.116317e-01
      vertex 4.047773e+00 0.000000e+00 3.845064e-01
    endloop
  endfacet
  facet normal -1.951650e-01 0.000000e+00 9.807704e-01
    outer loop
      vertex 4.000000e+00 3.750000e-01 3.750000e-01
      vertex 4.047773e+00 0.000000e+00 3.845064e-01
      vertex 4.047773e+00 3.750000e-01 3.845064e-01
    endloop
  endfacet
  facet normal 0.000000e+00 -1.000000e+00 0.000000e+00
    outer loop
      vertex 4.115494e+00 0.000000e+00 -4.522269e-01
      vertex 4.115494e+00 0.000000e+00 4.522269e-01
      vertex 4.088368e+00 0.000000e+00 4.116317e-01
    endloop
  endfacet
  facet normal -8.314665e-01 0.000000e+00 5.555749e-01
    outer loop
      vertex 4.088368e+00 3.750000e-01 4.116317e-01
      vertex 4.088368e+00 0.000000e+00 4.116317e-01
      vertex 4.115494e+00 0.000000e+00 4.522269e-01
    endloop
  endfacet
  facet normal 0.000000e+00 -1.000000e+00 0.000000e+00
    outer loop
      vertex 4.088368e+00 0.000000e+00 -4.116317e-01
      vertex 4.115494e+00 0.000000e+00 -4.522269e-01
      vertex 4.088368e+00 0.000000e+00 4.116317e-01
    endloop
  endfacet
  facet normal -5.555749e-01 0.000000e+00 8.314665e-01
    outer loop
      vertex 4.047773e+00 3.750000e-01 3.845064e-01
      vertex 4.088368e+00 0.000000e+00 4.116317e-01
      vertex 4.088368e+00 3.750000e-01 4.116317e-01
    endloop
  endfacet
  facet normal 0.000000e+00 -1.000000e+00 0.000000e+00
    outer loop
      vertex 4.115494e+00 0.000000e+00 -4.522269e-01
      vertex 4.125000e+00 0.000000e+00 -5.000000e-01
      vertex 4.115494e+00 0.000000e+00 4.522269e-01
    endloop
  endfacet
  facet normal -8.314665e-01 0.000000e+00 5.555749e-01
    outer loop
      vertex 4.088368e+00 3.750000e-01 4.116317e-01
      vertex 4.115494e+00 0.000000e+00 4.522269e-01
      vertex 4.115494e+00 3.750000e-01 4.522269e-01
    endloop
  endfacet
  facet normal -9.807704e-01 0.000000e+00 -1.951650e-01
    outer loop
      vertex 4.125000e+00 3.750000e-01 -5.000000e-01
      vertex 4.125000e+00 0.000000e+00 -5.000000e-01
      vertex 4.115494e+00 0.000000e+00 -4.522269e-01
    endloop
  endfacet
  facet normal -9.807704e-01 0.000000e+00 1.951650e-01
    outer loop
      vertex 4.115494e+00 3.750000e-01 -5.477731e-01
      vertex 4.115494e+00 0.000000e+00 -5.477731e-01
      vertex 4.125000e+00 0.000000e+00 -5.000000e-01
    endloop
  endfacet
  facet normal -9.807704e-01 0.000000e+00 1.951650e-01
    outer loop
      vertex 4.115494e+00 3.750000e-01 -5.477731e-01
      vertex 4.125000e+00 0.000000e+00 -5.000000e-01
      vertex 4.125000e+00 3.750000e-01 -5.000000e-01
    endloop
  endfacet
  facet normal -8.314665e-01 0.000000e+00 -5.555749e-01
    outer loop
      vertex 4.115494e+00 3.750000e-01 -4.522269e-01
      vertex 4.115494e+00 0.000000e+00 -4.522269e-01
      vertex 4.088368e+00 0.000000e+00 -4.116317e-01
    endloop
  endfacet
  facet normal -9.807704e-01 0.000000e+00 -1.951650e-01
    outer loop
      vertex 4.115494e+00 3.750000e-01 -4.522269e-01
      vertex 4.125000e+00 3.750000e-01 -5.000000e-01
      vertex 4.115494e+00 0.000000e+00 -4.522269e-01
    endloop
  endfacet
  facet normal -5.555749e-01 0.000000e+00 -8.314665e-01
    outer loop
      vertex 4.088368e+00 3.750000e-01 -4.116317e-01
      vertex 4.088368e+00 0.000000e+00 -4.116317e-01
      vertex 4.047773e+00 0.000000e+00 -3.845064e-01
    endloop
  endfacet
  facet normal -8.314665e-01 0.000000e+00 -5.555749e-01
    outer loop
      vertex 4.115494e+00 3.750000e-01 -4.522269e-01
      vertex 4.088368e+00 0.000000e+00 -4.116317e-01
      vertex 4.088368e+00 3.750000e-01 -4.116317e-01
    endloop
  endfacet
  facet normal -1.951650e-01 0.000000e+00 -9.807704e-01
    outer loop
      vertex 4.047773e+00 3.750000e-01 -3.845064e-01
      vertex 4.047773e+00 0.000000e+00 -3.845064e-01
      vertex 4.000000e+00 0.000000e+00 -3.750000e-01
    endloop
  endfacet
  facet normal -5.555749e-01 0.000000e+00 -8.314665e-01
    outer loop
      vertex 4.088368e+00 3.750000e-01 -4.116317e-01
      vertex 4.047773e+00 0.000000e+00 -3.845064e-01
      vertex 4.047773e+00 3.750000e-01 -3.845064e-01
    endloop
  endfacet
  facet normal 1.951650e-01 0.000000e+00 -9.807704e-01
    outer loop
      vertex 4.000000e+00 3.750000e-01 -3.750000e-01
      vertex 4.000000e+00 0.000000e+00 -3.750000e-01
      vertex 3.952227e+00 0.000000e+00 -3.845064e-01
    endloop
  endfacet
  facet normal -1.951650e-01 0.000000e+00 -9.807704e-01
    outer loop
      vertex 4.047773e+00 3.750000e-01 -3.845064e-01
      vertex 4.000000e+00 0.000000e+00 -3.750000e-01
      vertex 4.000000e+00 3.750000e-01 -3.750000e-01
    endloop
  endfacet
  facet normal 5.555749e-01 0.000000e+00 -8.314665e-01
    outer loop
      vertex 3.952227e+00 3.750000e-01 -3.845064e-01
      vertex 3.952227e+00 0.000000e+00 -3.845064e-01
      vertex 3.911632e+00 0.000000e+00 -4.116317e-01
    endloop
  endfacet
  facet normal 1.951650e-01 0.000000e+00 -9.807704e-01
    outer loop
      vertex 4.000000e+00 3.750000e-01 -3.750000e-01
      vertex 3.952227e+00 0.000000e+00 -3.845064e-01
      vertex 3.952227e+00 3.750000e-01 -3.845064e-01
    endloop
  endfacet
  facet normal 8.314665e-01 0.000000e+00 -5.555749e-01
    outer loop
      vertex 3.911632e+00 3.750000e-01 -4.116317e-01
      vertex 3.911632e+00 0.000000e+00 -4.116317e-01
      vertex 3.884506e+00 0.000000e+00 -4.522269e-01
    endloop
  endfacet
  facet normal 5.555749e-01 0.000000e+00 -8.314665e-01
    outer loop
      vertex 3.952227e+00 3.750000e-01 -3.845064e-01
      vertex 3.911632e+00 0.000000e+00 -4.116317e-01
      vertex 3.911632e+00 3.750000e-01 -4.116317e-01
    endloop
  endfacet
  facet normal 9.807704e-01 0.000000e+00 -1.951650e-01
    outer loop
      vertex 3.884506e+00 3.750000e-01 -4.522269e-01
      vertex 3.884506e+00 0.000000e+00 -4.522269e-01
      vertex 3.875000e+00 0.000000e+00 -5.000000e-01
    endloop
  endfacet
  facet normal 8.314665e-01 0.000000e+00 -5.555749e-01
    outer loop
      vertex 3.911632e+00 3.750000e-01 -4.116317e-01
      vertex 3.884506e+00 0.000000e+00 -4.522269e-01
      vertex 3.884506e+00 3.750000e-01 -4.522269e-01
    endloop
  endfacet
  facet normal 0.000000e+00 -1.000000e+00 0.000000e+00
    outer loop
      vertex 3.150000e-01 0.000000e+00 5.000000e-01
      vertex 3.884506e+00 0.000000e+00 -5.477731e-01
      vertex 3.875000e+00 0.000000e+00 -5.000000e-01
    endloop
  endfacet
  facet normal 9.807704e-01 0.000000e+00 1.951650e-01
    outer loop
      vertex 3.875000e+00 3.750000e-01 -5.000000e-01
      vertex 3.875000e+00 0.000000e+00 -5.000000e-01
      vertex 3.884506e+00 0.000000e+00 -5.477731e-01
    endloop
  endfacet
  facet normal 0.000000e+00 -1.000000e+00 0.000000e+00
    outer loop
      vertex 2.825000e-01 0.000000e+00 5.562917e-01
      vertex 3.150000e-01 0.000000e+00 5.000000e-01
      vertex 3.875000e+00 0.000000e+00 -5.000000e-01
    endloop
  endfacet
  facet normal 9.807704e-01 0.000000e+00 -1.951650e-01
    outer loop
      vertex 3.884506e+00 3.750000e-01 -4.522269e-01
      vertex 3.875000e+00 0.000000e+00 -5.000000e-01
      vertex 3.875000e+00 3.750000e-01 -5.000000e-01
    endloop
  endfacet
  facet normal 0.000000e+00 -1.000000e+00 0.000000e+00
    outer loop
      vertex 3.150000e-01 0.000000e+00 5.000000e-01
      vertex 3.911632e+00 0.000000e+00 -5.883683e-01
      vertex 3.884506e+00 0.000000e+00 -5.477731e-01
    endloop
  endfacet
  facet normal 8.314665e-01 0.000000e+00 5.555749e-01
    outer loop
      vertex 3.884506e+00 3.750000e-01 -5.477731e-01
      vertex 3.884506e+00 0.000000e+00 -5.477731e-01
      vertex 3.911632e+00 0.000000e+00 -5.883683e-01
    endloop
  endfacet
  facet normal 9.807704e-01 0.000000e+00 1.951650e-01
    outer loop
      vertex 3.875000e+00 3.750000e-01 -5.000000e-01
      vertex 3.884506e+00 0.000000e+00 -5.477731e-01
      vertex 3.884506e+00 3.750000e-01 -5.477731e-01
    endloop
  endfacet
  facet normal 5.555749e-01 0.000000e+00 8.314665e-01
    outer loop
      vertex 3.911632e+00 3.750000e-01 -5.883683e-01
      vertex 3.911632e+00 0.000000e+00 -5.883683e-01
      vertex 3.952227e+00 0.000000e+00 -6.154936e-01
    endloop
  endfacet
  facet normal 8.314665e-01 0.000000e+00 5.555749e-01
    outer loop
      vertex 3.884506e+00 3.750000e-01 -5.477731e-01
      vertex 3.911632e+00 0.000000e+00 -5.883683e-01
      vertex 3.911632e+00 3.750000e-01 -5.883683e-01
    endloop
  endfacet
  facet normal 1.951650e-01 0.000000e+00 9.807704e-01
    outer loop
      vertex 3.952227e+00 3.750000e-01 -6.154936e-01
      vertex 3.952227e+00 0.000000e+00 -6.154936e-01
      vertex 4.000000e+00 0.000000e+00 -6.250000e-01
    endloop
  endfacet
  facet normal 5.555749e-01 0.000000e+00 8.314665e-01
    outer loop
      vertex 3.911632e+00 3.750000e-01 -5.883683e-01
      vertex 3.952227e+00 0.000000e+00 -6.154936e-01
      vertex 3.952227e+00 3.750000e-01 -6.154936e-01
    endloop
  endfacet
  facet normal -1.951650e-01 0.000000e+00 9.807704e-01
    outer loop
      vertex 4.000000e+00 3.750000e-01 -6.250000e-01
      vertex 4.000000e+00 0.000000e+00 -6.250000e-01
      vertex 4.047773e+00 0.000000e+00 -6.154936e-01
    endloop
  endfacet
  facet normal 1.951650e-01 0.000000e+00 9.807704e-01
    outer loop
      vertex 3.952227e+00 3.750000e-01 -6.154936e-01
      vertex 4.000000e+00 0.000000e+00 -6.250000e-01
      vertex 4.000000e+00 3.750000e-01 -6.250000e-01
    endloop
  endfacet
  facet normal -5.555749e-01 0.000000e+00 8.314665e-01
    outer loop
      vertex 4.047773e+00 3.750000e-01 -6.154936e-01
      vertex 4.047773e+00 0.000000e+00 -6.154936e-01
      vertex 4.088368e+00 0.000000e+00 -5.883683e-01
    endloop
  endfacet
  facet normal -1.951650e-01 0.000000e+00 9.807704e-01
    outer loop
      vertex 4.000000e+00 3.750000e-01 -6.250000e-01
      vertex 4.047773e+00 0.000000e+00 -6.154936e-01
      vertex 4.047773e+00 3.750000e-01 -6.154936e-01
    endloop
  endfacet
  facet normal -8.314665e-01 0.000000e+00 5.555749e-01
    outer loop
      vertex 4.088368e+00 3.750000e-01 -5.883683e-01
      vertex 4.088368e+00 0.000000e+00 -5.883683e-01
      vertex 4.115494e+00 0.000000e+00 -5.477731e-01
    endloop
  endfacet
  facet normal -5.555749e-01 0.000000e+00 8.314665e-01
    outer loop
      vertex 4.047773e+00 3.750000e-01 -6.154936e-01
      vertex 4.088368e+00 0.000000e+00 -5.883683e-01
      vertex 4.088368e+00 3.750000e-01 -5.883683e-01
    endloop
  endfacet
  facet normal -8.314665e-01 0.000000e+00 5.555749e-01
    outer loop
      vertex 4.088368e+00 3.750000e-01 -5.883683e-01
      vertex 4.115494e+00 0.000000e+00 -5.477731e-01
      vertex 4.115494e+00 3.750000e-01 -5.477731e-01
    endloop
  endfacet
  facet normal 0.000000e+00 -1.000000e+00 0.000000e+00
    outer loop
      vertex -2.315000e+00 0.000000e+00 -5.000000e-01
      vertex -5.384506e+00 0.000000e+00 5.477731e-01
      vertex -5.375000e+00 0.000000e+00 5.000000e-01
    endloop
  endfacet
  facet normal -9.807704e-01 0.000000e+00 -1.951650e-01
    outer loop
      vertex -5.375000e+00 3.750000e-01 5.000000e-01
      vertex -5.375000e+00 0.000000e+00 5.000000e-01
      vertex -5.384506e+00 0.000000e+00 5.477731e-01
    endloop
  endfacet
  facet normal 0.000000e+00 -1.000000e+00 0.000000e+00
    outer loop
      vertex -5.375000e+00 0.000000e+00 -5.000000e-01
      vertex -5.375000e+00 0.000000e+00 5.000000e-01
      vertex -5.384506e+00 0.000000e+00 4.522269e-01
    endloop
  endfacet
  facet normal -9.807704e-01 0.000000e+00 1.951650e-01
    outer loop
      vertex -5.384506e+00 3.750000e-01 4.522269e-01
      vertex -5.384506e+00 0.000000e+00 4.522269e-01
      vertex -5.375000e+00 0.000000e+00 5.000000e-01
    endloop
  endfacet
  facet normal 0.000000e+00 -1.000000e+00 0.000000e+00
    outer loop
      vertex -2.282500e+00 0.000000e+00 -5.562917e-01
      vertex -5.375000e+00 0.000000e+00 5.000000e-01
      vertex -5.375000e+00 0.000000e+00 -5.000000e-01
    endloop
  endfacet
  facet normal 0.000000e+00 -1.000000e+00 0.000000e+00
    outer loop
      vertex -2.282500e+00 0.000000e+00 -5.562917e-01
      vertex -2.315000e+00 0.000000e+00 -5.000000e-01
      vertex -5.375000e+00 0.000000e+00 5.000000e-01
    endloop
  endfacet
  facet normal -9.807704e-01 0.000000e+00 1.951650e-01
    outer loop
      vertex -5.384506e+00 3.750000e-01 4.522269e-01
      vertex -5.375000e+00 0.000000e+00 5.000000e-01
      vertex -5.375000e+00 3.750000e-01 5.000000e-01
    endloop
  endfacet
  facet normal -8.314665e-01 0.000000e+00 -5.555749e-01
    outer loop
      vertex -5.384506e+00 3.750000e-01 5.477731e-01
      vertex -5.384506e+00 0.000000e+00 5.477731e-01
      vertex -5.411632e+00 0.000000e+00 5.883683e-01
    endloop
  endfacet
  facet normal -9.807704e-01 0.000000e+00 -1.951650e-01
    outer loop
      vertex -5.384506e+00 3.750000e-01 5.477731e-01
      vertex -5.375000e+00 3.750000e-01 5.000000e-01
      vertex -5.384506e+00 0.000000e+00 5.477731e-01
    endloop
  endfacet
  facet normal -5.555749e-01 0.000000e+00 -8.314665e-01
    outer loop
      vertex -5.411632e+00 3.750000e-01 5.883683e-01
      vertex -5.411632e+00 0.000000e+00 5.883683e-01
      vertex -5.452227e+00 0.000000e+00 6.154936e-01
    endloop
  endfacet
  facet normal -8.314665e-01 0.000000e+00 -5.555749e-01
    outer loop
      vertex -5.384506e+00 3.750000e-01 5.477731e-01
      vertex -5.411632e+00 0.000000e+00 5.883683e-01
      vertex -5.411632e+00 3.750000e-01 5.883683e-01
    endloop
  endfacet
  facet normal -1.951650e-01 0.000000e+00 -9.807704e-01
    outer loop
      vertex -5.452227e+00 3.750000e-01 6.154936e-01
      vertex -5.452227e+00 0.000000e+00 6.154936e-01
      vertex -5.500000e+00 0.000000e+00 6.250000e-01
    endloop
  endfacet
  facet normal -5.555749e-01 0.000000e+00 -8.314665e-01
    outer loop
      vertex -5.411632e+00 3.750000e-01 5.883683e-01
      vertex -5.452227e+00 0.000000e+00 6.154936e-01
      vertex -5.452227e+00 3.750000e-01 6.154936e-01
    endloop
  endfacet
  facet normal 1.951650e-01 0.000000e+00 -9.807704e-01
    outer loop
      vertex -5.500000e+00 3.750000e-01 6.250000e-01
      vertex -5.500000e+00 0.000000e+00 6.250000e-01
      vertex -5.547773e+00 0.000000e+00 6.154936e-01
    endloop
  endfacet
  facet normal -1.951650e-01 0.000000e+00 -9.807704e-01
    outer loop
      vertex -5.452227e+00 3.750000e-01 6.154936e-01
      vertex -5.500000e+00 0.000000e+00 6.250000e-01
      vertex -5.500000e+00 3.750000e-01 6.250000e-01
    endloop
  endfacet
  facet normal 5.555749e-01 0.000000e+00 -8.314665e-01
    outer loop
      vertex -5.547773e+00 3.750000e-01 6.154936e-01
      vertex -5.547773e+00 0.000000e+00 6.154936e-01
      vertex -5.588368e+00 0.000000e+00 5.883683e-01
    endloop
  endfacet
  facet normal 1.951650e-01 0.000000e+00 -9.807704e-01
    outer loop
      vertex -5.500000e+00 3.750000e-01 6.250000e-01
      vertex -5.547773e+00 0.000000e+00 6.154936e-01
      vertex -5.547773e+00 3.750000e-01 6.154936e-01
    endloop
  endfacet
  facet normal 8.314665e-01 0.000000e+00 -5.555749e-01
    outer loop
      vertex -5.588368e+00 3.750000e-01 5.883683e-01
      vertex -5.588368e+00 0.000000e+00 5.883683e-01
      vertex -5.615494e+00 0.000000e+00 5.477731e-01
    endloop
  endfacet
  facet normal 5.555749e-01 0.000000e+00 -8.314665e-01
    outer loop
      vertex -5.547773e+00 3.750000e-01 6.154936e-01
      vertex -5.588368e+00 0.000000e+00 5.883683e-01
      vertex -5.588368e+00 3.750000e-01 5.883683e-01
    endloop
  endfacet
  facet normal 9.807704e-01 0.000000e+00 -1.951650e-01
    outer loop
      vertex -5.615494e+00 3.750000e-01 5.477731e-01
      vertex -5.615494e+00 0.000000e+00 5.477731e-01
      vertex -5.625000e+00 0.000000e+00 5.000000e-01
    endloop
  endfacet
  facet normal 8.314665e-01 0.000000e+00 -5.555749e-01
    outer loop
      vertex -5.588368e+00 3.750000e-01 5.883683e-01
      vertex -5.615494e+00 0.000000e+00 5.477731e-01
      vertex -5.615494e+00 3.750000e-01 5.477731e-01
    endloop
  endfacet
  facet normal 0.000000e+00 -1.000000e+00 0.000000e+00
    outer loop
      vertex -5.615494e+00 0.000000e+00 -4.522269e-01
      vertex -5.615494e+00 0.000000e+00 4.522269e-01
      vertex -5.625000e+00 0.000000e+00 5.000000e-01
    endloop
  endfacet
  facet normal 9.807704e-01 0.000000e+00 1.951650e-01
    outer loop
      vertex -5.625000e+00 3.750000e-01 5.000000e-01
      vertex -5.625000e+00 0.000000e+00 5.000000e-01
      vertex -5.615494e+00 0.000000e+00 4.522269e-01
    endloop
  endfacet
  facet normal 0.000000e+00 -1.000000e+00 0.000000e+00
    outer loop
      vertex -5.625000e+00 0.000000e+00 -5.000000e-01
      vertex -5.615494e+00 0.000000e+00 -4.522269e-01
      vertex -5.625000e+00 0.000000e+00 5.000000e-01
    endloop
  endfacet
  facet normal 9.807704e-01 0.000000e+00 -1.951650e-01
    outer loop
      vertex -5.615494e+00 3.750000e-01 5.477731e-01
      vertex -5.625000e+00 0.000000e+00 5.000000e-01
      vertex -5.625000e+00 3.750000e-01 5.000000e-01
    endloop
  endfacet
  facet normal 0.000000e+00 -1.000000e+00 0.000000e+00
    outer loop
      vertex -5.588368e+00 0.000000e+00 -4.116317e-01
      vertex -5.588368e+00 0.000000e+00 4.116317e-01
      vertex -5.615494e+00 0.000000e+00 4.522269e-01
    endloop
  endfacet
  facet normal 8.314665e-01 0.000000e+00 5.555749e-01
    outer loop
      vertex -5.615494e+00 3.750000e-01 4.522269e-01
      vertex -5.615494e+00 0.000000e+00 4.522269e-01
      vertex -5.588368e+00 0.000000e+00 4.116317e-01
    endloop
  endfacet
  facet normal 0.000000e+00 -1.000000e+00 0.000000e+00
    outer loop
      vertex -5.615494e+00 0.000000e+00 -4.522269e-01
      vertex -5.588368e+00 0.000000e+00 -4.116317e-01
      vertex -5.615494e+00 0.000000e+00 4.522269e-01
    endloop
  endfacet
  facet normal 9.807704e-01 0.000000e+00 1.951650e-01
    outer loop
      vertex -5.625000e+00 3.750000e-01 5.000000e-01
      vertex -5.615494e+00 0.000000e+00 4.522269e-01
      vertex -5.615494e+00 3.750000e-01 4.522269e-01
    endloop
  endfacet
  facet normal 0.000000e+00 -1.000000e+00 0.000000e+00
    outer loop
      vertex -5.547773e+00 0.000000e+00 -3.845064e-01
      vertex -5.547773e+00 0.000000e+00 3.845064e-01
      vertex -5.588368e+00 0.000000e+00 4.116317e-01
    endloop
  endfacet
  facet normal 5.555749e-01 0.000000e+00 8.314665e-01
    outer loop
      vertex -5.588368e+00 3.750000e-01 4.116317e-01
      vertex -5.588368e+00 0.000000e+00 4.116317e-01
      vertex -5.547773e+00 0.000000e+00 3.845064e-01
    endloop
  endfacet
  facet normal 0.000000e+00 -1.000000e+00 0.000000e+00
    outer loop
      vertex -5.588368e+00 0.000000e+00 -4.116317e-01
      vertex -5.547773e+00 0.000000e+00 -3.845064e-01
      vertex -5.588368e+00 0.000000e+00 4.116317e-01
    endloop
  endfacet
  facet normal 8.314665e-01 0.000000e+00 5.555749e-01
    outer loop
      vertex -5.615494e+00 3.750000e-01 4.522269e-01
      vertex -5.588368e+00 0.000000e+00 4.116317e-01
      vertex -5.588368e+00 3.750000e-01 4.116317e-01
    endloop
  endfacet
  facet normal 0.000000e+00 -1.000000e+00 0.000000e+00
    outer loop
      vertex -5.500000e+00 0.000000e+00 -3.750000e-01
      vertex -5.500000e+00 0.000000e+00 3.750000e-01
      vertex -5.547773e+00 0.000000e+00 3.845064e-01
    endloop
  endfacet
  facet normal 1.951650e-01 0.000000e+00 9.807704e-01
    outer loop
      vertex -5.547773e+00 3.750000e-01 3.845064e-01
      vertex -5.547773e+00 0.000000e+00 3.845064e-01
      vertex -5.500000e+00 0.000000e+00 3.750000e-01
    endloop
  endfacet
  facet normal 0.000000e+00 -1.000000e+00 0.000000e+00
    outer loop
      vertex -5.547773e+00 0.000000e+00 -3.845064e-01
      vertex -5.500000e+00 0.000000e+00 -3.750000e-01
      vertex -5.547773e+00 0.000000e+00 3.845064e-01
    endloop
  endfacet
  facet normal 5.555749e-01 0.000000e+00 8.314665e-01
    outer loop
      vertex -5.588368e+00 3.750000e-01 4.116317e-01
      vertex -5.547773e+00 0.000000e+00 3.845064e-01
      vertex -5.547773e+00 3.750000e-01 3.845064e-01
    endloop
  endfacet
  facet normal 0.000000e+00 -1.000000e+00 0.000000e+00
    outer loop
      vertex -5.452227e+00 0.000000e+00 -3.845064e-01
      vertex -5.452227e+00 0.000000e+00 3.845064e-01
      vertex -5.500000e+00 0.000000e+00 3.750000e-01
    endloop
  endfacet
  facet normal -1.951650e-01 0.000000e+00 9.807704e-01
    outer loop
      vertex -5.500000e+00 3.750000e-01 3.750000e-01
      vertex -5.500000e+00 0.000000e+00 3.750000e-01
      vertex -5.452227e+00 0.000000e+00 3.845064e-01
    endloop
  endfacet
  facet normal 0.000000e+00 -1.000000e+00 0.000000e+00
    outer loop
      vertex -5.500000e+00 0.000000e+00 -3.750000e-01
      vertex -5.452227e+00 0.000000e+00 -3.845064e-01
      vertex -5.500000e+00 0.000000e+00 3.750000e-01
    endloop
  endfacet
  facet normal 1.951650e-01 0.000000e+00 9.807704e-01
    outer loop
      vertex -5.547773e+00 3.750000e-01 3.845064e-01
      vertex -5.500000e+00 0.000000e+00 3.750000e-01
      vertex -5.500000e+00 3.750000e-01 3.750000e-01
    endloop
  endfacet
  facet normal 0.000000e+00 -1.000000e+00 0.000000e+00
    outer loop
      vertex -5.411632e+00 0.000000e+00 -4.116317e-01
      vertex -5.411632e+00 0.000000e+00 4.116317e-01
      vertex -5.452227e+00 0.000000e+00 3.845064e-01
    endloop
  endfacet
  facet normal -5.555749e-01 0.000000e+00 8.314665e-01
    outer loop
      vertex -5.452227e+00 3.750000e-01 3.845064e-01
      vertex -5.452227e+00 0.000000e+00 3.845064e-01
      vertex -5.411632e+00 0.000000e+00 4.116317e-01
    endloop
  endfacet
  facet normal 0.000000e+00 -1.000000e+00 0.000000e+00
    outer loop
      vertex -5.452227e+00 0.000000e+00 -3.845064e-01
      vertex -5.411632e+00 0.000000e+00 -4.116317e-01
      vertex -5.452227e+00 0.000000e+00 3.845064e-01
    endloop
  endfacet
  facet normal -1.951650e-01 0.000000e+00 9.807704e-01
    outer loop
      vertex -5.500000e+00 3.750000e-01 3.750000e-01
      vertex -5.452227e+00 0.000000e+00 3.845064e-01
      vertex -5.452227e+00 3.750000e-01 3.845064e-01
    endloop
  endfacet
  facet normal 0.000000e+00 -1.000000e+00 0.000000e+00
    outer loop
      vertex -5.384506e+00 0.000000e+00 -4.522269e-01
      vertex -5.384506e+00 0.000000e+00 4.522269e-01
      vertex -5.411632e+00 0.000000e+00 4.116317e-01
    endloop
  endfacet
  facet normal -8.314665e-01 0.000000e+00 5.555749e-01
    outer loop
      vertex -5.411632e+00 3.750000e-01 4.116317e-01
      vertex -5.411632e+00 0.000000e+00 4.116317e-01
      vertex -5.384506e+00 0.000000e+00 4.522269e-01
    endloop
  endfacet
  facet normal 0.000000e+00 -1.000000e+00 0.000000e+00
    outer loop
      vertex -5.411632e+00 0.000000e+00 -4.116317e-01
      vertex -5.384506e+00 0.000000e+00 -4.522269e-01
      vertex -5.411632e+00 0.000000e+00 4.116317e-01
    endloop
  endfacet
  facet normal -5.555749e-01 0.000000e+00 8.314665e-01
    outer loop
      vertex -5.452227e+00 3.750000e-01 3.845064e-01
      vertex -5.411632e+00 0.000000e+00 4.116317e-01
      vertex -5.411632e+00 3.750000e-01 4.116317e-01
    endloop
  endfacet
  facet normal 0.000000e+00 -1.000000e+00 0.000000e+00
    outer loop
      vertex -5.384506e+00 0.000000e+00 -4.522269e-01
      vertex -5.375000e+00 0.000000e+00 -5.000000e-01
      vertex -5.384506e+00 0.000000e+00 4.522269e-01
    endloop
  endfacet
  facet normal -8.314665e-01 0.000000e+00 5.555749e-01
    outer loop
      vertex -5.411632e+00 3.750000e-01 4.116317e-01
      vertex -5.384506e+00 0.000000e+00 4.522269e-01
      vertex -5.384506e+00 3.750000e-01 4.522269e-01
    endloop
  endfacet
  facet normal -9.807704e-01 0.000000e+00 -1.951650e-01
    outer loop
      vertex -5.375000e+00 3.750000e-01 -5.000000e-01
      vertex -5.375000e+00 0.000000e+00 -5.000000e-01
      vertex -5.384506e+00 0.000000e+00 -4.522269e-01
    endloop
  endfacet
  facet normal -9.807704e-01 0.000000e+00 1.951650e-01
    outer loop
      vertex -5.384506e+00 3.750000e-01 -5.477731e-01
      vertex -5.384506e+00 0.000000e+00 -5.477731e-01
      vertex -5.375000e+00 0.000000e+00 -5.000000e-01
    endloop
  endfacet
  facet normal -9.807704e-01 0.000000e+00 1.951650e-01
    outer loop
      vertex -5.384506e+00 3.750000e-01 -5.477731e-01
      vertex -5.375000e+00 0.000000e+00 -5.000000e-01
      vertex -5.375000e+00 3.750000e-01 -5.000000e-01
    endloop
  endfacet
  facet normal -8.314665e-01 0.000000e+00 -5.555749e-01
    outer loop
      vertex -5.384506e+00 3.750000e-01 -4.522269e-01
      vertex -5.384506e+00 0.000000e+00 -4.522269e-01
      vertex -5.411632e+00 0.000000e+00 -4.116317e-01
    endloop
  endfacet
  facet normal -9.807704e-01 0.000000e+00 -1.951650e-01
    outer loop
      vertex -5.384506e+00 3.750000e-01 -4.522269e-01
      vertex -5.375000e+00 3.750000e-01 -5.000000e-01
      vertex -5.384506e+00 0.000000e+00 -4.522269e-01
    endloop
  endfacet
  facet normal -5.555749e-01 0.000000e+00 -8.314665e-01
    outer loop
      vertex -5.411632e+00 3.750000e-01 -4.116317e-01
      vertex -5.411632e+00 0.000000e+00 -4.116317e-01
      vertex -5.452227e+00 0.000000e+00 -3.845064e-01
    endloop
  endfacet
  facet normal -8.314665e-01 0.000000e+00 -5.555749e-01
    outer loop
      vertex -5.384506e+00 3.750000e-01 -4.522269e-01
      vertex -5.411632e+00 0.000000e+00 -4.116317e-01
      vertex -5.411632e+00 3.750000e-01 -4.116317e-01
    endloop
  endfacet
  facet normal -1.951650e-01 0.000000e+00 -9.807704e-01
    outer loop
      vertex -5.452227e+00 3.750000e-01 -3.845064e-01
      vertex -5.452227e+00 0.000000e+00 -3.845064e-01
      vertex -5.500000e+00 0.000000e+00 -3.750000e-01
    endloop
  endfacet
  facet normal -5.555749e-01 0.000000e+00 -8.314665e-01
    outer loop
      vertex -5.411632e+00 3.750000e-01 -4.116317e-01
      vertex -5.452227e+00 0.000000e+00 -3.845064e-01
      vertex -5.452227e+00 3.750000e-01 -3.845064e-01
    endloop
  endfacet
  facet normal 1.951650e-01 0.000000e+00 -9.807704e-01
    outer loop
      vertex -5.500000e+00 3.750000e-01 -3.750000e-01
      vertex -5.500000e+00 0.000000e+00 -3.750000e-01
      vertex -5.547773e+00 0.000000e+00 -3.845064e-01
    endloop
  endfacet
  facet normal -1.951650e-01 0.000000e+00 -9.807704e-01
    outer loop
      vertex -5.452227e+00 3.750000e-01 -3.845064e-01
      vertex -5.500000e+00 0.000000e+00 -3.750000e-01
      vertex -5.500000e+00 3.750000e-01 -3.750000e-01
    endloop
  endfacet
  facet normal 5.555749e-01 0.000000e+00 -8.314665e-01
    outer loop
      vertex -5.547773e+00 3.750000e-01 -3.845064e-01
      vertex -5.547773e+00 0.000000e+00 -3.845064e-01
      vertex -5.588368e+00 0.000000e+00 -4.116317e-01
    endloop
  endfacet
  facet normal 1.951650e-01 0.000000e+00 -9.807704e-01
    outer loop
      vertex -5.500000e+00 3.750000e-01 -3.750000e-01
      vertex -5.547773e+00 0.000000e+00 -3.845064e-01
      vertex -5.547773e+00 3.750000e-01 -3.845064e-01
    endloop
  endfacet
  facet normal 8.314665e-01 0.000000e+00 -5.555749e-01
    outer loop
      vertex -5.588368e+00 3.750000e-01 -4.116317e-01
      vertex -5.588368e+00 0.000000e+00 -4.116317e-01
      vertex -5.615494e+00 0.000000e+00 -4.522269e-01
    endloop
  endfacet
  facet normal 5.555749e-01 0.000000e+00 -8.314665e-01
    outer loop
      vertex -5.547773e+00 3.750000e-01 -3.845064e-01
      vertex -5.588368e+00 0.000000e+00 -4.116317e-01
      vertex -5.588368e+00 3.750000e-01 -4.116317e-01
    endloop
  endfacet
  facet normal 9.807704e-01 0.000000e+00 -1.951650e-01
    outer loop
      vertex -5.615494e+00 3.750000e-01 -4.522269e-01
      vertex -5.615494e+00 0.000000e+00 -4.522269e-01
      vertex -5.625000e+00 0.000000e+00 -5.000000e-01
    endloop
  endfacet
  facet normal 8.314665e-01 0.000000e+00 -5.555749e-01
    outer loop
      vertex -5.588368e+00 3.750000e-01 -4.116317e-01
      vertex -5.615494e+00 0.000000e+00 -4.522269e-01
      vertex -5.615494e+00 3.750000e-01 -4.522269e-01
    endloop
  endfacet
  facet normal 9.807704e-01 0.000000e+00 1.951650e-01
    outer loop
      vertex -5.625000e+00 3.750000e-01 -5.000000e-01
      vertex -5.625000e+00 0.000000e+00 -5.000000e-01
      vertex -5.615494e+00 0.000000e+00 -5.477731e-01
    endloop
  endfacet
  facet normal 9.807704e-01 0.000000e+00 -1.951650e-01
    outer loop
      vertex -5.615494e+00 3.750000e-01 -4.522269e-01
      vertex -5.625000e+00 0.000000e+00 -5.000000e-01
      vertex -5.625000e+00 3.750000e-01 -5.000000e-01
    endloop
  endfacet
  facet normal 8.314665e-01 0.000000e+00 5.555749e-01
    outer loop
      vertex -5.615494e+00 3.750000e-01 -5.477731e-01
      vertex -5.615494e+00 0.000000e+00 -5.477731e-01
      vertex -5.588368e+00 0.000000e+00 -5.883683e-01
    endloop
  endfacet
  facet normal 9.807704e-01 0.000000e+00 1.951650e-01
    outer loop
      vertex -5.625000e+00 3.750000e-01 -5.000000e-01
      vertex -5.615494e+00 0.000000e+00 -5.477731e-01
      vertex -5.615494e+00 3.750000e-01 -5.477731e-01
    endloop
  endfacet
  facet normal 5.555749e-01 0.000000e+00 8.314665e-01
    outer loop
      vertex -5.588368e+00 3.750000e-01 -5.883683e-01
      vertex -5.588368e+00 0.000000e+00 -5.883683e-01
      vertex -5.547773e+00 0.000000e+00 -6.154936e-01
    endloop
  endfacet
  facet normal 8.314665e-01 0.000000e+00 5.555749e-01
    outer loop
      vertex -5.615494e+00 3.750000e-01 -5.477731e-01
      vertex -5.588368e+00 0.000000e+00 -5.883683e-01
      vertex -5.588368e+00 3.750000e-01 -5.883683e-01
    endloop
  endfacet
  facet normal 1.951650e-01 0.000000e+00 9.807704e-01
    outer loop
      vertex -5.547773e+00 3.750000e-01 -6.154936e-01
      vertex -5.547773e+00 0.000000e+00 -6.154936e-01
      vertex -5.500000e+00 0.000000e+00 -6.250000e-01
    endloop
  endfacet
  facet normal 5.555749e-01 0.000000e+00 8.314665e-01
    outer loop
      vertex -5.588368e+00 3.750000e-01 -5.883683e-01
      vertex -5.547773e+00 0.000000e+00 -6.154936e-01
      vertex -5.547773e+00 3.750000e-01 -6.154936e-01
    endloop
  endfacet
  facet normal -1.951650e-01 0.000000e+00 9.807704e-01
    outer loop
      vertex -5.500000e+00 3.750000e-01 -6.250000e-01
      vertex -5.500000e+00 0.000000e+00 -6.250000e-01
      vertex -5.452227e+00 0.000000e+00 -6.154936e-01
    endloop
  endfacet
  facet normal 1.951650e-01 0.000000e+00 9.807704e-01
    outer loop
      vertex -5.547773e+00 3.750000e-01 -6.154936e-01
      vertex -5.500000e+00 0.000000e+00 -6.250000e-01
      vertex -5.500000e+00 3.750000e-01 -6.250000e-01
    endloop
  endfacet
  facet normal -5.555749e-01 0.000000e+00 8.314665e-01
    outer loop
      vertex -5.452227e+00 3.750000e-01 -6.154936e-01
      vertex -5.452227e+00 0.000000e+00 -6.154936e-01
      vertex -5.411632e+00 0.000000e+00 -5.883683e-01
    endloop
  endfacet
  facet normal -1.951650e-01 0.000000e+00 9.807704e-01
    outer loop
      vertex -5.500000e+00 3.750000e-01 -6.250000e-01
      vertex -5.452227e+00 0.000000e+00 -6.154936e-01
      vertex -5.452227e+00 3.750000e-01 -6.154936e-01
    endloop
  endfacet
  facet normal -8.314665e-01 0.000000e+00 5.555749e-01
    outer loop
      vertex -5.411632e+00 3.750000e-01 -5.883683e-01
      vertex -5.411632e+00 0.000000e+00 -5.883683e-01
      vertex -5.384506e+00 0.000000e+00 -5.477731e-01
    endloop
  endfacet
  facet normal -5.555749e-01 0.000000e+00 8.314665e-01
    outer loop
      vertex -5.452227e+00 3.750000e-01 -6.154936e-01
      vertex -5.411632e+00 0.000000e+00 -5.883683e-01
      vertex -5.411632e+00 3.750000e-01 -5.883683e-01
    endloop
  endfacet
  facet normal -8.314665e-01 0.000000e+00 5.555749e-01
    outer loop
      vertex -5.411632e+00 3.750000e-01 -5.883683e-01
      vertex -5.384506e+00 0.000000e+00 -5.477731e-01
      vertex -5.384506e+00 3.750000e-01 -5.477731e-01
    endloop
  endfacet
  facet normal 0.000000e+00 -1.000000e+00 0.000000e+00
    outer loop
      vertex 1.850000e-01 0.000000e+00 -5.000000e-01
      vertex -2.217500e+00 0.000000e+00 5.562917e-01
      vertex -2.185000e+00 0.000000e+00 5.000000e-01
    endloop
  endfacet
  facet normal -8.660254e-01 0.000000e+00 -5.000000e-01
    outer loop
      vertex -2.185000e+00 3.750000e-01 5.000000e-01
      vertex -2.185000e+00 0.000000e+00 5.000000e-01
      vertex -2.217500e+00 0.000000e+00 5.562917e-01
    endloop
  endfacet
  facet normal 0.000000e+00 -1.000000e+00 0.000000e+00
    outer loop
      vertex -2.185000e+00 0.000000e+00 -5.000000e-01
      vertex -2.185000e+00 0.000000e+00 5.000000e-01
      vertex -2.217500e+00 0.000000e+00 4.437083e-01
    endloop
  endfacet
  facet normal -8.660254e-01 0.000000e+00 5.000000e-01
    outer loop
      vertex -2.217500e+00 3.750000e-01 4.437083e-01
      vertex -2.217500e+00 0.000000e+00 4.437083e-01
      vertex -2.185000e+00 0.000000e+00 5.000000e-01
    endloop
  endfacet
  facet normal 0.000000e+00 -1.000000e+00 0.000000e+00
    outer loop
      vertex 2.175000e-01 0.000000e+00 -5.562917e-01
      vertex -2.185000e+00 0.000000e+00 5.000000e-01
      vertex -2.185000e+00 0.000000e+00 -5.000000e-01
    endloop
  endfacet
  facet normal 0.000000e+00 -1.000000e+00 0.000000e+00
    outer loop
      vertex 2.175000e-01 0.000000e+00 -5.562917e-01
      vertex 1.850000e-01 0.000000e+00 -5.000000e-01
      vertex -2.185000e+00 0.000000e+00 5.000000e-01
    endloop
  endfacet
  facet normal -8.660254e-01 0.000000e+00 5.000000e-01
    outer loop
      vertex -2.217500e+00 3.750000e-01 4.437083e-01
      vertex -2.185000e+00 0.000000e+00 5.000000e-01
      vertex -2.185000e+00 3.750000e-01 5.000000e-01
    endloop
  endfacet
  facet normal -1.708035e-15 0.000000e+00 -1.000000e+00
    outer loop
      vertex -2.217500e+00 3.750000e-01 5.562917e-01
      vertex -2.217500e+00 0.000000e+00 5.562917e-01
      vertex -2.282500e+00 0.000000e+00 5.562917e-01
    endloop
  endfacet
  facet normal 0.000000e+00 -1.000000e+00 0.000000e+00
    outer loop
      vertex 1.850000e-01 0.000000e+00 5.000000e-01
      vertex -2.217500e+00 0.000000e+00 5.562917e-01
      vertex 1.850000e-01 0.000000e+00 -5.000000e-01
    endloop
  endfacet
  facet normal -8.660254e-01 0.000000e+00 -5.000000e-01
    outer loop
      vertex -2.217500e+00 3.750000e-01 5.562917e-01
      vertex -2.185000e+00 3.750000e-01 5.000000e-01
      vertex -2.217500e+00 0.000000e+00 5.562917e-01
    endloop
  endfacet
  facet normal 8.660254e-01 0.000000e+00 -5.000000e-01
    outer loop
      vertex -2.282500e+00 3.750000e-01 5.562917e-01
      vertex -2.282500e+00 0.000000e+00 5.562917e-01
      vertex -2.315000e+00 0.000000e+00 5.000000e-01
    endloop
  endfacet
  facet normal -1.708035e-15 0.000000e+00 -1.000000e+00
    outer loop
      vertex -2.217500e+00 3.750000e-01 5.562917e-01
      vertex -2.282500e+00 0.000000e+00 5.562917e-01
      vertex -2.282500e+00 3.750000e-01 5.562917e-01
    endloop
  endfacet
  facet normal 0.000000e+00 -1.000000e+00 0.000000e+00
    outer loop
      vertex -2.282500e+00 0.000000e+00 -4.437083e-01
      vertex -2.282500e+00 0.000000e+00 4.437083e-01
      vertex -2.315000e+00 0.000000e+00 5.000000e-01
    endloop
  endfacet
  facet normal 8.660254e-01 0.000000e+00 5.000000e-01
    outer loop
      vertex -2.315000e+00 3.750000e-01 5.000000e-01
      vertex -2.315000e+00 0.000000e+00 5.000000e-01
      vertex -2.282500e+00 0.000000e+00 4.437083e-01
    endloop
  endfacet
  facet normal 0.000000e+00 -1.000000e+00 0.000000e+00
    outer loop
      vertex -2.315000e+00 0.000000e+00 -5.000000e-01
      vertex -2.282500e+00 0.000000e+00 -4.437083e-01
      vertex -2.315000e+00 0.000000e+00 5.000000e-01
    endloop
  endfacet
  facet normal 8.660254e-01 0.000000e+00 -5.000000e-01
    outer loop
      vertex -2.282500e+00 3.750000e-01 5.562917e-01
      vertex -2.315000e+00 0.000000e+00 5.000000e-01
      vertex -2.315000e+00 3.750000e-01 5.000000e-01
    endloop
  endfacet
  facet normal 0.000000e+00 -1.000000e+00 0.000000e+00
    outer loop
      vertex -2.217500e+00 0.000000e+00 -4.437083e-01
      vertex -2.217500e+00 0.000000e+00 4.437083e-01
      vertex -2.282500e+00 0.000000e+00 4.437083e-01
    endloop
  endfacet
  facet normal 0.000000e+00 0.000000e+00 1.000000e+00
    outer loop
      vertex -2.282500e+00 3.750000e-01 4.437083e-01
      vertex -2.282500e+00 0.000000e+00 4.437083e-01
      vertex -2.217500e+00 0.000000e+00 4.437083e-01
    endloop
  endfacet
  facet normal 0.000000e+00 -1.000000e+00 0.000000e+00
    outer loop
      vertex -2.282500e+00 0.000000e+00 -4.437083e-01
      vertex -2.217500e+00 0.000000e+00 -4.437083e-01
      vertex -2.282500e+00 0.000000e+00 4.437083e-01
    endloop
  endfacet
  facet normal 8.660254e-01 0.000000e+00 5.000000e-01
    outer loop
      vertex -2.315000e+00 3.750000e-01 5.000000e-01
      vertex -2.282500e+00 0.000000e+00 4.437083e-01
      vertex -2.282500e+00 3.750000e-01 4.437083e-01
    endloop
  endfacet
  facet normal 0.000000e+00 -1.000000e+00 0.000000e+00
    outer loop
      vertex -2.217500e+00 0.000000e+00 -4.437083e-01
      vertex -2.185000e+00 0.000000e+00 -5.000000e-01
      vertex -2.217500e+00 0.000000e+00 4.437083e-01
    endloop
  endfacet
  facet normal 0.000000e+00 0.000000e+00 1.000000e+00
    outer loop
      vertex -2.282500e+00 3.750000e-01 4.437083e-01
      vertex -2.217500e+00 0.000000e+00 4.437083e-01
      vertex -2.217500e+00 3.750000e-01 4.437083e-01
    endloop
  endfacet
  facet normal -8.660254e-01 0.000000e+00 -5.000000e-01
    outer loop
      vertex -2.185000e+00 3.750000e-01 -5.000000e-01
      vertex -2.185000e+00 0.000000e+00 -5.000000e-01
      vertex -2.217500e+00 0.000000e+00 -4.437083e-01
    endloop
  endfacet
  facet normal -8.660254e-01 0.000000e+00 5.000000e-01
    outer loop
      vertex -2.217500e+00 3.750000e-01 -5.562917e-01
      vertex -2.217500e+00 0.000000e+00 -5.562917e-01
      vertex -2.185000e+00 0.000000e+00 -5.000000e-01
    endloop
  endfacet
  facet normal -8.660254e-01 0.000000e+00 5.000000e-01
    outer loop
      vertex -2.217500e+00 3.750000e-01 -5.562917e-01
      vertex -2.185000e+00 0.000000e+00 -5.000000e-01
      vertex -2.185000e+00 3.750000e-01 -5.000000e-01
    endloop
  endfacet
  facet normal -1.708035e-15 0.000000e+00 -1.000000e+00
    outer loop
      vertex -2.217500e+00 3.750000e-01 -4.437083e-01
      vertex -2.217500e+00 0.000000e+00 -4.437083e-01
      vertex -2.282500e+00 0.000000e+00 -4.437083e-01
    endloop
  endfacet
  facet normal -8.660254e-01 0.000000e+00 -5.000000e-01
    outer loop
      vertex -2.217500e+00 3.750000e-01 -4.437083e-01
      vertex -2.185000e+00 3.750000e-01 -5.000000e-01
      vertex -2.217500e+00 0.000000e+00 -4.437083e-01
    endloop
  endfacet
  facet normal 8.660254e-01 0.000000e+00 -5.000000e-01
    outer loop
      vertex -2.282500e+00 3.750000e-01 -4.437083e-01
      vertex -2.282500e+00 0.000000e+00 -4.437083e-01
      vertex -2.315000e+00 0.000000e+00 -5.000000e-01
    endloop
  endfacet
  facet normal -1.708035e-15 0.000000e+00 -1.000000e+00
    outer loop
      vertex -2.217500e+00 3.750000e-01 -4.437083e-01
      vertex -2.282500e+00 0.000000e+00 -4.437083e-01
      vertex -2.282500e+00 3.750000e-01 -4.437083e-01
    endloop
  endfacet
  facet normal 8.660254e-01 0.000000e+00 5.000000e-01
    outer loop
      vertex -2.315000e+00 3.750000e-01 -5.000000e-01
      vertex -2.315000e+00 0.000000e+00 -5.000000e-01
      vertex -2.282500e+00 0.000000e+00 -5.562917e-01
    endloop
  endfacet
  facet normal 8.660254e-01 0.000000e+00 -5.000000e-01
    outer loop
      vertex -2.282500e+00 3.750000e-01 -4.437083e-01
      vertex -2.315000e+00 0.000000e+00 -5.000000e-01
      vertex -2.315000e+00 3.750000e-01 -5.000000e-01
    endloop
  endfacet
  facet normal 0.000000e+00 0.000000e+00 1.000000e+00
    outer loop
      vertex -2.282500e+00 3.750000e-01 -5.562917e-01
      vertex -2.282500e+00 0.000000e+00 -5.562917e-01
      vertex -2.217500e+00 0.000000e+00 -5.562917e-01
    endloop
  endfacet
  facet normal 8.660254e-01 0.000000e+00 5.000000e-01
    outer loop
      vertex -2.315000e+00 3.750000e-01 -5.000000e-01
      vertex -2.282500e+00 0.000000e+00 -5.562917e-01
      vertex -2.282500e+00 3.750000e-01 -5.562917e-01
    endloop
  endfacet
  facet normal 0.000000e+00 0.000000e+00 1.000000e+00
    outer loop
      vertex -2.282500e+00 3.750000e-01 -5.562917e-01
      vertex -2.217500e+00 0.000000e+00 -5.562917e-01
      vertex -2.217500e+00 3.750000e-01 -5.562917e-01
    endloop
  endfacet
  facet normal 0.000000e+00 -1.000000e+00 0.000000e+00
    outer loop
      vertex 2.825000e-01 0.000000e+00 4.437083e-01
      vertex 2.825000e-01 0.000000e+00 -4.437083e-01
      vertex 3.150000e-01 0.000000e+00 -5.000000e-01
    endloop
  endfacet
  facet normal -8.660254e-01 0.000000e+00 -5.000000e-01
    outer loop
      vertex 3.150000e-01 3.750000e-01 -5.000000e-01
      vertex 3.150000e-01 0.000000e+00 -5.000000e-01
      vertex 2.825000e-01 0.000000e+00 -4.437083e-01
    endloop
  endfacet
  facet normal -8.660254e-01 0.000000e+00 5.000000e-01
    outer loop
      vertex 2.825000e-01 3.750000e-01 -5.562917e-01
      vertex 2.825000e-01 0.000000e+00 -5.562917e-01
      vertex 3.150000e-01 0.000000e+00 -5.000000e-01
    endloop
  endfacet
  facet normal 0.000000e+00 -1.000000e+00 0.000000e+00
    outer loop
      vertex 2.825000e-01 0.000000e+00 4.437083e-01
      vertex 3.150000e-01 0.000000e+00 -5.000000e-01
      vertex 3.150000e-01 0.000000e+00 5.000000e-01
    endloop
  endfacet
  facet normal -8.660254e-01 0.000000e+00 5.000000e-01
    outer loop
      vertex 2.825000e-01 3.750000e-01 -5.562917e-01
      vertex 3.150000e-01 0.000000e+00 -5.000000e-01
      vertex 3.150000e-01 3.750000e-01 -5.000000e-01
    endloop
  endfacet
  facet normal 0.000000e+00 -1.000000e+00 0.000000e+00
    outer loop
      vertex 2.175000e-01 0.000000e+00 4.437083e-01
      vertex 2.175000e-01 0.000000e+00 -4.437083e-01
      vertex 2.825000e-01 0.000000e+00 -4.437083e-01
    endloop
  endfacet
  facet normal 0.000000e+00 0.000000e+00 -1.000000e+00
    outer loop
      vertex 2.825000e-01 3.750000e-01 -4.437083e-01
      vertex 2.825000e-01 0.000000e+00 -4.437083e-01
      vertex 2.175000e-01 0.000000e+00 -4.437083e-01
    endloop
  endfacet
  facet normal 0.000000e+00 -1.000000e+00 0.000000e+00
    outer loop
      vertex 2.825000e-01 0.000000e+00 4.437083e-01
      vertex 2.175000e-01 0.000000e+00 4.437083e-01
      vertex 2.825000e-01 0.000000e+00 -4.437083e-01
    endloop
  endfacet
  facet normal -8.660254e-01 0.000000e+00 -5.000000e-01
    outer loop
      vertex 2.825000e-01 3.750000e-01 -4.437083e-01
      vertex 3.150000e-01 3.750000e-01 -5.000000e-01
      vertex 2.825000e-01 0.000000e+00 -4.437083e-01
    endloop
  endfacet
  facet normal 0.000000e+00 -1.000000e+00 0.000000e+00
    outer loop
      vertex 1.850000e-01 0.000000e+00 5.000000e-01
      vertex 1.850000e-01 0.000000e+00 -5.000000e-01
      vertex 2.175000e-01 0.000000e+00 -4.437083e-01
    endloop
  endfacet
  facet normal 8.660254e-01 0.000000e+00 -5.000000e-01
    outer loop
      vertex 2.175000e-01 3.750000e-01 -4.437083e-01
      vertex 2.175000e-01 0.000000e+00 -4.437083e-01
      vertex 1.850000e-01 0.000000e+00 -5.000000e-01
    endloop
  endfacet
  facet normal 0.000000e+00 -1.000000e+00 0.000000e+00
    outer loop
      vertex 2.175000e-01 0.000000e+00 4.437083e-01
      vertex 1.850000e-01 0.000000e+00 5.000000e-01
      vertex 2.175000e-01 0.000000e+00 -4.437083e-01
    endloop
  endfacet
  facet normal 0.000000e+00 0.000000e+00 -1.000000e+00
    outer loop
      vertex 2.825000e-01 3.750000e-01 -4.437083e-01
      vertex 2.175000e-01 0.000000e+00 -4.437083e-01
      vertex 2.175000e-01 3.750000e-01 -4.437083e-01
    endloop
  endfacet
  facet normal 8.660254e-01 0.000000e+00 5.000000e-01
    outer loop
      vertex 1.850000e-01 3.750000e-01 -5.000000e-01
      vertex 1.850000e-01 0.000000e+00 -5.000000e-01
      vertex 2.175000e-01 0.000000e+00 -5.562917e-01
    endloop
  endfacet
  facet normal 8.660254e-01 0.000000e+00 -5.000000e-01
    outer loop
      vertex 2.175000e-01 3.750000e-01 -4.437083e-01
      vertex 1.850000e-01 0.000000e+00 -5.000000e-01
      vertex 1.850000e-01 3.750000e-01 -5.000000e-01
    endloop
  endfacet
  facet normal 0.000000e+00 0.000000e+00 1.000000e+00
    outer loop
      vertex 2.175000e-01 3.750000e-01 -5.562917e-01
      vertex 2.175000e-01 0.000000e+00 -5.562917e-01
      vertex 2.825000e-01 0.000000e+00 -5.562917e-01
    endloop
  endfacet
  facet normal 8.660254e-01 0.000000e+00 5.000000e-01
    outer loop
      vertex 1.850000e-01 3.750000e-01 -5.000000e-01
      vertex 2.175000e-01 0.000000e+00 -5.562917e-01
      vertex 2.175000e-01 3.750000e-01 -5.562917e-01
    endloop
  endfacet
  facet normal 0.000000e+00 0.000000e+00 1.000000e+00
    outer loop
      vertex 2.175000e-01 3.750000e-01 -5.562917e-01
      vertex 2.825000e-01 0.000000e+00 -5.562917e-01
      vertex 2.825000e-01 3.750000e-01 -5.562917e-01
    endloop
  endfacet
  facet normal -8.660254e-01 0.000000e+00 -5.000000e-01
    outer loop
      vertex 3.150000e-01 3.750000e-01 5.000000e-01
      vertex 3.150000e-01 0.000000e+00 5.000000e-01
      vertex 2.825000e-01 0.000000e+00 5.562917e-01
    endloop
  endfacet
  facet normal -8.660254e-01 0.000000e+00 5.000000e-01
    outer loop
      vertex 2.825000e-01 3.750000e-01 4.437083e-01
      vertex 2.825000e-01 0.000000e+00 4.437083e-01
      vertex 3.150000e-01 0.000000e+00 5.000000e-01
    endloop
  endfacet
  facet normal -8.660254e-01 0.000000e+00 5.000000e-01
    outer loop
      vertex 2.825000e-01 3.750000e-01 4.437083e-01
      vertex 3.150000e-01 0.000000e+00 5.000000e-01
      vertex 3.150000e-01 3.750000e-01 5.000000e-01
    endloop
  endfacet
  facet normal 0.000000e+00 0.000000e+00 -1.000000e+00
    outer loop
      vertex 2.825000e-01 3.750000e-01 5.562917e-01
      vertex 2.825000e-01 0.000000e+00 5.562917e-01
      vertex 2.175000e-01 0.000000e+00 5.562917e-01
    endloop
  endfacet
  facet normal -8.660254e-01 0.000000e+00 -5.000000e-01
    outer loop
      vertex 2.825000e-01 3.750000e-01 5.562917e-01
      vertex 3.150000e-01 3.750000e-01 5.000000e-01
      vertex 2.825000e-01 0.000000e+00 5.562917e-01
    endloop
  endfacet
  facet normal 8.660254e-01 0.000000e+00 -5.000000e-01
    outer loop
      vertex 2.175000e-01 3.750000e-01 5.562917e-01
      vertex 2.175000e-01 0.000000e+00 5.562917e-01
      vertex 1.850000e-01 0.000000e+00 5.000000e-01
    endloop
  endfacet
  facet normal 0.000000e+00 0.000000e+00 -1.000000e+00
    outer loop
      vertex 2.825000e-01 3.750000e-01 5.562917e-01
      vertex 2.175000e-01 0.000000e+00 5.562917e-01
      vertex 2.175000e-01 3.750000e-01 5.562917e-01
    endloop
  endfacet
  facet normal 8.660254e-01 0.000000e+00 5.000000e-01
    outer loop
      vertex 1.850000e-01 3.750000e-01 5.000000e-01
      vertex 1.850000e-01 0.000000e+00 5.000000e-01
      vertex 2.175000e-01 0.000000e+00 4.437083e-01
    endloop
  endfacet
  facet normal 8.660254e-01 0.000000e+00 -5.000000e-01
    outer loop
      vertex 2.175000e-01 3.750000e-01 5.562917e-01
      vertex 1.850000e-01 0.000000e+00 5.000000e-01
      vertex 1.850000e-01 3.750000e-01 5.000000e-01
    endloop
  endfacet
  facet normal 8.540177e-16 0.000000e+00 1.000000e+00
    outer loop
      vertex 2.175000e-01 3.750000e-01 4.437083e-01
      vertex 2.175000e-01 0.000000e+00 4.437083e-01
      vertex 2.825000e-01 0.000000e+00 4.437083e-01
    endloop
  endfacet
  facet normal 8.660254e-01 0.000000e+00 5.000000e-01
    outer loop
      vertex 1.850000e-01 3.750000e-01 5.000000e-01
      vertex 2.175000e-01 0.000000e+00 4.437083e-01
      vertex 2.175000e-01 3.750000e-01 4.437083e-01
    endloop
  endfacet
  facet normal 8.540177e-16 0.000000e+00 1.000000e+00
    outer loop
      vertex 2.175000e-01 3.750000e-01 4.437083e-01
      vertex 2.825000e-01 0.000000e+00 4.437083e-01
      vertex 2.825000e-01 3.750000e-01 4.437083e-01
    endloop
  endfacet
  facet normal 0.000000e+00 1.000000e+00 0.000000e+00
    outer loop
      vertex 4.000000e+00 3.750000e-01 -6.250000e-01
      vertex 5.000000e+00 3.750000e-01 -1.500000e+00
      vertex -6.000000e+00 3.750000e-01 -1.500000e+00
    endloop
  endfacet
  facet normal 0.000000e+00 1.000000e+00 0.000000e+00
    outer loop
      vertex -5.625000e+00 3.750000e-01 5.000000e-01
      vertex -6.000000e+00 3.750000e-01 -1.500000e+00
      vertex -6.000000e+00 3.750000e-01 1.500000e+00
    endloop
  endfacet
  facet normal 0.000000e+00 1.000000e+00 0.000000e+00
    outer loop
      vertex 3.952227e+00 3.750000e-01 -6.154936e-01
      vertex 4.000000e+00 3.750000e-01 -6.250000e-01
      vertex -6.000000e+00 3.750000e-01 -1.500000e+00
    endloop
  endfacet
  facet normal 0.000000e+00 1.000000e+00 0.000000e+00
    outer loop
      vertex 3.911632e+00 3.750000e-01 -5.883683e-01
      vertex 3.952227e+00 3.750000e-01 -6.154936e-01
      vertex -6.000000e+00 3.750000e-01 -1.500000e+00
    endloop
  endfacet
  facet normal 0.000000e+00 1.000000e+00 0.000000e+00
    outer loop
      vertex 3.884506e+00 3.750000e-01 -5.477731e-01
      vertex 3.911632e+00 3.750000e-01 -5.883683e-01
      vertex -6.000000e+00 3.750000e-01 -1.500000e+00
    endloop
  endfacet
  facet normal 0.000000e+00 1.000000e+00 0.000000e+00
    outer loop
      vertex 3.875000e+00 3.750000e-01 -5.000000e-01
      vertex 3.884506e+00 3.750000e-01 -5.477731e-01
      vertex -6.000000e+00 3.750000e-01 -1.500000e+00
    endloop
  endfacet
  facet normal 0.000000e+00 1.000000e+00 0.000000e+00
    outer loop
      vertex 2.825000e-01 3.750000e-01 -5.562917e-01
      vertex 3.875000e+00 3.750000e-01 -5.000000e-01
      vertex -6.000000e+00 3.750000e-01 -1.500000e+00
    endloop
  endfacet
  facet normal 0.000000e+00 1.000000e+00 0.000000e+00
    outer loop
      vertex -5.625000e+00 3.750000e-01 -5.000000e-01
      vertex -6.000000e+00 3.750000e-01 -1.500000e+00
      vertex -5.625000e+00 3.750000e-01 5.000000e-01
    endloop
  endfacet
  facet normal 0.000000e+00 1.000000e+00 0.000000e+00
    outer loop
      vertex -5.411632e+00 3.750000e-01 -5.883683e-01
      vertex -5.384506e+00 3.750000e-01 -5.477731e-01
      vertex -6.000000e+00 3.750000e-01 -1.500000e+00
    endloop
  endfacet
  facet normal 0.000000e+00 1.000000e+00 0.000000e+00
    outer loop
      vertex -2.315000e+00 3.750000e-01 5.000000e-01
      vertex -6.000000e+00 3.750000e-01 -1.500000e+00
      vertex -5.384506e+00 3.750000e-01 -5.477731e-01
    endloop
  endfacet
  facet normal 0.000000e+00 1.000000e+00 0.000000e+00
    outer loop
      vertex -5.452227e+00 3.750000e-01 -6.154936e-01
      vertex -5.411632e+00 3.750000e-01 -5.883683e-01
      vertex -6.000000e+00 3.750000e-01 -1.500000e+00
    endloop
  endfacet
  facet normal 0.000000e+00 1.000000e+00 0.000000e+00
    outer loop
      vertex -5.500000e+00 3.750000e-01 -6.250000e-01
      vertex -5.452227e+00 3.750000e-01 -6.154936e-01
      vertex -6.000000e+00 3.750000e-01 -1.500000e+00
    endloop
  endfacet
  facet normal 0.000000e+00 1.000000e+00 0.000000e+00
    outer loop
      vertex -5.547773e+00 3.750000e-01 -6.154936e-01
      vertex -5.500000e+00 3.750000e-01 -6.250000e-01
      vertex -6.000000e+00 3.750000e-01 -1.500000e+00
    endloop
  endfacet
  facet normal 0.000000e+00 1.000000e+00 0.000000e+00
    outer loop
      vertex -5.588368e+00 3.750000e-01 -5.883683e-01
      vertex -5.547773e+00 3.750000e-01 -6.154936e-01
      vertex -6.000000e+00 3.750000e-01 -1.500000e+00
    endloop
  endfacet
  facet normal 0.000000e+00 1.000000e+00 0.000000e+00
    outer loop
      vertex -5.615494e+00 3.750000e-01 -5.477731e-01
      vertex -5.588368e+00 3.750000e-01 -5.883683e-01
      vertex -6.000000e+00 3.750000e-01 -1.500000e+00
    endloop
  endfacet
  facet normal 0.000000e+00 1.000000e+00 0.000000e+00
    outer loop
      vertex -5.625000e+00 3.750000e-01 -5.000000e-01
      vertex -5.615494e+00 3.750000e-01 -5.477731e-01
      vertex -6.000000e+00 3.750000e-01 -1.500000e+00
    endloop
  endfacet
  facet normal 0.000000e+00 1.000000e+00 0.000000e+00
    outer loop
      vertex -2.315000e+00 3.750000e-01 -5.000000e-01
      vertex -6.000000e+00 3.750000e-01 -1.500000e+00
      vertex -2.315000e+00 3.750000e-01 5.000000e-01
    endloop
  endfacet
  facet normal 0.000000e+00 1.000000e+00 0.000000e+00
    outer loop
      vertex -2.282500e+00 3.750000e-01 -5.562917e-01
      vertex -2.217500e+00 3.750000e-01 -5.562917e-01
      vertex -6.000000e+00 3.750000e-01 -1.500000e+00
    endloop
  endfacet
  facet normal 0.000000e+00 1.000000e+00 0.000000e+00
    outer loop
      vertex 1.850000e-01 3.750000e-01 -5.000000e-01
      vertex -6.000000e+00 3.750000e-01 -1.500000e+00
      vertex -2.217500e+00 3.750000e-01 -5.562917e-01
    endloop
  endfacet
  facet normal 0.000000e+00 1.000000e+00 0.000000e+00
    outer loop
      vertex -2.315000e+00 3.750000e-01 -5.000000e-01
      vertex -2.282500e+00 3.750000e-01 -5.562917e-01
      vertex -6.000000e+00 3.750000e-01 -1.500000e+00
    endloop
  endfacet
  facet normal 0.000000e+00 1.000000e+00 0.000000e+00
    outer loop
      vertex 2.175000e-01 3.750000e-01 -5.562917e-01
      vertex 2.825000e-01 3.750000e-01 -5.562917e-01
      vertex -6.000000e+00 3.750000e-01 -1.500000e+00
    endloop
  endfacet
  facet normal 0.000000e+00 1.000000e+00 0.000000e+00
    outer loop
      vertex 1.850000e-01 3.750000e-01 -5.000000e-01
      vertex 2.175000e-01 3.750000e-01 -5.562917e-01
      vertex -6.000000e+00 3.750000e-01 -1.500000e+00
    endloop
  endfacet
  facet normal 0.000000e+00 1.000000e+00 0.000000e+00
    outer loop
      vertex 4.115494e+00 3.750000e-01 -5.477731e-01
      vertex 5.000000e+00 3.750000e-01 1.500000e+00
      vertex 5.000000e+00 3.750000e-01 -1.500000e+00
    endloop
  endfacet
  facet normal 0.000000e+00 1.000000e+00 0.000000e+00
    outer loop
      vertex 4.088368e+00 3.750000e-01 -5.883683e-01
      vertex 4.115494e+00 3.750000e-01 -5.477731e-01
      vertex 5.000000e+00 3.750000e-01 -1.500000e+00
    endloop
  endfacet
  facet normal 0.000000e+00 1.000000e+00 0.000000e+00
    outer loop
      vertex 4.047773e+00 3.750000e-01 -6.154936e-01
      vertex 4.088368e+00 3.750000e-01 -5.883683e-01
      vertex 5.000000e+00 3.750000e-01 -1.500000e+00
    endloop
  endfacet
  facet normal 0.000000e+00 1.000000e+00 0.000000e+00
    outer loop
      vertex 4.000000e+00 3.750000e-01 -6.250000e-01
      vertex 4.047773e+00 3.750000e-01 -6.154936e-01
      vertex 5.000000e+00 3.750000e-01 -1.500000e+00
    endloop
  endfacet
  facet normal 0.000000e+00 1.000000e+00 0.000000e+00
    outer loop
      vertex -5.500000e+00 3.750000e-01 6.250000e-01
      vertex -6.000000e+00 3.750000e-01 1.500000e+00
      vertex 5.000000e+00 3.750000e-01 1.500000e+00
    endloop
  endfacet
  facet normal 0.000000e+00 1.000000e+00 0.000000e+00
    outer loop
      vertex 4.115494e+00 3.750000e-01 5.477731e-01
      vertex 5.000000e+00 3.750000e-01 1.500000e+00
      vertex 4.125000e+00 3.750000e-01 5.000000e-01
    endloop
  endfacet
  facet normal 0.000000e+00 1.000000e+00 0.000000e+00
    outer loop
      vertex 4.125000e+00 3.750000e-01 -5.000000e-01
      vertex 4.125000e+00 3.750000e-01 5.000000e-01
      vertex 5.000000e+00 3.750000e-01 1.500000e+00
    endloop
  endfacet
  facet normal 0.000000e+00 1.000000e+00 0.000000e+00
    outer loop
      vertex 3.952227e+00 3.750000e-01 6.154936e-01
      vertex 3.911632e+00 3.750000e-01 5.883683e-01
      vertex 5.000000e+00 3.750000e-01 1.500000e+00
    endloop
  endfacet
  facet normal 0.000000e+00 1.000000e+00 0.000000e+00
    outer loop
      vertex 3.150000e-01 3.750000e-01 -5.000000e-01
      vertex 5.000000e+00 3.750000e-01 1.500000e+00
      vertex 3.911632e+00 3.750000e-01 5.883683e-01
    endloop
  endfacet
  facet normal 0.000000e+00 1.000000e+00 0.000000e+00
    outer loop
      vertex 4.000000e+00 3.750000e-01 6.250000e-01
      vertex 3.952227e+00 3.750000e-01 6.154936e-01
      vertex 5.000000e+00 3.750000e-01 1.500000e+00
    endloop
  endfacet
  facet normal 0.000000e+00 1.000000e+00 0.000000e+00
    outer loop
      vertex 4.047773e+00 3.750000e-01 6.154936e-01
      vertex 4.000000e+00 3.750000e-01 6.250000e-01
      vertex 5.000000e+00 3.750000e-01 1.500000e+00
    endloop
  endfacet
  facet normal 0.000000e+00 1.000000e+00 0.000000e+00
    outer loop
      vertex 4.088368e+00 3.750000e-01 5.883683e-01
      vertex 4.047773e+00 3.750000e-01 6.154936e-01
      vertex 5.000000e+00 3.750000e-01 1.500000e+00
    endloop
  endfacet
  facet normal 0.000000e+00 1.000000e+00 0.000000e+00
    outer loop
      vertex 4.115494e+00 3.750000e-01 5.477731e-01
      vertex 4.088368e+00 3.750000e-01 5.883683e-01
      vertex 5.000000e+00 3.750000e-01 1.500000e+00
    endloop
  endfacet
  facet normal 0.000000e+00 1.000000e+00 0.000000e+00
    outer loop
      vertex 4.115494e+00 3.750000e-01 -5.477731e-01
      vertex 4.125000e+00 3.750000e-01 -5.000000e-01
      vertex 5.000000e+00 3.750000e-01 1.500000e+00
    endloop
  endfacet
  facet normal 0.000000e+00 1.000000e+00 0.000000e+00
    outer loop
      vertex -5.384506e+00 3.750000e-01 5.477731e-01
      vertex 5.000000e+00 3.750000e-01 1.500000e+00
      vertex -5.375000e+00 3.750000e-01 5.000000e-01
    endloop
  endfacet
  facet normal 0.000000e+00 1.000000e+00 0.000000e+00
    outer loop
      vertex -2.282500e+00 3.750000e-01 5.562917e-01
      vertex -5.375000e+00 3.750000e-01 5.000000e-01
      vertex 5.000000e+00 3.750000e-01 1.500000e+00
    endloop
  endfacet
  facet normal 0.000000e+00 1.000000e+00 0.000000e+00
    outer loop
      vertex -5.452227e+00 3.750000e-01 6.154936e-01
      vertex -5.500000e+00 3.750000e-01 6.250000e-01
      vertex 5.000000e+00 3.750000e-01 1.500000e+00
    endloop
  endfacet
  facet normal 0.000000e+00 1.000000e+00 0.000000e+00
    outer loop
      vertex -5.411632e+00 3.750000e-01 5.883683e-01
      vertex -5.452227e+00 3.750000e-01 6.154936e-01
      vertex 5.000000e+00 3.750000e-01 1.500000e+00
    endloop
  endfacet
  facet normal 0.000000e+00 1.000000e+00 0.000000e+00
    outer loop
      vertex -5.384506e+00 3.750000e-01 5.477731e-01
      vertex -5.411632e+00 3.750000e-01 5.883683e-01
      vertex 5.000000e+00 3.750000e-01 1.500000e+00
    endloop
  endfacet
  facet normal 0.000000e+00 1.000000e+00 0.000000e+00
    outer loop
      vertex -2.217500e+00 3.750000e-01 5.562917e-01
      vertex 5.000000e+00 3.750000e-01 1.500000e+00
      vertex -2.185000e+00 3.750000e-01 5.000000e-01
    endloop
  endfacet
  facet normal 0.000000e+00 1.000000e+00 0.000000e+00
    outer loop
      vertex 2.175000e-01 3.750000e-01 5.562917e-01
      vertex -2.185000e+00 3.750000e-01 5.000000e-01
      vertex 5.000000e+00 3.750000e-01 1.500000e+00
    endloop
  endfacet
  facet normal 0.000000e+00 1.000000e+00 0.000000e+00
    outer loop
      vertex -2.217500e+00 3.750000e-01 5.562917e-01
      vertex -2.282500e+00 3.750000e-01 5.562917e-01
      vertex 5.000000e+00 3.750000e-01 1.500000e+00
    endloop
  endfacet
  facet normal 0.000000e+00 1.000000e+00 0.000000e+00
    outer loop
      vertex 3.150000e-01 3.750000e-01 5.000000e-01
      vertex 5.000000e+00 3.750000e-01 1.500000e+00
      vertex 3.150000e-01 3.750000e-01 -5.000000e-01
    endloop
  endfacet
  facet normal 0.000000e+00 1.000000e+00 0.000000e+00
    outer loop
      vertex 2.825000e-01 3.750000e-01 5.562917e-01
      vertex 5.000000e+00 3.750000e-01 1.500000e+00
      vertex 3.150000e-01 3.750000e-01 5.000000e-01
    endloop
  endfacet
  facet normal 0.000000e+00 1.000000e+00 0.000000e+00
    outer loop
      vertex 2.825000e-01 3.750000e-01 5.562917e-01
      vertex 2.175000e-01 3.750000e-01 5.562917e-01
      vertex 5.000000e+00 3.750000e-01 1.500000e+00
    endloop
  endfacet
  facet normal 0.000000e+00 1.000000e+00 0.000000e+00
    outer loop
      vertex -5.615494e+00 3.750000e-01 5.477731e-01
      vertex -5.625000e+00 3.750000e-01 5.000000e-01
      vertex -6.000000e+00 3.750000e-01 1.500000e+00
    endloop
  endfacet
  facet normal 0.000000e+00 1.000000e+00 0.000000e+00
    outer loop
      vertex -5.588368e+00 3.750000e-01 5.883683e-01
      vertex -5.615494e+00 3.750000e-01 5.477731e-01
      vertex -6.000000e+00 3.750000e-01 1.500000e+00
    endloop
  endfacet
  facet normal 0.000000e+00 1.000000e+00 0.000000e+00
    outer loop
      vertex -5.547773e+00 3.750000e-01 6.154936e-01
      vertex -5.588368e+00 3.750000e-01 5.883683e-01
      vertex -6.000000e+00 3.750000e-01 1.500000e+00
    endloop
  endfacet
  facet normal 0.000000e+00 1.000000e+00 0.000000e+00
    outer loop
      vertex -5.500000e+00 3.750000e-01 6.250000e-01
      vertex -5.547773e+00 3.750000e-01 6.154936e-01
      vertex -6.000000e+00 3.750000e-01 1.500000e+00
    endloop
  endfacet
  facet normal 0.000000e+00 1.000000e+00 0.000000e+00
    outer loop
      vertex 4.115494e+00 3.750000e-01 -4.522269e-01
      vertex 4.115494e+00 3.750000e-01 4.522269e-01
      vertex 4.125000e+00 3.750000e-01 5.000000e-01
    endloop
  endfacet
  facet normal 0.000000e+00 1.000000e+00 0.000000e+00
    outer loop
      vertex 4.115494e+00 3.750000e-01 -4.522269e-01
      vertex 4.125000e+00 3.750000e-01 5.000000e-01
      vertex 4.125000e+00 3.750000e-01 -5.000000e-01
    endloop
  endfacet
  facet normal 0.000000e+00 1.000000e+00 0.000000e+00
    outer loop
      vertex 4.088368e+00 3.750000e-01 -4.116317e-01
      vertex 4.088368e+00 3.750000e-01 4.116317e-01
      vertex 4.115494e+00 3.750000e-01 4.522269e-01
    endloop
  endfacet
  facet normal 0.000000e+00 1.000000e+00 0.000000e+00
    outer loop
      vertex 4.115494e+00 3.750000e-01 -4.522269e-01
      vertex 4.088368e+00 3.750000e-01 -4.116317e-01
      vertex 4.115494e+00 3.750000e-01 4.522269e-01
    endloop
  endfacet
  facet normal 0.000000e+00 1.000000e+00 0.000000e+00
    outer loop
      vertex 4.047773e+00 3.750000e-01 -3.845064e-01
      vertex 4.047773e+00 3.750000e-01 3.845064e-01
      vertex 4.088368e+00 3.750000e-01 4.116317e-01
    endloop
  endfacet
  facet normal 0.000000e+00 1.000000e+00 0.000000e+00
    outer loop
      vertex 4.088368e+00 3.750000e-01 -4.116317e-01
      vertex 4.047773e+00 3.750000e-01 -3.845064e-01
      vertex 4.088368e+00 3.750000e-01 4.116317e-01
    endloop
  endfacet
  facet normal 0.000000e+00 1.000000e+00 0.000000e+00
    outer loop
      vertex 4.000000e+00 3.750000e-01 -3.750000e-01
      vertex 4.000000e+00 3.750000e-01 3.750000e-01
      vertex 4.047773e+00 3.750000e-01 3.845064e-01
    endloop
  endfacet
  facet normal 0.000000e+00 1.000000e+00 0.000000e+00
    outer loop
      vertex 4.047773e+00 3.750000e-01 -3.845064e-01
      vertex 4.000000e+00 3.750000e-01 -3.750000e-01
      vertex 4.047773e+00 3.750000e-01 3.845064e-01
    endloop
  endfacet
  facet normal 0.000000e+00 1.000000e+00 0.000000e+00
    outer loop
      vertex 3.952227e+00 3.750000e-01 -3.845064e-01
      vertex 3.952227e+00 3.750000e-01 3.845064e-01
      vertex 4.000000e+00 3.750000e-01 3.750000e-01
    endloop
  endfacet
  facet normal 0.000000e+00 1.000000e+00 0.000000e+00
    outer loop
      vertex 4.000000e+00 3.750000e-01 -3.750000e-01
      vertex 3.952227e+00 3.750000e-01 -3.845064e-01
      vertex 4.000000e+00 3.750000e-01 3.750000e-01
    endloop
  endfacet
  facet normal 0.000000e+00 1.000000e+00 0.000000e+00
    outer loop
      vertex 3.911632e+00 3.750000e-01 -4.116317e-01
      vertex 3.911632e+00 3.750000e-01 4.116317e-01
      vertex 3.952227e+00 3.750000e-01 3.845064e-01
    endloop
  endfacet
  facet normal 0.000000e+00 1.000000e+00 0.000000e+00
    outer loop
      vertex 3.952227e+00 3.750000e-01 -3.845064e-01
      vertex 3.911632e+00 3.750000e-01 -4.116317e-01
      vertex 3.952227e+00 3.750000e-01 3.845064e-01
    endloop
  endfacet
  facet normal 0.000000e+00 1.000000e+00 0.000000e+00
    outer loop
      vertex 3.884506e+00 3.750000e-01 -4.522269e-01
      vertex 3.884506e+00 3.750000e-01 4.522269e-01
      vertex 3.911632e+00 3.750000e-01 4.116317e-01
    endloop
  endfacet
  facet normal 0.000000e+00 1.000000e+00 0.000000e+00
    outer loop
      vertex 3.911632e+00 3.750000e-01 -4.116317e-01
      vertex 3.884506e+00 3.750000e-01 -4.522269e-01
      vertex 3.911632e+00 3.750000e-01 4.116317e-01
    endloop
  endfacet
  facet normal 0.000000e+00 1.000000e+00 0.000000e+00
    outer loop
      vertex 3.875000e+00 3.750000e-01 -5.000000e-01
      vertex 3.875000e+00 3.750000e-01 5.000000e-01
      vertex 3.884506e+00 3.750000e-01 4.522269e-01
    endloop
  endfacet
  facet normal 0.000000e+00 1.000000e+00 0.000000e+00
    outer loop
      vertex 3.884506e+00 3.750000e-01 -4.522269e-01
      vertex 3.875000e+00 3.750000e-01 -5.000000e-01
      vertex 3.884506e+00 3.750000e-01 4.522269e-01
    endloop
  endfacet
  facet normal 0.000000e+00 1.000000e+00 0.000000e+00
    outer loop
      vertex 3.150000e-01 3.750000e-01 -5.000000e-01
      vertex 3.884506e+00 3.750000e-01 5.477731e-01
      vertex 3.875000e+00 3.750000e-01 5.000000e-01
    endloop
  endfacet
  facet normal 0.000000e+00 1.000000e+00 0.000000e+00
    outer loop
      vertex 2.825000e-01 3.750000e-01 -5.562917e-01
      vertex 3.875000e+00 3.750000e-01 5.000000e-01
      vertex 3.875000e+00 3.750000e-01 -5.000000e-01
    endloop
  endfacet
  facet normal 0.000000e+00 1.000000e+00 0.000000e+00
    outer loop
      vertex 2.825000e-01 3.750000e-01 -5.562917e-01
      vertex 3.150000e-01 3.750000e-01 -5.000000e-01
      vertex 3.875000e+00 3.750000e-01 5.000000e-01
    endloop
  endfacet
  facet normal 0.000000e+00 1.000000e+00 0.000000e+00
    outer loop
      vertex 3.150000e-01 3.750000e-01 -5.000000e-01
      vertex 3.911632e+00 3.750000e-01 5.883683e-01
      vertex 3.884506e+00 3.750000e-01 5.477731e-01
    endloop
  endfacet
  facet normal 0.000000e+00 1.000000e+00 0.000000e+00
    outer loop
      vertex -5.384506e+00 3.750000e-01 -4.522269e-01
      vertex -5.384506e+00 3.750000e-01 4.522269e-01
      vertex -5.375000e+00 3.750000e-01 5.000000e-01
    endloop
  endfacet
  facet normal 0.000000e+00 1.000000e+00 0.000000e+00
    outer loop
      vertex -5.384506e+00 3.750000e-01 -4.522269e-01
      vertex -5.375000e+00 3.750000e-01 5.000000e-01
      vertex -5.375000e+00 3.750000e-01 -5.000000e-01
    endloop
  endfacet
  facet normal 0.000000e+00 1.000000e+00 0.000000e+00
    outer loop
      vertex -2.282500e+00 3.750000e-01 5.562917e-01
      vertex -5.375000e+00 3.750000e-01 -5.000000e-01
      vertex -5.375000e+00 3.750000e-01 5.000000e-01
    endloop
  endfacet
  facet normal 0.000000e+00 1.000000e+00 0.000000e+00
    outer loop
      vertex -5.411632e+00 3.750000e-01 -4.116317e-01
      vertex -5.411632e+00 3.750000e-01 4.116317e-01
      vertex -5.384506e+00 3.750000e-01 4.522269e-01
    endloop
  endfacet
  facet normal 0.000000e+00 1.000000e+00 0.000000e+00
    outer loop
      vertex -5.384506e+00 3.750000e-01 -4.522269e-01
      vertex -5.411632e+00 3.750000e-01 -4.116317e-01
      vertex -5.384506e+00 3.750000e-01 4.522269e-01
    endloop
  endfacet
  facet normal 0.000000e+00 1.000000e+00 0.000000e+00
    outer loop
      vertex -5.452227e+00 3.750000e-01 -3.845064e-01
      vertex -5.452227e+00 3.750000e-01 3.845064e-01
      vertex -5.411632e+00 3.750000e-01 4.116317e-01
    endloop
  endfacet
  facet normal 0.000000e+00 1.000000e+00 0.000000e+00
    outer loop
      vertex -5.411632e+00 3.750000e-01 -4.116317e-01
      vertex -5.452227e+00 3.750000e-01 -3.845064e-01
      vertex -5.411632e+00 3.750000e-01 4.116317e-01
    endloop
  endfacet
  facet normal 0.000000e+00 1.000000e+00 0.000000e+00
    outer loop
      vertex -5.500000e+00 3.750000e-01 -3.750000e-01
      vertex -5.500000e+00 3.750000e-01 3.750000e-01
      vertex -5.452227e+00 3.750000e-01 3.845064e-01
    endloop
  endfacet
  facet normal 0.000000e+00 1.000000e+00 0.000000e+00
    outer loop
      vertex -5.452227e+00 3.750000e-01 -3.845064e-01
      vertex -5.500000e+00 3.750000e-01 -3.750000e-01
      vertex -5.452227e+00 3.750000e-01 3.845064e-01
    endloop
  endfacet
  facet normal 0.000000e+00 1.000000e+00 0.000000e+00
    outer loop
      vertex -5.547773e+00 3.750000e-01 -3.845064e-01
      vertex -5.547773e+00 3.750000e-01 3.845064e-01
      vertex -5.500000e+00 3.750000e-01 3.750000e-01
    endloop
  endfacet
  facet normal 0.000000e+00 1.000000e+00 0.000000e+00
    outer loop
      vertex -5.500000e+00 3.750000e-01 -3.750000e-01
      vertex -5.547773e+00 3.750000e-01 -3.845064e-01
      vertex -5.500000e+00 3.750000e-01 3.750000e-01
    endloop
  endfacet
  facet normal 0.000000e+00 1.000000e+00 0.000000e+00
    outer loop
      vertex -5.588368e+00 3.750000e-01 -4.116317e-01
      vertex -5.588368e+00 3.750000e-01 4.116317e-01
      vertex -5.547773e+00 3.750000e-01 3.845064e-01
    endloop
  endfacet
  facet normal 0.000000e+00 1.000000e+00 0.000000e+00
    outer loop
      vertex -5.547773e+00 3.750000e-01 -3.845064e-01
      vertex -5.588368e+00 3.750000e-01 -4.116317e-01
      vertex -5.547773e+00 3.750000e-01 3.845064e-01
    endloop
  endfacet
  facet normal 0.000000e+00 1.000000e+00 0.000000e+00
    outer loop
      vertex -5.615494e+00 3.750000e-01 -4.522269e-01
      vertex -5.615494e+00 3.750000e-01 4.522269e-01
      vertex -5.588368e+00 3.750000e-01 4.116317e-01
    endloop
  endfacet
  facet normal 0.000000e+00 1.000000e+00 0.000000e+00
    outer loop
      vertex -5.588368e+00 3.750000e-01 -4.116317e-01
      vertex -5.615494e+00 3.750000e-01 -4.522269e-01
      vertex -5.588368e+00 3.750000e-01 4.116317e-01
    endloop
  endfacet
  facet normal 0.000000e+00 1.000000e+00 0.000000e+00
    outer loop
      vertex -5.625000e+00 3.750000e-01 -5.000000e-01
      vertex -5.625000e+00 3.750000e-01 5.000000e-01
      vertex -5.615494e+00 3.750000e-01 4.522269e-01
    endloop
  endfacet
  facet normal 0.000000e+00 1.000000e+00 0.000000e+00
    outer loop
      vertex -5.615494e+00 3.750000e-01 -4.522269e-01
      vertex -5.625000e+00 3.750000e-01 -5.000000e-01
      vertex -5.615494e+00 3.750000e-01 4.522269e-01
    endloop
  endfacet
  facet normal 0.000000e+00 1.000000e+00 0.000000e+00
    outer loop
      vertex -2.315000e+00 3.750000e-01 5.000000e-01
      vertex -5.384506e+00 3.750000e-01 -5.477731e-01
      vertex -5.375000e+00 3.750000e-01 -5.000000e-01
    endloop
  endfacet
  facet normal 0.000000e+00 1.000000e+00 0.000000e+00
    outer loop
      vertex -2.282500e+00 3.750000e-01 5.562917e-01
      vertex -2.315000e+00 3.750000e-01 5.000000e-01
      vertex -5.375000e+00 3.750000e-01 -5.000000e-01
    endloop
  endfacet
  facet normal 0.000000e+00 1.000000e+00 0.000000e+00
    outer loop
      vertex -2.217500e+00 3.750000e-01 -4.437083e-01
      vertex -2.217500e+00 3.750000e-01 4.437083e-01
      vertex -2.185000e+00 3.750000e-01 5.000000e-01
    endloop
  endfacet
  facet normal 0.000000e+00 1.000000e+00 0.000000e+00
    outer loop
      vertex -2.217500e+00 3.750000e-01 -4.437083e-01
      vertex -2.185000e+00 3.750000e-01 5.000000e-01
      vertex -2.185000e+00 3.750000e-01 -5.000000e-01
    endloop
  endfacet
  facet normal 0.000000e+00 1.000000e+00 0.000000e+00
    outer loop
      vertex 2.175000e-01 3.750000e-01 5.562917e-01
      vertex -2.185000e+00 3.750000e-01 -5.000000e-01
      vertex -2.185000e+00 3.750000e-01 5.000000e-01
    endloop
  endfacet
  facet normal 0.000000e+00 1.000000e+00 0.000000e+00
    outer loop
      vertex -2.282500e+00 3.750000e-01 -4.437083e-01
      vertex -2.282500e+00 3.750000e-01 4.437083e-01
      vertex -2.217500e+00 3.750000e-01 4.437083e-01
    endloop
  endfacet
  facet normal 0.000000e+00 1.000000e+00 0.000000e+00
    outer loop
      vertex -2.217500e+00 3.750000e-01 -4.437083e-01
      vertex -2.282500e+00 3.750000e-01 -4.437083e-01
      vertex -2.217500e+00 3.750000e-01 4.437083e-01
    endloop
  endfacet
  facet normal 0.000000e+00 1.000000e+00 0.000000e+00
    outer loop
      vertex -2.315000e+00 3.750000e-01 -5.000000e-01
      vertex -2.315000e+00 3.750000e-01 5.000000e-01
      vertex -2.282500e+00 3.750000e-01 4.437083e-01
    endloop
  endfacet
  facet normal 0.000000e+00 1.000000e+00 0.000000e+00
    outer loop
      vertex -2.282500e+00 3.750000e-01 -4.437083e-01
      vertex -2.315000e+00 3.750000e-01 -5.000000e-01
      vertex -2.282500e+00 3.750000e-01 4.437083e-01
    endloop
  endfacet
  facet normal 0.000000e+00 1.000000e+00 0.000000e+00
    outer loop
      vertex 1.850000e-01 3.750000e-01 5.000000e-01
      vertex -2.217500e+00 3.750000e-01 -5.562917e-01
      vertex -2.185000e+00 3.750000e-01 -5.000000e-01
    endloop
  endfacet
  facet normal 0.000000e+00 1.000000e+00 0.000000e+00
    outer loop
      vertex 2.175000e-01 3.750000e-01 5.562917e-01
      vertex 1.850000e-01 3.750000e-01 5.000000e-01
      vertex -2.185000e+00 3.750000e-01 -5.000000e-01
    endloop
  endfacet
  facet normal 0.000000e+00 1.000000e+00 0.000000e+00
    outer loop
      vertex 1.850000e-01 3.750000e-01 5.000000e-01
      vertex 1.850000e-01 3.750000e-01 -5.000000e-01
      vertex -2.217500e+00 3.750000e-01 -5.562917e-01
    endloop
  endfacet
  facet normal 0.000000e+00 1.000000e+00 0.000000e+00
    outer loop
      vertex 3.150000e-01 3.750000e-01 5.000000e-01
      vertex 3.150000e-01 3.750000e-01 -5.000000e-01
      vertex 2.825000e-01 3.750000e-01 -4.437083e-01
    endloop
  endfacet
  facet normal 0.000000e+00 1.000000e+00 0.000000e+00
    outer loop
      vertex 2.175000e-01 3.750000e-01 4.437083e-01
      vertex 2.175000e-01 3.750000e-01 -4.437083e-01
      vertex 1.850000e-01 3.750000e-01 -5.000000e-01
    endloop
  endfacet
  facet normal 0.000000e+00 1.000000e+00 0.000000e+00
    outer loop
      vertex 1.850000e-01 3.750000e-01 5.000000e-01
      vertex 2.175000e-01 3.750000e-01 4.437083e-01
      vertex 1.850000e-01 3.750000e-01 -5.000000e-01
    endloop
  endfacet
  facet normal 0.000000e+00 1.000000e+00 0.000000e+00
    outer loop
      vertex 2.825000e-01 3.750000e-01 4.437083e-01
      vertex 2.825000e-01 3.750000e-01 -4.437083e-01
      vertex 2.175000e-01 3.750000e-01 -4.437083e-01
    endloop
  endfacet
  facet normal 0.000000e+00 1.000000e+00 0.000000e+00
    outer loop
      vertex 2.175000e-01 3.750000e-01 4.437083e-01
      vertex 2.825000e-01 3.750000e-01 4.437083e-01
      vertex 2.175000e-01 3.750000e-01 -4.437083e-01
    endloop
  endfacet
  facet normal 0.000000e+00 1.000000e+00 0.000000e+00
    outer loop
      vertex 2.825000e-01 3.750000e-01 4.437083e-01
      vertex 3.150000e-01 3.750000e-01 5.000000e-01
      vertex 2.825000e-01 3.750000e-01 -4.437083e-01
    endloop
  endfacet
endsolid PRT0001
