solid PRT0002
  facet normal 1.000000e+00 0.000000e+00 0.000000e+00
    outer loop
      vertex 5.000000e+00 -4.301235e-01 2.500000e-01
      vertex 5.000000e+00 -4.301235e-01 -2.500000e-01
      vertex 5.000000e+00 4.301235e-01 -2.500000e-01
    endloop
  endfacet
  facet normal 0.000000e+00 0.000000e+00 -1.000000e+00
    outer loop
      vertex 4.865472e+00 -4.783019e-02 -2.500000e-01
      vertex 5.000000e+00 4.301235e-01 -2.500000e-01
      vertex 5.000000e+00 -4.301235e-01 -2.500000e-01
    endloop
  endfacet
  facet normal 1.000000e+00 0.000000e+00 0.000000e+00
    outer loop
      vertex 5.000000e+00 4.301235e-01 2.500000e-01
      vertex 5.000000e+00 -4.301235e-01 2.500000e-01
      vertex 5.000000e+00 4.301235e-01 -2.500000e-01
    endloop
  endfacet
  facet normal 1.000000e+00 0.000000e+00 0.000000e+00
    outer loop
      vertex 5.000000e+00 4.803398e-01 -1.294990e-01
      vertex 5.000000e+00 4.301235e-01 2.500000e-01
      vertex 5.000000e+00 4.301235e-01 -2.500000e-01
    endloop
  endfacet
  facet normal 8.608828e-04 9.230560e-01 -3.846646e-01
    outer loop
      vertex 0.000000e+00 4.596301e-01 -1.903850e-01
      vertex 5.000000e+00 4.803398e-01 -1.294990e-01
      vertex 5.000000e+00 4.301235e-01 -2.500000e-01
    endloop
  endfacet
  facet normal -1.492522e-16 8.962297e-01 -4.435903e-01
    outer loop
      vertex 4.000000e+00 4.301235e-01 -2.500000e-01
      vertex 0.000000e+00 4.596301e-01 -1.903850e-01
      vertex 5.000000e+00 4.301235e-01 -2.500000e-01
    endloop
  endfacet
  facet normal 0.000000e+00 0.000000e+00 -1.000000e+00
    outer loop
      vertex 4.000000e+00 4.301235e-01 -2.500000e-01
      vertex 5.000000e+00 4.301235e-01 -2.500000e-01
      vertex 4.000000e+00 -4.301235e-01 -2.500000e-01
    endloop
  endfacet
  facet normal 0.000000e+00 0.000000e+00 -1.000000e+00
    outer loop
      vertex 4.661612e+00 8.838835e-02 -2.500000e-01
      vertex 4.000000e+00 -4.301235e-01 -2.500000e-01
      vertex 5.000000e+00 4.301235e-01 -2.500000e-01
    endloop
  endfacet
  facet normal 0.000000e+00 0.000000e+00 -1.000000e+00
    outer loop
      vertex 4.702170e+00 1.154723e-01 -2.500000e-01
      vertex 4.661612e+00 8.838835e-02 -2.500000e-01
      vertex 5.000000e+00 4.301235e-01 -2.500000e-01
    endloop
  endfacet
  facet normal 0.000000e+00 0.000000e+00 -1.000000e+00
    outer loop
      vertex 4.750000e+00 1.250000e-01 -2.500000e-01
      vertex 4.702170e+00 1.154723e-01 -2.500000e-01
      vertex 5.000000e+00 4.301235e-01 -2.500000e-01
    endloop
  endfacet
  facet normal 0.000000e+00 0.000000e+00 -1.000000e+00
    outer loop
      vertex 4.797830e+00 1.154723e-01 -2.500000e-01
      vertex 4.750000e+00 1.250000e-01 -2.500000e-01
      vertex 5.000000e+00 4.301235e-01 -2.500000e-01
    endloop
  endfacet
  facet normal 0.000000e+00 0.000000e+00 -1.000000e+00
    outer loop
      vertex 4.838388e+00 8.838835e-02 -2.500000e-01
      vertex 4.797830e+00 1.154723e-01 -2.500000e-01
      vertex 5.000000e+00 4.301235e-01 -2.500000e-01
    endloop
  endfacet
  facet normal 0.000000e+00 0.000000e+00 -1.000000e+00
    outer loop
      vertex 4.865472e+00 4.783019e-02 -2.500000e-01
      vertex 4.838388e+00 8.838835e-02 -2.500000e-01
      vertex 5.000000e+00 4.301235e-01 -2.500000e-01
    endloop
  endfacet
  facet normal 0.000000e+00 0.000000e+00 -1.000000e+00
    outer loop
      vertex 4.875000e+00 0.000000e+00 -2.500000e-01
      vertex 4.865472e+00 4.783019e-02 -2.500000e-01
      vertex 5.000000e+00 4.301235e-01 -2.500000e-01
    endloop
  endfacet
  facet normal 0.000000e+00 0.000000e+00 -1.000000e+00
    outer loop
      vertex 4.865472e+00 -4.783019e-02 -2.500000e-01
      vertex 4.875000e+00 0.000000e+00 -2.500000e-01
      vertex 5.000000e+00 4.301235e-01 -2.500000e-01
    endloop
  endfacet
  facet normal 1.000000e+00 0.000000e+00 0.000000e+00
    outer loop
      vertex 5.000000e+00 -4.803398e-01 1.294990e-01
      vertex 5.000000e+00 -4.803398e-01 -1.294990e-01
      vertex 5.000000e+00 -4.301235e-01 -2.500000e-01
    endloop
  endfacet
  facet normal 5.123992e-17 -9.230564e-01 -3.846647e-01
    outer loop
      vertex 4.000000e+00 -4.301235e-01 -2.500000e-01
      vertex 5.000000e+00 -4.301235e-01 -2.500000e-01
      vertex 5.000000e+00 -4.803398e-01 -1.294990e-01
    endloop
  endfacet
  facet normal 1.000000e+00 0.000000e+00 0.000000e+00
    outer loop
      vertex 5.000000e+00 -4.301235e-01 2.500000e-01
      vertex 5.000000e+00 -4.803398e-01 1.294990e-01
      vertex 5.000000e+00 -4.301235e-01 -2.500000e-01
    endloop
  endfacet
  facet normal 0.000000e+00 0.000000e+00 -1.000000e+00
    outer loop
      vertex 4.797830e+00 -1.154723e-01 -2.500000e-01
      vertex 5.000000e+00 -4.301235e-01 -2.500000e-01
      vertex 4.000000e+00 -4.301235e-01 -2.500000e-01
    endloop
  endfacet
  facet normal 0.000000e+00 0.000000e+00 -1.000000e+00
    outer loop
      vertex 4.838388e+00 -8.838835e-02 -2.500000e-01
      vertex 4.865472e+00 -4.783019e-02 -2.500000e-01
      vertex 5.000000e+00 -4.301235e-01 -2.500000e-01
    endloop
  endfacet
  facet normal 0.000000e+00 0.000000e+00 -1.000000e+00
    outer loop
      vertex 4.797830e+00 -1.154723e-01 -2.500000e-01
      vertex 4.838388e+00 -8.838835e-02 -2.500000e-01
      vertex 5.000000e+00 -4.301235e-01 -2.500000e-01
    endloop
  endfacet
  facet normal 1.000000e+00 0.000000e+00 0.000000e+00
    outer loop
      vertex 5.000000e+00 -4.803398e-01 1.294990e-01
      vertex 5.000000e+00 -4.975000e-01 0.000000e+00
      vertex 5.000000e+00 -4.803398e-01 -1.294990e-01
    endloop
  endfacet
  facet normal -2.506409e-03 -9.913311e-01 -1.313633e-01
    outer loop
      vertex 0.000000e+00 -4.596301e-01 -1.903850e-01
      vertex 5.000000e+00 -4.803398e-01 -1.294990e-01
      vertex 5.000000e+00 -4.975000e-01 0.000000e+00
    endloop
  endfacet
  facet normal 9.547145e-04 -9.202181e-01 -3.914048e-01
    outer loop
      vertex 4.000000e+00 -4.301235e-01 -2.500000e-01
      vertex 5.000000e+00 -4.803398e-01 -1.294990e-01
      vertex 0.000000e+00 -4.596301e-01 -1.903850e-01
    endloop
  endfacet
  facet normal 0.000000e+00 -9.913342e-01 1.313637e-01
    outer loop
      vertex 0.000000e+00 -4.975000e-01 0.000000e+00
      vertex 5.000000e+00 -4.975000e-01 0.000000e+00
      vertex 5.000000e+00 -4.803398e-01 1.294990e-01
    endloop
  endfacet
  facet normal 0.000000e+00 -9.807853e-01 -1.950903e-01
    outer loop
      vertex 0.000000e+00 -4.596301e-01 -1.903850e-01
      vertex 5.000000e+00 -4.975000e-01 0.000000e+00
      vertex 0.000000e+00 -4.975000e-01 0.000000e+00
    endloop
  endfacet
  facet normal 8.608828e-04 -9.230560e-01 3.846646e-01
    outer loop
      vertex 0.000000e+00 -4.596301e-01 1.903850e-01
      vertex 5.000000e+00 -4.803398e-01 1.294990e-01
      vertex 5.000000e+00 -4.301235e-01 2.500000e-01
    endloop
  endfacet
  facet normal -1.686709e-03 -9.807839e-01 1.950900e-01
    outer loop
      vertex 0.000000e+00 -4.596301e-01 1.903850e-01
      vertex 0.000000e+00 -4.975000e-01 0.000000e+00
      vertex 5.000000e+00 -4.803398e-01 1.294990e-01
    endloop
  endfacet
  facet normal 0.000000e+00 0.000000e+00 1.000000e+00
    outer loop
      vertex 4.865472e+00 4.783019e-02 2.500000e-01
      vertex 5.000000e+00 -4.301235e-01 2.500000e-01
      vertex 5.000000e+00 4.301235e-01 2.500000e-01
    endloop
  endfacet
  facet normal 0.000000e+00 0.000000e+00 1.000000e+00
    outer loop
      vertex 4.000000e+00 -4.301235e-01 2.500000e-01
      vertex 5.000000e+00 -4.301235e-01 2.500000e-01
      vertex 4.000000e+00 4.301235e-01 2.500000e-01
    endloop
  endfacet
  facet normal 0.000000e+00 0.000000e+00 1.000000e+00
    outer loop
      vertex 4.661612e+00 -8.838835e-02 2.500000e-01
      vertex 4.000000e+00 4.301235e-01 2.500000e-01
      vertex 5.000000e+00 -4.301235e-01 2.500000e-01
    endloop
  endfacet
  facet normal -4.889848e-17 -8.962297e-01 4.435903e-01
    outer loop
      vertex 0.000000e+00 -4.596301e-01 1.903850e-01
      vertex 5.000000e+00 -4.301235e-01 2.500000e-01
      vertex 4.000000e+00 -4.301235e-01 2.500000e-01
    endloop
  endfacet
  facet normal 0.000000e+00 0.000000e+00 1.000000e+00
    outer loop
      vertex 4.702170e+00 -1.154723e-01 2.500000e-01
      vertex 4.661612e+00 -8.838835e-02 2.500000e-01
      vertex 5.000000e+00 -4.301235e-01 2.500000e-01
    endloop
  endfacet
  facet normal 0.000000e+00 0.000000e+00 1.000000e+00
    outer loop
      vertex 4.750000e+00 -1.250000e-01 2.500000e-01
      vertex 4.702170e+00 -1.154723e-01 2.500000e-01
      vertex 5.000000e+00 -4.301235e-01 2.500000e-01
    endloop
  endfacet
  facet normal 0.000000e+00 0.000000e+00 1.000000e+00
    outer loop
      vertex 4.797830e+00 -1.154723e-01 2.500000e-01
      vertex 4.750000e+00 -1.250000e-01 2.500000e-01
      vertex 5.000000e+00 -4.301235e-01 2.500000e-01
    endloop
  endfacet
  facet normal 0.000000e+00 0.000000e+00 1.000000e+00
    outer loop
      vertex 4.838388e+00 -8.838835e-02 2.500000e-01
      vertex 4.797830e+00 -1.154723e-01 2.500000e-01
      vertex 5.000000e+00 -4.301235e-01 2.500000e-01
    endloop
  endfacet
  facet normal 0.000000e+00 0.000000e+00 1.000000e+00
    outer loop
      vertex 4.865472e+00 -4.783019e-02 2.500000e-01
      vertex 4.838388e+00 -8.838835e-02 2.500000e-01
      vertex 5.000000e+00 -4.301235e-01 2.500000e-01
    endloop
  endfacet
  facet normal 0.000000e+00 0.000000e+00 1.000000e+00
    outer loop
      vertex 4.875000e+00 0.000000e+00 2.500000e-01
      vertex 4.865472e+00 -4.783019e-02 2.500000e-01
      vertex 5.000000e+00 -4.301235e-01 2.500000e-01
    endloop
  endfacet
  facet normal 0.000000e+00 0.000000e+00 1.000000e+00
    outer loop
      vertex 4.865472e+00 4.783019e-02 2.500000e-01
      vertex 4.875000e+00 0.000000e+00 2.500000e-01
      vertex 5.000000e+00 -4.301235e-01 2.500000e-01
    endloop
  endfacet
  facet normal 1.000000e+00 0.000000e+00 0.000000e+00
    outer loop
      vertex 5.000000e+00 4.803398e-01 -1.294990e-01
      vertex 5.000000e+00 4.803398e-01 1.294990e-01
      vertex 5.000000e+00 4.301235e-01 2.500000e-01
    endloop
  endfacet
  facet normal 0.000000e+00 9.230564e-01 3.846647e-01
    outer loop
      vertex 4.000000e+00 4.301235e-01 2.500000e-01
      vertex 5.000000e+00 4.301235e-01 2.500000e-01
      vertex 5.000000e+00 4.803398e-01 1.294990e-01
    endloop
  endfacet
  facet normal 0.000000e+00 0.000000e+00 1.000000e+00
    outer loop
      vertex 4.797830e+00 1.154723e-01 2.500000e-01
      vertex 5.000000e+00 4.301235e-01 2.500000e-01
      vertex 4.000000e+00 4.301235e-01 2.500000e-01
    endloop
  endfacet
  facet normal 0.000000e+00 0.000000e+00 1.000000e+00
    outer loop
      vertex 4.838388e+00 8.838835e-02 2.500000e-01
      vertex 4.865472e+00 4.783019e-02 2.500000e-01
      vertex 5.000000e+00 4.301235e-01 2.500000e-01
    endloop
  endfacet
  facet normal 0.000000e+00 0.000000e+00 1.000000e+00
    outer loop
      vertex 4.797830e+00 1.154723e-01 2.500000e-01
      vertex 4.838388e+00 8.838835e-02 2.500000e-01
      vertex 5.000000e+00 4.301235e-01 2.500000e-01
    endloop
  endfacet
  facet normal 1.000000e+00 0.000000e+00 0.000000e+00
    outer loop
      vertex 5.000000e+00 4.803398e-01 -1.294990e-01
      vertex 5.000000e+00 4.975000e-01 0.000000e+00
      vertex 5.000000e+00 4.803398e-01 1.294990e-01
    endloop
  endfacet
  facet normal -2.506409e-03 9.913311e-01 1.313633e-01
    outer loop
      vertex 0.000000e+00 4.596301e-01 1.903850e-01
      vertex 5.000000e+00 4.803398e-01 1.294990e-01
      vertex 5.000000e+00 4.975000e-01 0.000000e+00
    endloop
  endfacet
  facet normal 9.547145e-04 9.202181e-01 3.914048e-01
    outer loop
      vertex 0.000000e+00 4.596301e-01 1.903850e-01
      vertex 4.000000e+00 4.301235e-01 2.500000e-01
      vertex 5.000000e+00 4.803398e-01 1.294990e-01
    endloop
  endfacet
  facet normal 0.000000e+00 9.913342e-01 -1.313637e-01
    outer loop
      vertex 0.000000e+00 4.975000e-01 0.000000e+00
      vertex 5.000000e+00 4.975000e-01 0.000000e+00
      vertex 5.000000e+00 4.803398e-01 -1.294990e-01
    endloop
  endfacet
  facet normal 0.000000e+00 9.807853e-01 1.950903e-01
    outer loop
      vertex 0.000000e+00 4.975000e-01 0.000000e+00
      vertex 0.000000e+00 4.596301e-01 1.903850e-01
      vertex 5.000000e+00 4.975000e-01 0.000000e+00
    endloop
  endfacet
  facet normal -1.686709e-03 9.807839e-01 -1.950900e-01
    outer loop
      vertex 0.000000e+00 4.596301e-01 -1.903850e-01
      vertex 0.000000e+00 4.975000e-01 0.000000e+00
      vertex 5.000000e+00 4.803398e-01 -1.294990e-01
    endloop
  endfacet
  facet normal 1.000000e+00 0.000000e+00 0.000000e+00
    outer loop
      vertex 4.000000e+00 -4.301235e-01 2.500000e-01
      vertex 4.000000e+00 4.301235e-01 2.500000e-01
      vertex 4.000000e+00 3.190030e-01 3.817574e-01
    endloop
  endfacet
  facet normal 1.434320e-03 7.644330e-01 6.447016e-01
    outer loop
      vertex 0.000000e+00 3.517856e-01 3.517856e-01
      vertex 4.000000e+00 3.190030e-01 3.817574e-01
      vertex 4.000000e+00 4.301235e-01 2.500000e-01
    endloop
  endfacet
  facet normal -2.146626e-03 8.314677e-01 5.555690e-01
    outer loop
      vertex 0.000000e+00 4.596301e-01 1.903850e-01
      vertex 0.000000e+00 3.517856e-01 3.517856e-01
      vertex 4.000000e+00 4.301235e-01 2.500000e-01
    endloop
  endfacet
  facet normal 0.000000e+00 0.000000e+00 1.000000e+00
    outer loop
      vertex 4.634528e+00 -4.783019e-02 2.500000e-01
      vertex 4.625000e+00 0.000000e+00 2.500000e-01
      vertex 4.000000e+00 4.301235e-01 2.500000e-01
    endloop
  endfacet
  facet normal 0.000000e+00 0.000000e+00 1.000000e+00
    outer loop
      vertex 4.634528e+00 4.783019e-02 2.500000e-01
      vertex 4.000000e+00 4.301235e-01 2.500000e-01
      vertex 4.625000e+00 0.000000e+00 2.500000e-01
    endloop
  endfacet
  facet normal 0.000000e+00 0.000000e+00 1.000000e+00
    outer loop
      vertex 4.661612e+00 -8.838835e-02 2.500000e-01
      vertex 4.634528e+00 -4.783019e-02 2.500000e-01
      vertex 4.000000e+00 4.301235e-01 2.500000e-01
    endloop
  endfacet
  facet normal 0.000000e+00 0.000000e+00 1.000000e+00
    outer loop
      vertex 4.750000e+00 1.250000e-01 2.500000e-01
      vertex 4.797830e+00 1.154723e-01 2.500000e-01
      vertex 4.000000e+00 4.301235e-01 2.500000e-01
    endloop
  endfacet
  facet normal 0.000000e+00 0.000000e+00 1.000000e+00
    outer loop
      vertex 4.702170e+00 1.154723e-01 2.500000e-01
      vertex 4.750000e+00 1.250000e-01 2.500000e-01
      vertex 4.000000e+00 4.301235e-01 2.500000e-01
    endloop
  endfacet
  facet normal 0.000000e+00 0.000000e+00 1.000000e+00
    outer loop
      vertex 4.661612e+00 8.838835e-02 2.500000e-01
      vertex 4.702170e+00 1.154723e-01 2.500000e-01
      vertex 4.000000e+00 4.301235e-01 2.500000e-01
    endloop
  endfacet
  facet normal 0.000000e+00 0.000000e+00 1.000000e+00
    outer loop
      vertex 4.634528e+00 4.783019e-02 2.500000e-01
      vertex 4.661612e+00 8.838835e-02 2.500000e-01
      vertex 4.000000e+00 4.301235e-01 2.500000e-01
    endloop
  endfacet
  facet normal 1.000000e+00 0.000000e+00 0.000000e+00
    outer loop
      vertex 4.000000e+00 -3.190030e-01 3.817574e-01
      vertex 4.000000e+00 3.190030e-01 3.817574e-01
      vertex 4.000000e+00 1.696567e-01 4.676655e-01
    endloop
  endfacet
  facet normal 8.425731e-04 4.986190e-01 8.668208e-01
    outer loop
      vertex 0.000000e+00 1.903850e-01 4.596301e-01
      vertex 4.000000e+00 1.696567e-01 4.676655e-01
      vertex 4.000000e+00 3.190030e-01 3.817574e-01
    endloop
  endfacet
  facet normal 1.000000e+00 0.000000e+00 0.000000e+00
    outer loop
      vertex 4.000000e+00 -4.301235e-01 2.500000e-01
      vertex 4.000000e+00 3.190030e-01 3.817574e-01
      vertex 4.000000e+00 -3.190030e-01 3.817574e-01
    endloop
  endfacet
  facet normal -1.676886e-03 5.555695e-01 8.314684e-01
    outer loop
      vertex 0.000000e+00 3.517856e-01 3.517856e-01
      vertex 0.000000e+00 1.903850e-01 4.596301e-01
      vertex 4.000000e+00 3.190030e-01 3.817574e-01
    endloop
  endfacet
  facet normal 1.000000e+00 0.000000e+00 0.000000e+00
    outer loop
      vertex 4.000000e+00 -1.696567e-01 4.676655e-01
      vertex 4.000000e+00 1.696567e-01 4.676655e-01
      vertex 4.000000e+00 -2.792905e-16 4.974849e-01
    endloop
  endfacet
  facet normal 3.718873e-06 1.731098e-01 9.849025e-01
    outer loop
      vertex 0.000000e+00 3.046309e-17 4.975000e-01
      vertex 4.000000e+00 -2.792905e-16 4.974849e-01
      vertex 4.000000e+00 1.696567e-01 4.676655e-01
    endloop
  endfacet
  facet normal 1.000000e+00 0.000000e+00 0.000000e+00
    outer loop
      vertex 4.000000e+00 -3.190030e-01 3.817574e-01
      vertex 4.000000e+00 1.696567e-01 4.676655e-01
      vertex 4.000000e+00 -1.696567e-01 4.676655e-01
    endloop
  endfacet
  facet normal -9.592764e-04 1.950902e-01 9.807848e-01
    outer loop
      vertex 0.000000e+00 1.903850e-01 4.596301e-01
      vertex 0.000000e+00 3.046309e-17 4.975000e-01
      vertex 4.000000e+00 1.696567e-01 4.676655e-01
    endloop
  endfacet
  facet normal -1.081452e-03 -1.731097e-01 9.849020e-01
    outer loop
      vertex 0.000000e+00 -1.903850e-01 4.596301e-01
      vertex 4.000000e+00 -1.696567e-01 4.676655e-01
      vertex 4.000000e+00 -2.792905e-16 4.974849e-01
    endloop
  endfacet
  facet normal 3.703327e-06 -1.950903e-01 9.807853e-01
    outer loop
      vertex 0.000000e+00 3.046309e-17 4.975000e-01
      vertex 0.000000e+00 -1.903850e-01 4.596301e-01
      vertex 4.000000e+00 -2.792905e-16 4.974849e-01
    endloop
  endfacet
  facet normal 8.425731e-04 -4.986190e-01 8.668208e-01
    outer loop
      vertex 0.000000e+00 -1.903850e-01 4.596301e-01
      vertex 4.000000e+00 -3.190030e-01 3.817574e-01
      vertex 4.000000e+00 -1.696567e-01 4.676655e-01
    endloop
  endfacet
  facet normal 1.434320e-03 -7.644330e-01 6.447016e-01
    outer loop
      vertex 0.000000e+00 -3.517856e-01 3.517856e-01
      vertex 4.000000e+00 -4.301235e-01 2.500000e-01
      vertex 4.000000e+00 -3.190030e-01 3.817574e-01
    endloop
  endfacet
  facet normal -1.676886e-03 -5.555695e-01 8.314684e-01
    outer loop
      vertex 0.000000e+00 -1.903850e-01 4.596301e-01
      vertex 0.000000e+00 -3.517856e-01 3.517856e-01
      vertex 4.000000e+00 -3.190030e-01 3.817574e-01
    endloop
  endfacet
  facet normal -2.146626e-03 -8.314677e-01 5.555690e-01
    outer loop
      vertex 0.000000e+00 -3.517856e-01 3.517856e-01
      vertex 0.000000e+00 -4.596301e-01 1.903850e-01
      vertex 4.000000e+00 -4.301235e-01 2.500000e-01
    endloop
  endfacet
  facet normal -1.000000e+00 0.000000e+00 0.000000e+00
    outer loop
      vertex 0.000000e+00 -4.330127e-01 0.000000e+00
      vertex 0.000000e+00 -4.975000e-01 0.000000e+00
      vertex 0.000000e+00 -4.596301e-01 1.903850e-01
    endloop
  endfacet
  facet normal -1.000000e+00 0.000000e+00 0.000000e+00
    outer loop
      vertex 0.000000e+00 -4.000516e-01 -1.657068e-01
      vertex 0.000000e+00 -4.596301e-01 -1.903850e-01
      vertex 0.000000e+00 -4.975000e-01 0.000000e+00
    endloop
  endfacet
  facet normal -1.000000e+00 0.000000e+00 0.000000e+00
    outer loop
      vertex 0.000000e+00 -4.000516e-01 -1.657068e-01
      vertex 0.000000e+00 -4.975000e-01 0.000000e+00
      vertex 0.000000e+00 -4.330127e-01 0.000000e+00
    endloop
  endfacet
  facet normal -1.000000e+00 0.000000e+00 0.000000e+00
    outer loop
      vertex 0.000000e+00 -3.061862e-01 3.061862e-01
      vertex 0.000000e+00 -4.596301e-01 1.903850e-01
      vertex 0.000000e+00 -3.517856e-01 3.517856e-01
    endloop
  endfacet
  facet normal -1.000000e+00 0.000000e+00 0.000000e+00
    outer loop
      vertex 0.000000e+00 -4.000516e-01 1.657068e-01
      vertex 0.000000e+00 -4.330127e-01 0.000000e+00
      vertex 0.000000e+00 -4.596301e-01 1.903850e-01
    endloop
  endfacet
  facet normal -1.000000e+00 0.000000e+00 0.000000e+00
    outer loop
      vertex 0.000000e+00 -3.061862e-01 3.061862e-01
      vertex 0.000000e+00 -4.000516e-01 1.657068e-01
      vertex 0.000000e+00 -4.596301e-01 1.903850e-01
    endloop
  endfacet
  facet normal -1.000000e+00 0.000000e+00 0.000000e+00
    outer loop
      vertex 0.000000e+00 -1.657068e-01 4.000516e-01
      vertex 0.000000e+00 -3.517856e-01 3.517856e-01
      vertex 0.000000e+00 -1.903850e-01 4.596301e-01
    endloop
  endfacet
  facet normal -1.000000e+00 0.000000e+00 0.000000e+00
    outer loop
      vertex 0.000000e+00 -1.657068e-01 4.000516e-01
      vertex 0.000000e+00 -3.061862e-01 3.061862e-01
      vertex 0.000000e+00 -3.517856e-01 3.517856e-01
    endloop
  endfacet
  facet normal -1.000000e+00 0.000000e+00 0.000000e+00
    outer loop
      vertex 0.000000e+00 1.903850e-01 4.596301e-01
      vertex 0.000000e+00 -1.903850e-01 4.596301e-01
      vertex 0.000000e+00 3.046309e-17 4.975000e-01
    endloop
  endfacet
  facet normal -1.000000e+00 0.000000e+00 0.000000e+00
    outer loop
      vertex 0.000000e+00 -1.015447e-16 4.330127e-01
      vertex 0.000000e+00 -1.903850e-01 4.596301e-01
      vertex 0.000000e+00 1.903850e-01 4.596301e-01
    endloop
  endfacet
  facet normal -1.000000e+00 0.000000e+00 0.000000e+00
    outer loop
      vertex 0.000000e+00 -1.015447e-16 4.330127e-01
      vertex 0.000000e+00 -1.657068e-01 4.000516e-01
      vertex 0.000000e+00 -1.903850e-01 4.596301e-01
    endloop
  endfacet
  facet normal -1.000000e+00 0.000000e+00 0.000000e+00
    outer loop
      vertex 0.000000e+00 1.657068e-01 4.000516e-01
      vertex 0.000000e+00 1.903850e-01 4.596301e-01
      vertex 0.000000e+00 3.517856e-01 3.517856e-01
    endloop
  endfacet
  facet normal -1.000000e+00 0.000000e+00 0.000000e+00
    outer loop
      vertex 0.000000e+00 1.657068e-01 4.000516e-01
      vertex 0.000000e+00 -1.015447e-16 4.330127e-01
      vertex 0.000000e+00 1.903850e-01 4.596301e-01
    endloop
  endfacet
  facet normal -1.000000e+00 0.000000e+00 0.000000e+00
    outer loop
      vertex 0.000000e+00 3.061862e-01 3.061862e-01
      vertex 0.000000e+00 3.517856e-01 3.517856e-01
      vertex 0.000000e+00 4.596301e-01 1.903850e-01
    endloop
  endfacet
  facet normal -1.000000e+00 0.000000e+00 0.000000e+00
    outer loop
      vertex 0.000000e+00 3.061862e-01 3.061862e-01
      vertex 0.000000e+00 1.657068e-01 4.000516e-01
      vertex 0.000000e+00 3.517856e-01 3.517856e-01
    endloop
  endfacet
  facet normal -1.000000e+00 0.000000e+00 0.000000e+00
    outer loop
      vertex 0.000000e+00 4.000516e-01 1.657068e-01
      vertex 0.000000e+00 4.596301e-01 1.903850e-01
      vertex 0.000000e+00 4.975000e-01 0.000000e+00
    endloop
  endfacet
  facet normal -1.000000e+00 0.000000e+00 0.000000e+00
    outer loop
      vertex 0.000000e+00 4.000516e-01 1.657068e-01
      vertex 0.000000e+00 3.061862e-01 3.061862e-01
      vertex 0.000000e+00 4.596301e-01 1.903850e-01
    endloop
  endfacet
  facet normal -1.000000e+00 0.000000e+00 0.000000e+00
    outer loop
      vertex 0.000000e+00 4.330127e-01 -9.614813e-17
      vertex 0.000000e+00 4.975000e-01 0.000000e+00
      vertex 0.000000e+00 4.596301e-01 -1.903850e-01
    endloop
  endfacet
  facet normal -1.000000e+00 0.000000e+00 0.000000e+00
    outer loop
      vertex 0.000000e+00 4.330127e-01 -9.614813e-17
      vertex 0.000000e+00 4.000516e-01 1.657068e-01
      vertex 0.000000e+00 4.975000e-01 0.000000e+00
    endloop
  endfacet
  facet normal -1.000000e+00 0.000000e+00 0.000000e+00
    outer loop
      vertex 0.000000e+00 -3.061862e-01 -3.061862e-01
      vertex 0.000000e+00 -3.517856e-01 -3.517856e-01
      vertex 0.000000e+00 -4.596301e-01 -1.903850e-01
    endloop
  endfacet
  facet normal -2.146626e-03 -8.314677e-01 -5.555690e-01
    outer loop
      vertex 4.000000e+00 -4.301235e-01 -2.500000e-01
      vertex 0.000000e+00 -4.596301e-01 -1.903850e-01
      vertex 0.000000e+00 -3.517856e-01 -3.517856e-01
    endloop
  endfacet
  facet normal -1.000000e+00 0.000000e+00 0.000000e+00
    outer loop
      vertex 0.000000e+00 -4.000516e-01 -1.657068e-01
      vertex 0.000000e+00 -3.061862e-01 -3.061862e-01
      vertex 0.000000e+00 -4.596301e-01 -1.903850e-01
    endloop
  endfacet
  facet normal -1.000000e+00 0.000000e+00 0.000000e+00
    outer loop
      vertex 0.000000e+00 -1.657068e-01 -4.000516e-01
      vertex 0.000000e+00 -1.903850e-01 -4.596301e-01
      vertex 0.000000e+00 -3.517856e-01 -3.517856e-01
    endloop
  endfacet
  facet normal -1.676886e-03 -5.555695e-01 -8.314684e-01
    outer loop
      vertex 4.000000e+00 -3.190030e-01 -3.817574e-01
      vertex 0.000000e+00 -3.517856e-01 -3.517856e-01
      vertex 0.000000e+00 -1.903850e-01 -4.596301e-01
    endloop
  endfacet
  facet normal -1.000000e+00 0.000000e+00 0.000000e+00
    outer loop
      vertex 0.000000e+00 -3.061862e-01 -3.061862e-01
      vertex 0.000000e+00 -1.657068e-01 -4.000516e-01
      vertex 0.000000e+00 -3.517856e-01 -3.517856e-01
    endloop
  endfacet
  facet normal 1.434320e-03 -7.644330e-01 -6.447016e-01
    outer loop
      vertex 4.000000e+00 -3.190030e-01 -3.817574e-01
      vertex 4.000000e+00 -4.301235e-01 -2.500000e-01
      vertex 0.000000e+00 -3.517856e-01 -3.517856e-01
    endloop
  endfacet
  facet normal -1.000000e+00 0.000000e+00 0.000000e+00
    outer loop
      vertex 0.000000e+00 1.903850e-01 -4.596301e-01
      vertex 0.000000e+00 3.046309e-17 -4.975000e-01
      vertex 0.000000e+00 -1.903850e-01 -4.596301e-01
    endloop
  endfacet
  facet normal -9.592764e-04 -1.950902e-01 -9.807848e-01
    outer loop
      vertex 4.000000e+00 -1.696567e-01 -4.676655e-01
      vertex 0.000000e+00 -1.903850e-01 -4.596301e-01
      vertex 0.000000e+00 3.046309e-17 -4.975000e-01
    endloop
  endfacet
  facet normal -1.000000e+00 0.000000e+00 0.000000e+00
    outer loop
      vertex 0.000000e+00 1.657819e-16 -4.330127e-01
      vertex 0.000000e+00 1.903850e-01 -4.596301e-01
      vertex 0.000000e+00 -1.903850e-01 -4.596301e-01
    endloop
  endfacet
  facet normal -1.000000e+00 0.000000e+00 0.000000e+00
    outer loop
      vertex 0.000000e+00 -1.657068e-01 -4.000516e-01
      vertex 0.000000e+00 1.657819e-16 -4.330127e-01
      vertex 0.000000e+00 -1.903850e-01 -4.596301e-01
    endloop
  endfacet
  facet normal 8.425731e-04 -4.986190e-01 -8.668208e-01
    outer loop
      vertex 4.000000e+00 -1.696567e-01 -4.676655e-01
      vertex 4.000000e+00 -3.190030e-01 -3.817574e-01
      vertex 0.000000e+00 -1.903850e-01 -4.596301e-01
    endloop
  endfacet
  facet normal 3.703327e-06 1.950903e-01 -9.807853e-01
    outer loop
      vertex 4.000000e+00 2.602085e-16 -4.974849e-01
      vertex 0.000000e+00 3.046309e-17 -4.975000e-01
      vertex 0.000000e+00 1.903850e-01 -4.596301e-01
    endloop
  endfacet
  facet normal 3.718873e-06 -1.731098e-01 -9.849025e-01
    outer loop
      vertex 4.000000e+00 2.602085e-16 -4.974849e-01
      vertex 4.000000e+00 -1.696567e-01 -4.676655e-01
      vertex 0.000000e+00 3.046309e-17 -4.975000e-01
    endloop
  endfacet
  facet normal -1.000000e+00 0.000000e+00 0.000000e+00
    outer loop
      vertex 0.000000e+00 1.657068e-01 -4.000516e-01
      vertex 0.000000e+00 3.517856e-01 -3.517856e-01
      vertex 0.000000e+00 1.903850e-01 -4.596301e-01
    endloop
  endfacet
  facet normal -1.676886e-03 5.555695e-01 -8.314684e-01
    outer loop
      vertex 4.000000e+00 3.190030e-01 -3.817574e-01
      vertex 0.000000e+00 1.903850e-01 -4.596301e-01
      vertex 0.000000e+00 3.517856e-01 -3.517856e-01
    endloop
  endfacet
  facet normal -1.000000e+00 0.000000e+00 0.000000e+00
    outer loop
      vertex 0.000000e+00 1.657819e-16 -4.330127e-01
      vertex 0.000000e+00 1.657068e-01 -4.000516e-01
      vertex 0.000000e+00 1.903850e-01 -4.596301e-01
    endloop
  endfacet
  facet normal -1.081452e-03 1.731097e-01 -9.849020e-01
    outer loop
      vertex 4.000000e+00 1.696567e-01 -4.676655e-01
      vertex 4.000000e+00 2.602085e-16 -4.974849e-01
      vertex 0.000000e+00 1.903850e-01 -4.596301e-01
    endloop
  endfacet
  facet normal 8.425731e-04 4.986190e-01 -8.668208e-01
    outer loop
      vertex 4.000000e+00 3.190030e-01 -3.817574e-01
      vertex 4.000000e+00 1.696567e-01 -4.676655e-01
      vertex 0.000000e+00 1.903850e-01 -4.596301e-01
    endloop
  endfacet
  facet normal -1.000000e+00 0.000000e+00 0.000000e+00
    outer loop
      vertex 0.000000e+00 3.061862e-01 -3.061862e-01
      vertex 0.000000e+00 4.596301e-01 -1.903850e-01
      vertex 0.000000e+00 3.517856e-01 -3.517856e-01
    endloop
  endfacet
  facet normal -2.146626e-03 8.314677e-01 -5.555690e-01
    outer loop
      vertex 4.000000e+00 4.301235e-01 -2.500000e-01
      vertex 0.000000e+00 3.517856e-01 -3.517856e-01
      vertex 0.000000e+00 4.596301e-01 -1.903850e-01
    endloop
  endfacet
  facet normal -1.000000e+00 0.000000e+00 0.000000e+00
    outer loop
      vertex 0.000000e+00 1.657068e-01 -4.000516e-01
      vertex 0.000000e+00 3.061862e-01 -3.061862e-01
      vertex 0.000000e+00 3.517856e-01 -3.517856e-01
    endloop
  endfacet
  facet normal 1.434320e-03 7.644330e-01 -6.447016e-01
    outer loop
      vertex 4.000000e+00 4.301235e-01 -2.500000e-01
      vertex 4.000000e+00 3.190030e-01 -3.817574e-01
      vertex 0.000000e+00 3.517856e-01 -3.517856e-01
    endloop
  endfacet
  facet normal -1.000000e+00 0.000000e+00 0.000000e+00
    outer loop
      vertex 0.000000e+00 4.000516e-01 -1.657068e-01
      vertex 0.000000e+00 4.330127e-01 -9.614813e-17
      vertex 0.000000e+00 4.596301e-01 -1.903850e-01
    endloop
  endfacet
  facet normal -1.000000e+00 0.000000e+00 0.000000e+00
    outer loop
      vertex 0.000000e+00 3.061862e-01 -3.061862e-01
      vertex 0.000000e+00 4.000516e-01 -1.657068e-01
      vertex 0.000000e+00 4.596301e-01 -1.903850e-01
    endloop
  endfacet
  facet normal -6.354529e-01 7.573032e-01 -1.506370e-01
    outer loop
      vertex 1.330222e-01 -3.213938e-01 0.000000e+00
      vertex 0.000000e+00 -4.330127e-01 0.000000e+00
      vertex 0.000000e+00 -4.000516e-01 1.657068e-01
    endloop
  endfacet
  facet normal -6.354529e-01 7.573032e-01 1.506370e-01
    outer loop
      vertex 1.330222e-01 -2.969292e-01 -1.229921e-01
      vertex 0.000000e+00 -4.000516e-01 -1.657068e-01
      vertex 0.000000e+00 -4.330127e-01 0.000000e+00
    endloop
  endfacet
  facet normal -6.354529e-01 7.573032e-01 1.506370e-01
    outer loop
      vertex 1.330222e-01 -3.213938e-01 0.000000e+00
      vertex 1.330222e-01 -2.969292e-01 -1.229921e-01
      vertex 0.000000e+00 -4.330127e-01 0.000000e+00
    endloop
  endfacet
  facet normal -6.354529e-01 6.420107e-01 -4.289778e-01
    outer loop
      vertex 1.330222e-01 -2.969292e-01 1.229921e-01
      vertex 0.000000e+00 -4.000516e-01 1.657068e-01
      vertex 0.000000e+00 -3.061862e-01 3.061862e-01
    endloop
  endfacet
  facet normal -6.354529e-01 7.573032e-01 -1.506370e-01
    outer loop
      vertex 1.330222e-01 -2.969292e-01 1.229921e-01
      vertex 1.330222e-01 -3.213938e-01 0.000000e+00
      vertex 0.000000e+00 -4.000516e-01 1.657068e-01
    endloop
  endfacet
  facet normal -6.354529e-01 4.289778e-01 -6.420107e-01
    outer loop
      vertex 1.330222e-01 -2.272597e-01 2.272597e-01
      vertex 0.000000e+00 -3.061862e-01 3.061862e-01
      vertex 0.000000e+00 -1.657068e-01 4.000516e-01
    endloop
  endfacet
  facet normal -6.354529e-01 6.420107e-01 -4.289778e-01
    outer loop
      vertex 1.330222e-01 -2.272597e-01 2.272597e-01
      vertex 1.330222e-01 -2.969292e-01 1.229921e-01
      vertex 0.000000e+00 -3.061862e-01 3.061862e-01
    endloop
  endfacet
  facet normal -6.354529e-01 1.506370e-01 -7.573032e-01
    outer loop
      vertex 1.330222e-01 -1.229921e-01 2.969292e-01
      vertex 0.000000e+00 -1.657068e-01 4.000516e-01
      vertex 0.000000e+00 -1.015447e-16 4.330127e-01
    endloop
  endfacet
  facet normal -6.354529e-01 4.289778e-01 -6.420107e-01
    outer loop
      vertex 1.330222e-01 -1.229921e-01 2.969292e-01
      vertex 1.330222e-01 -2.272597e-01 2.272597e-01
      vertex 0.000000e+00 -1.657068e-01 4.000516e-01
    endloop
  endfacet
  facet normal -6.354529e-01 -1.506370e-01 -7.573032e-01
    outer loop
      vertex 1.330222e-01 -1.967969e-17 3.213938e-01
      vertex 0.000000e+00 -1.015447e-16 4.330127e-01
      vertex 0.000000e+00 1.657068e-01 4.000516e-01
    endloop
  endfacet
  facet normal -6.354529e-01 1.506370e-01 -7.573032e-01
    outer loop
      vertex 1.330222e-01 -1.967969e-17 3.213938e-01
      vertex 1.330222e-01 -1.229921e-01 2.969292e-01
      vertex 0.000000e+00 -1.015447e-16 4.330127e-01
    endloop
  endfacet
  facet normal -6.354529e-01 -4.289778e-01 -6.420107e-01
    outer loop
      vertex 1.330222e-01 1.229921e-01 2.969292e-01
      vertex 0.000000e+00 1.657068e-01 4.000516e-01
      vertex 0.000000e+00 3.061862e-01 3.061862e-01
    endloop
  endfacet
  facet normal -6.354529e-01 -1.506370e-01 -7.573032e-01
    outer loop
      vertex 1.330222e-01 1.229921e-01 2.969292e-01
      vertex 1.330222e-01 -1.967969e-17 3.213938e-01
      vertex 0.000000e+00 1.657068e-01 4.000516e-01
    endloop
  endfacet
  facet normal -6.354529e-01 -6.420107e-01 -4.289778e-01
    outer loop
      vertex 1.330222e-01 2.272597e-01 2.272597e-01
      vertex 0.000000e+00 3.061862e-01 3.061862e-01
      vertex 0.000000e+00 4.000516e-01 1.657068e-01
    endloop
  endfacet
  facet normal -6.354529e-01 -4.289778e-01 -6.420107e-01
    outer loop
      vertex 1.330222e-01 2.272597e-01 2.272597e-01
      vertex 1.330222e-01 1.229921e-01 2.969292e-01
      vertex 0.000000e+00 3.061862e-01 3.061862e-01
    endloop
  endfacet
  facet normal -6.354529e-01 -7.573032e-01 -1.506370e-01
    outer loop
      vertex 1.330222e-01 2.969292e-01 1.229921e-01
      vertex 0.000000e+00 4.000516e-01 1.657068e-01
      vertex 0.000000e+00 4.330127e-01 -9.614813e-17
    endloop
  endfacet
  facet normal -6.354529e-01 -6.420107e-01 -4.289778e-01
    outer loop
      vertex 1.330222e-01 2.969292e-01 1.229921e-01
      vertex 1.330222e-01 2.272597e-01 2.272597e-01
      vertex 0.000000e+00 4.000516e-01 1.657068e-01
    endloop
  endfacet
  facet normal -6.354529e-01 -7.573032e-01 1.506370e-01
    outer loop
      vertex 1.330222e-01 3.213938e-01 3.935939e-17
      vertex 0.000000e+00 4.330127e-01 -9.614813e-17
      vertex 0.000000e+00 4.000516e-01 -1.657068e-01
    endloop
  endfacet
  facet normal -6.354529e-01 -7.573032e-01 -1.506370e-01
    outer loop
      vertex 1.330222e-01 2.969292e-01 1.229921e-01
      vertex 0.000000e+00 4.330127e-01 -9.614813e-17
      vertex 1.330222e-01 3.213938e-01 3.935939e-17
    endloop
  endfacet
  facet normal -6.354529e-01 -6.420107e-01 4.289778e-01
    outer loop
      vertex 1.330222e-01 2.969292e-01 -1.229921e-01
      vertex 0.000000e+00 4.000516e-01 -1.657068e-01
      vertex 0.000000e+00 3.061862e-01 -3.061862e-01
    endloop
  endfacet
  facet normal -6.354529e-01 -7.573032e-01 1.506370e-01
    outer loop
      vertex 1.330222e-01 2.969292e-01 -1.229921e-01
      vertex 1.330222e-01 3.213938e-01 3.935939e-17
      vertex 0.000000e+00 4.000516e-01 -1.657068e-01
    endloop
  endfacet
  facet normal -6.354529e-01 -4.289778e-01 6.420107e-01
    outer loop
      vertex 1.330222e-01 2.272597e-01 -2.272597e-01
      vertex 0.000000e+00 3.061862e-01 -3.061862e-01
      vertex 0.000000e+00 1.657068e-01 -4.000516e-01
    endloop
  endfacet
  facet normal -6.354529e-01 -6.420107e-01 4.289778e-01
    outer loop
      vertex 1.330222e-01 2.272597e-01 -2.272597e-01
      vertex 1.330222e-01 2.969292e-01 -1.229921e-01
      vertex 0.000000e+00 3.061862e-01 -3.061862e-01
    endloop
  endfacet
  facet normal -6.354529e-01 -1.506370e-01 7.573032e-01
    outer loop
      vertex 1.330222e-01 1.229921e-01 -2.969292e-01
      vertex 0.000000e+00 1.657068e-01 -4.000516e-01
      vertex 0.000000e+00 1.657819e-16 -4.330127e-01
    endloop
  endfacet
  facet normal -6.354529e-01 -4.289778e-01 6.420107e-01
    outer loop
      vertex 1.330222e-01 1.229921e-01 -2.969292e-01
      vertex 1.330222e-01 2.272597e-01 -2.272597e-01
      vertex 0.000000e+00 1.657068e-01 -4.000516e-01
    endloop
  endfacet
  facet normal -6.354529e-01 1.506370e-01 7.573032e-01
    outer loop
      vertex 1.330222e-01 -9.104346e-17 -3.213938e-01
      vertex 0.000000e+00 1.657819e-16 -4.330127e-01
      vertex 0.000000e+00 -1.657068e-01 -4.000516e-01
    endloop
  endfacet
  facet normal -6.354529e-01 -1.506370e-01 7.573032e-01
    outer loop
      vertex 1.330222e-01 -9.104346e-17 -3.213938e-01
      vertex 1.330222e-01 1.229921e-01 -2.969292e-01
      vertex 0.000000e+00 1.657819e-16 -4.330127e-01
    endloop
  endfacet
  facet normal -6.354529e-01 4.289778e-01 6.420107e-01
    outer loop
      vertex 1.330222e-01 -1.229921e-01 -2.969292e-01
      vertex 0.000000e+00 -1.657068e-01 -4.000516e-01
      vertex 0.000000e+00 -3.061862e-01 -3.061862e-01
    endloop
  endfacet
  facet normal -6.354529e-01 1.506370e-01 7.573032e-01
    outer loop
      vertex 1.330222e-01 -1.229921e-01 -2.969292e-01
      vertex 1.330222e-01 -9.104346e-17 -3.213938e-01
      vertex 0.000000e+00 -1.657068e-01 -4.000516e-01
    endloop
  endfacet
  facet normal -6.354529e-01 6.420107e-01 4.289778e-01
    outer loop
      vertex 1.330222e-01 -2.272597e-01 -2.272597e-01
      vertex 0.000000e+00 -3.061862e-01 -3.061862e-01
      vertex 0.000000e+00 -4.000516e-01 -1.657068e-01
    endloop
  endfacet
  facet normal -6.354529e-01 4.289778e-01 6.420107e-01
    outer loop
      vertex 1.330222e-01 -2.272597e-01 -2.272597e-01
      vertex 1.330222e-01 -1.229921e-01 -2.969292e-01
      vertex 0.000000e+00 -3.061862e-01 -3.061862e-01
    endloop
  endfacet
  facet normal -6.354529e-01 6.420107e-01 4.289778e-01
    outer loop
      vertex 1.330222e-01 -2.969292e-01 -1.229921e-01
      vertex 1.330222e-01 -2.272597e-01 -2.272597e-01
      vertex 0.000000e+00 -4.000516e-01 -1.657068e-01
    endloop
  endfacet
  facet normal 1.000000e+00 0.000000e+00 0.000000e+00
    outer loop
      vertex 4.000000e+00 4.301235e-01 -2.500000e-01
      vertex 4.000000e+00 -4.301235e-01 -2.500000e-01
      vertex 4.000000e+00 -3.190030e-01 -3.817574e-01
    endloop
  endfacet
  facet normal 0.000000e+00 0.000000e+00 -1.000000e+00
    outer loop
      vertex 4.634528e+00 4.783019e-02 -2.500000e-01
      vertex 4.625000e+00 0.000000e+00 -2.500000e-01
      vertex 4.000000e+00 -4.301235e-01 -2.500000e-01
    endloop
  endfacet
  facet normal 0.000000e+00 0.000000e+00 -1.000000e+00
    outer loop
      vertex 4.634528e+00 -4.783019e-02 -2.500000e-01
      vertex 4.000000e+00 -4.301235e-01 -2.500000e-01
      vertex 4.625000e+00 0.000000e+00 -2.500000e-01
    endloop
  endfacet
  facet normal 0.000000e+00 0.000000e+00 -1.000000e+00
    outer loop
      vertex 4.661612e+00 8.838835e-02 -2.500000e-01
      vertex 4.634528e+00 4.783019e-02 -2.500000e-01
      vertex 4.000000e+00 -4.301235e-01 -2.500000e-01
    endloop
  endfacet
  facet normal 0.000000e+00 0.000000e+00 -1.000000e+00
    outer loop
      vertex 4.750000e+00 -1.250000e-01 -2.500000e-01
      vertex 4.797830e+00 -1.154723e-01 -2.500000e-01
      vertex 4.000000e+00 -4.301235e-01 -2.500000e-01
    endloop
  endfacet
  facet normal 0.000000e+00 0.000000e+00 -1.000000e+00
    outer loop
      vertex 4.702170e+00 -1.154723e-01 -2.500000e-01
      vertex 4.750000e+00 -1.250000e-01 -2.500000e-01
      vertex 4.000000e+00 -4.301235e-01 -2.500000e-01
    endloop
  endfacet
  facet normal 0.000000e+00 0.000000e+00 -1.000000e+00
    outer loop
      vertex 4.661612e+00 -8.838835e-02 -2.500000e-01
      vertex 4.702170e+00 -1.154723e-01 -2.500000e-01
      vertex 4.000000e+00 -4.301235e-01 -2.500000e-01
    endloop
  endfacet
  facet normal 0.000000e+00 0.000000e+00 -1.000000e+00
    outer loop
      vertex 4.634528e+00 -4.783019e-02 -2.500000e-01
      vertex 4.661612e+00 -8.838835e-02 -2.500000e-01
      vertex 4.000000e+00 -4.301235e-01 -2.500000e-01
    endloop
  endfacet
  facet normal 1.000000e+00 0.000000e+00 0.000000e+00
    outer loop
      vertex 4.000000e+00 3.190030e-01 -3.817574e-01
      vertex 4.000000e+00 -3.190030e-01 -3.817574e-01
      vertex 4.000000e+00 -1.696567e-01 -4.676655e-01
    endloop
  endfacet
  facet normal 1.000000e+00 0.000000e+00 0.000000e+00
    outer loop
      vertex 4.000000e+00 4.301235e-01 -2.500000e-01
      vertex 4.000000e+00 -3.190030e-01 -3.817574e-01
      vertex 4.000000e+00 3.190030e-01 -3.817574e-01
    endloop
  endfacet
  facet normal 1.000000e+00 0.000000e+00 0.000000e+00
    outer loop
      vertex 4.000000e+00 1.696567e-01 -4.676655e-01
      vertex 4.000000e+00 -1.696567e-01 -4.676655e-01
      vertex 4.000000e+00 2.602085e-16 -4.974849e-01
    endloop
  endfacet
  facet normal 1.000000e+00 0.000000e+00 0.000000e+00
    outer loop
      vertex 4.000000e+00 3.190030e-01 -3.817574e-01
      vertex 4.000000e+00 -1.696567e-01 -4.676655e-01
      vertex 4.000000e+00 1.696567e-01 -4.676655e-01
    endloop
  endfacet
  facet normal 9.807316e-01 -1.953602e-01 0.000000e+00
    outer loop
      vertex 4.625000e+00 0.000000e+00 2.500000e-01
      vertex 4.625000e+00 0.000000e+00 -2.500000e-01
      vertex 4.634528e+00 4.783019e-02 -2.500000e-01
    endloop
  endfacet
  facet normal 9.807316e-01 1.953602e-01 -8.675737e-17
    outer loop
      vertex 4.634528e+00 -4.783019e-02 2.500000e-01
      vertex 4.634528e+00 -4.783019e-02 -2.500000e-01
      vertex 4.625000e+00 0.000000e+00 -2.500000e-01
    endloop
  endfacet
  facet normal 9.807316e-01 1.953602e-01 0.000000e+00
    outer loop
      vertex 4.634528e+00 -4.783019e-02 2.500000e-01
      vertex 4.625000e+00 0.000000e+00 -2.500000e-01
      vertex 4.625000e+00 0.000000e+00 2.500000e-01
    endloop
  endfacet
  facet normal 8.316225e-01 -5.553414e-01 0.000000e+00
    outer loop
      vertex 4.634528e+00 4.783019e-02 2.500000e-01
      vertex 4.634528e+00 4.783019e-02 -2.500000e-01
      vertex 4.661612e+00 8.838835e-02 -2.500000e-01
    endloop
  endfacet
  facet normal 9.807316e-01 -1.953602e-01 0.000000e+00
    outer loop
      vertex 4.634528e+00 4.783019e-02 2.500000e-01
      vertex 4.625000e+00 0.000000e+00 2.500000e-01
      vertex 4.634528e+00 4.783019e-02 -2.500000e-01
    endloop
  endfacet
  facet normal 5.553414e-01 -8.316225e-01 0.000000e+00
    outer loop
      vertex 4.661612e+00 8.838835e-02 2.500000e-01
      vertex 4.661612e+00 8.838835e-02 -2.500000e-01
      vertex 4.702170e+00 1.154723e-01 -2.500000e-01
    endloop
  endfacet
  facet normal 8.316225e-01 -5.553414e-01 0.000000e+00
    outer loop
      vertex 4.634528e+00 4.783019e-02 2.500000e-01
      vertex 4.661612e+00 8.838835e-02 -2.500000e-01
      vertex 4.661612e+00 8.838835e-02 2.500000e-01
    endloop
  endfacet
  facet normal 1.953602e-01 -9.807316e-01 0.000000e+00
    outer loop
      vertex 4.702170e+00 1.154723e-01 2.500000e-01
      vertex 4.702170e+00 1.154723e-01 -2.500000e-01
      vertex 4.750000e+00 1.250000e-01 -2.500000e-01
    endloop
  endfacet
  facet normal 5.553414e-01 -8.316225e-01 0.000000e+00
    outer loop
      vertex 4.661612e+00 8.838835e-02 2.500000e-01
      vertex 4.702170e+00 1.154723e-01 -2.500000e-01
      vertex 4.702170e+00 1.154723e-01 2.500000e-01
    endloop
  endfacet
  facet normal -1.953602e-01 -9.807316e-01 0.000000e+00
    outer loop
      vertex 4.750000e+00 1.250000e-01 2.500000e-01
      vertex 4.750000e+00 1.250000e-01 -2.500000e-01
      vertex 4.797830e+00 1.154723e-01 -2.500000e-01
    endloop
  endfacet
  facet normal 1.953602e-01 -9.807316e-01 0.000000e+00
    outer loop
      vertex 4.702170e+00 1.154723e-01 2.500000e-01
      vertex 4.750000e+00 1.250000e-01 -2.500000e-01
      vertex 4.750000e+00 1.250000e-01 2.500000e-01
    endloop
  endfacet
  facet normal -5.553414e-01 -8.316225e-01 1.846573e-16
    outer loop
      vertex 4.797830e+00 1.154723e-01 2.500000e-01
      vertex 4.797830e+00 1.154723e-01 -2.500000e-01
      vertex 4.838388e+00 8.838835e-02 -2.500000e-01
    endloop
  endfacet
  facet normal -1.953602e-01 -9.807316e-01 2.178634e-16
    outer loop
      vertex 4.750000e+00 1.250000e-01 2.500000e-01
      vertex 4.797830e+00 1.154723e-01 -2.500000e-01
      vertex 4.797830e+00 1.154723e-01 2.500000e-01
    endloop
  endfacet
  facet normal -8.316225e-01 -5.553414e-01 -1.233106e-16
    outer loop
      vertex 4.838388e+00 8.838835e-02 2.500000e-01
      vertex 4.838388e+00 8.838835e-02 -2.500000e-01
      vertex 4.865472e+00 4.783019e-02 -2.500000e-01
    endloop
  endfacet
  facet normal -5.553414e-01 -8.316225e-01 -1.867401e-16
    outer loop
      vertex 4.797830e+00 1.154723e-01 2.500000e-01
      vertex 4.838388e+00 8.838835e-02 -2.500000e-01
      vertex 4.838388e+00 8.838835e-02 2.500000e-01
    endloop
  endfacet
  facet normal -9.807316e-01 -1.953602e-01 8.675737e-17
    outer loop
      vertex 4.865472e+00 4.783019e-02 2.500000e-01
      vertex 4.865472e+00 4.783019e-02 -2.500000e-01
      vertex 4.875000e+00 0.000000e+00 -2.500000e-01
    endloop
  endfacet
  facet normal -8.316225e-01 -5.553414e-01 2.489868e-16
    outer loop
      vertex 4.838388e+00 8.838835e-02 2.500000e-01
      vertex 4.865472e+00 4.783019e-02 -2.500000e-01
      vertex 4.865472e+00 4.783019e-02 2.500000e-01
    endloop
  endfacet
  facet normal -9.807316e-01 1.953602e-01 0.000000e+00
    outer loop
      vertex 4.875000e+00 0.000000e+00 2.500000e-01
      vertex 4.875000e+00 0.000000e+00 -2.500000e-01
      vertex 4.865472e+00 -4.783019e-02 -2.500000e-01
    endloop
  endfacet
  facet normal -9.807316e-01 -1.953602e-01 0.000000e+00
    outer loop
      vertex 4.865472e+00 4.783019e-02 2.500000e-01
      vertex 4.875000e+00 0.000000e+00 -2.500000e-01
      vertex 4.875000e+00 0.000000e+00 2.500000e-01
    endloop
  endfacet
  facet normal -8.316225e-01 5.553414e-01 0.000000e+00
    outer loop
      vertex 4.865472e+00 -4.783019e-02 2.500000e-01
      vertex 4.865472e+00 -4.783019e-02 -2.500000e-01
      vertex 4.838388e+00 -8.838835e-02 -2.500000e-01
    endloop
  endfacet
  facet normal -9.807316e-01 1.953602e-01 0.000000e+00
    outer loop
      vertex 4.875000e+00 0.000000e+00 2.500000e-01
      vertex 4.865472e+00 -4.783019e-02 -2.500000e-01
      vertex 4.865472e+00 -4.783019e-02 2.500000e-01
    endloop
  endfacet
  facet normal -5.553414e-01 8.316225e-01 0.000000e+00
    outer loop
      vertex 4.838388e+00 -8.838835e-02 2.500000e-01
      vertex 4.838388e+00 -8.838835e-02 -2.500000e-01
      vertex 4.797830e+00 -1.154723e-01 -2.500000e-01
    endloop
  endfacet
  facet normal -8.316225e-01 5.553414e-01 0.000000e+00
    outer loop
      vertex 4.865472e+00 -4.783019e-02 2.500000e-01
      vertex 4.838388e+00 -8.838835e-02 -2.500000e-01
      vertex 4.838388e+00 -8.838835e-02 2.500000e-01
    endloop
  endfacet
  facet normal -1.953602e-01 9.807316e-01 0.000000e+00
    outer loop
      vertex 4.797830e+00 -1.154723e-01 2.500000e-01
      vertex 4.797830e+00 -1.154723e-01 -2.500000e-01
      vertex 4.750000e+00 -1.250000e-01 -2.500000e-01
    endloop
  endfacet
  facet normal -5.553414e-01 8.316225e-01 0.000000e+00
    outer loop
      vertex 4.838388e+00 -8.838835e-02 2.500000e-01
      vertex 4.797830e+00 -1.154723e-01 -2.500000e-01
      vertex 4.797830e+00 -1.154723e-01 2.500000e-01
    endloop
  endfacet
  facet normal 1.953602e-01 9.807316e-01 0.000000e+00
    outer loop
      vertex 4.750000e+00 -1.250000e-01 2.500000e-01
      vertex 4.750000e+00 -1.250000e-01 -2.500000e-01
      vertex 4.702170e+00 -1.154723e-01 -2.500000e-01
    endloop
  endfacet
  facet normal -1.953602e-01 9.807316e-01 0.000000e+00
    outer loop
      vertex 4.797830e+00 -1.154723e-01 2.500000e-01
      vertex 4.750000e+00 -1.250000e-01 -2.500000e-01
      vertex 4.750000e+00 -1.250000e-01 2.500000e-01
    endloop
  endfacet
  facet normal 5.553414e-01 8.316225e-01 -1.846573e-16
    outer loop
      vertex 4.702170e+00 -1.154723e-01 2.500000e-01
      vertex 4.702170e+00 -1.154723e-01 -2.500000e-01
      vertex 4.661612e+00 -8.838835e-02 -2.500000e-01
    endloop
  endfacet
  facet normal 1.953602e-01 9.807316e-01 -2.178634e-16
    outer loop
      vertex 4.750000e+00 -1.250000e-01 2.500000e-01
      vertex 4.702170e+00 -1.154723e-01 -2.500000e-01
      vertex 4.702170e+00 -1.154723e-01 2.500000e-01
    endloop
  endfacet
  facet normal 8.316225e-01 5.553414e-01 0.000000e+00
    outer loop
      vertex 4.661612e+00 -8.838835e-02 2.500000e-01
      vertex 4.661612e+00 -8.838835e-02 -2.500000e-01
      vertex 4.634528e+00 -4.783019e-02 -2.500000e-01
    endloop
  endfacet
  facet normal 5.553414e-01 8.316225e-01 0.000000e+00
    outer loop
      vertex 4.702170e+00 -1.154723e-01 2.500000e-01
      vertex 4.661612e+00 -8.838835e-02 -2.500000e-01
      vertex 4.661612e+00 -8.838835e-02 2.500000e-01
    endloop
  endfacet
  facet normal 8.316225e-01 5.553414e-01 -2.489868e-16
    outer loop
      vertex 4.661612e+00 -8.838835e-02 2.500000e-01
      vertex 4.634528e+00 -4.783019e-02 -2.500000e-01
      vertex 4.634528e+00 -4.783019e-02 2.500000e-01
    endloop
  endfacet
  facet normal -8.618631e-01 -4.973964e-01 9.893829e-02
    outer loop
      vertex 2.199060e-01 1.708461e-01 -5.494828e-17
      vertex 1.330222e-01 3.213938e-01 3.935939e-17
      vertex 1.330222e-01 2.969292e-01 -1.229921e-01
    endloop
  endfacet
  facet normal -8.618631e-01 -4.973964e-01 -9.893829e-02
    outer loop
      vertex 2.199060e-01 1.578412e-01 6.537995e-02
      vertex 1.330222e-01 3.213938e-01 3.935939e-17
      vertex 2.199060e-01 1.708461e-01 -5.494828e-17
    endloop
  endfacet
  facet normal -8.618631e-01 -4.973964e-01 -9.893829e-02
    outer loop
      vertex 2.199060e-01 1.578412e-01 6.537995e-02
      vertex 1.330222e-01 2.969292e-01 1.229921e-01
      vertex 1.330222e-01 3.213938e-01 3.935939e-17
    endloop
  endfacet
  facet normal -8.618631e-01 -4.216723e-01 2.817524e-01
    outer loop
      vertex 2.199060e-01 1.578412e-01 -6.537995e-02
      vertex 1.330222e-01 2.969292e-01 -1.229921e-01
      vertex 1.330222e-01 2.272597e-01 -2.272597e-01
    endloop
  endfacet
  facet normal -8.618631e-01 -4.973964e-01 9.893829e-02
    outer loop
      vertex 2.199060e-01 1.578412e-01 -6.537995e-02
      vertex 2.199060e-01 1.708461e-01 -5.494828e-17
      vertex 1.330222e-01 2.969292e-01 -1.229921e-01
    endloop
  endfacet
  facet normal -8.618631e-01 -2.817524e-01 4.216723e-01
    outer loop
      vertex 2.199060e-01 1.208064e-01 -1.208064e-01
      vertex 1.330222e-01 2.272597e-01 -2.272597e-01
      vertex 1.330222e-01 1.229921e-01 -2.969292e-01
    endloop
  endfacet
  facet normal -8.618631e-01 -4.216723e-01 2.817524e-01
    outer loop
      vertex 2.199060e-01 1.208064e-01 -1.208064e-01
      vertex 2.199060e-01 1.578412e-01 -6.537995e-02
      vertex 1.330222e-01 2.272597e-01 -2.272597e-01
    endloop
  endfacet
  facet normal -8.618631e-01 -9.893829e-02 4.973964e-01
    outer loop
      vertex 2.199060e-01 6.537995e-02 -1.578412e-01
      vertex 1.330222e-01 1.229921e-01 -2.969292e-01
      vertex 1.330222e-01 -9.104346e-17 -3.213938e-01
    endloop
  endfacet
  facet normal -8.618631e-01 -2.817524e-01 4.216723e-01
    outer loop
      vertex 2.199060e-01 6.537995e-02 -1.578412e-01
      vertex 2.199060e-01 1.208064e-01 -1.208064e-01
      vertex 1.330222e-01 1.229921e-01 -2.969292e-01
    endloop
  endfacet
  facet normal -8.618631e-01 9.893829e-02 4.973964e-01
    outer loop
      vertex 2.199060e-01 -1.046130e-17 -1.708461e-01
      vertex 1.330222e-01 -9.104346e-17 -3.213938e-01
      vertex 1.330222e-01 -1.229921e-01 -2.969292e-01
    endloop
  endfacet
  facet normal -8.618631e-01 -9.893829e-02 4.973964e-01
    outer loop
      vertex 2.199060e-01 -1.046130e-17 -1.708461e-01
      vertex 2.199060e-01 6.537995e-02 -1.578412e-01
      vertex 1.330222e-01 -9.104346e-17 -3.213938e-01
    endloop
  endfacet
  facet normal -8.618631e-01 2.817524e-01 4.216723e-01
    outer loop
      vertex 2.199060e-01 -6.537995e-02 -1.578412e-01
      vertex 1.330222e-01 -1.229921e-01 -2.969292e-01
      vertex 1.330222e-01 -2.272597e-01 -2.272597e-01
    endloop
  endfacet
  facet normal -8.618631e-01 9.893829e-02 4.973964e-01
    outer loop
      vertex 2.199060e-01 -6.537995e-02 -1.578412e-01
      vertex 2.199060e-01 -1.046130e-17 -1.708461e-01
      vertex 1.330222e-01 -1.229921e-01 -2.969292e-01
    endloop
  endfacet
  facet normal -8.618631e-01 4.216723e-01 2.817524e-01
    outer loop
      vertex 2.199060e-01 -1.208064e-01 -1.208064e-01
      vertex 1.330222e-01 -2.272597e-01 -2.272597e-01
      vertex 1.330222e-01 -2.969292e-01 -1.229921e-01
    endloop
  endfacet
  facet normal -8.618631e-01 2.817524e-01 4.216723e-01
    outer loop
      vertex 2.199060e-01 -1.208064e-01 -1.208064e-01
      vertex 2.199060e-01 -6.537995e-02 -1.578412e-01
      vertex 1.330222e-01 -2.272597e-01 -2.272597e-01
    endloop
  endfacet
  facet normal -8.618631e-01 4.973964e-01 9.893829e-02
    outer loop
      vertex 2.199060e-01 -1.578412e-01 -6.537995e-02
      vertex 1.330222e-01 -2.969292e-01 -1.229921e-01
      vertex 1.330222e-01 -3.213938e-01 0.000000e+00
    endloop
  endfacet
  facet normal -8.618631e-01 4.216723e-01 2.817524e-01
    outer loop
      vertex 2.199060e-01 -1.578412e-01 -6.537995e-02
      vertex 2.199060e-01 -1.208064e-01 -1.208064e-01
      vertex 1.330222e-01 -2.969292e-01 -1.229921e-01
    endloop
  endfacet
  facet normal -8.618631e-01 4.973964e-01 9.893829e-02
    outer loop
      vertex 2.199060e-01 -1.708461e-01 0.000000e+00
      vertex 2.199060e-01 -1.578412e-01 -6.537995e-02
      vertex 1.330222e-01 -3.213938e-01 0.000000e+00
    endloop
  endfacet
  facet normal -8.618631e-01 4.973964e-01 -9.893829e-02
    outer loop
      vertex 1.330222e-01 -2.969292e-01 1.229921e-01
      vertex 2.199060e-01 -1.708461e-01 0.000000e+00
      vertex 1.330222e-01 -3.213938e-01 0.000000e+00
    endloop
  endfacet
  facet normal -9.842522e-01 -1.733731e-01 3.448606e-02
    outer loop
      vertex 2.500000e-01 1.530808e-16 0.000000e+00
      vertex 2.199060e-01 1.708461e-01 -5.494828e-17
      vertex 2.199060e-01 1.578412e-01 -6.537995e-02
    endloop
  endfacet
  facet normal -9.842522e-01 -1.733731e-01 -3.448606e-02
    outer loop
      vertex 2.199060e-01 1.578412e-01 6.537995e-02
      vertex 2.199060e-01 1.708461e-01 -5.494828e-17
      vertex 2.500000e-01 1.530808e-16 0.000000e+00
    endloop
  endfacet
  facet normal -9.842522e-01 -1.469786e-01 9.820798e-02
    outer loop
      vertex 2.500000e-01 1.530808e-16 0.000000e+00
      vertex 2.199060e-01 1.578412e-01 -6.537995e-02
      vertex 2.199060e-01 1.208064e-01 -1.208064e-01
    endloop
  endfacet
  facet normal -9.842522e-01 -9.820798e-02 1.469786e-01
    outer loop
      vertex 2.500000e-01 1.530808e-16 0.000000e+00
      vertex 2.199060e-01 1.208064e-01 -1.208064e-01
      vertex 2.199060e-01 6.537995e-02 -1.578412e-01
    endloop
  endfacet
  facet normal -9.842522e-01 -3.448606e-02 1.733731e-01
    outer loop
      vertex 2.500000e-01 1.530808e-16 0.000000e+00
      vertex 2.199060e-01 6.537995e-02 -1.578412e-01
      vertex 2.199060e-01 -1.046130e-17 -1.708461e-01
    endloop
  endfacet
  facet normal -9.842522e-01 3.448606e-02 1.733731e-01
    outer loop
      vertex 2.500000e-01 1.530808e-16 0.000000e+00
      vertex 2.199060e-01 -1.046130e-17 -1.708461e-01
      vertex 2.199060e-01 -6.537995e-02 -1.578412e-01
    endloop
  endfacet
  facet normal -9.842522e-01 9.820798e-02 1.469786e-01
    outer loop
      vertex 2.500000e-01 1.530808e-16 0.000000e+00
      vertex 2.199060e-01 -6.537995e-02 -1.578412e-01
      vertex 2.199060e-01 -1.208064e-01 -1.208064e-01
    endloop
  endfacet
  facet normal -9.842522e-01 1.469786e-01 9.820798e-02
    outer loop
      vertex 2.500000e-01 1.530808e-16 0.000000e+00
      vertex 2.199060e-01 -1.208064e-01 -1.208064e-01
      vertex 2.199060e-01 -1.578412e-01 -6.537995e-02
    endloop
  endfacet
  facet normal -9.842522e-01 1.733731e-01 3.448606e-02
    outer loop
      vertex 2.500000e-01 1.530808e-16 0.000000e+00
      vertex 2.199060e-01 -1.578412e-01 -6.537995e-02
      vertex 2.199060e-01 -1.708461e-01 0.000000e+00
    endloop
  endfacet
  facet normal -9.842522e-01 1.733731e-01 -3.448606e-02
    outer loop
      vertex 2.199060e-01 -1.578412e-01 6.537995e-02
      vertex 2.500000e-01 1.530808e-16 0.000000e+00
      vertex 2.199060e-01 -1.708461e-01 0.000000e+00
    endloop
  endfacet
  facet normal -8.618631e-01 4.973964e-01 -9.893829e-02
    outer loop
      vertex 2.199060e-01 -1.578412e-01 6.537995e-02
      vertex 2.199060e-01 -1.708461e-01 0.000000e+00
      vertex 1.330222e-01 -2.969292e-01 1.229921e-01
    endloop
  endfacet
  facet normal -9.842522e-01 1.469786e-01 -9.820798e-02
    outer loop
      vertex 2.199060e-01 -1.208064e-01 1.208064e-01
      vertex 2.500000e-01 1.530808e-16 0.000000e+00
      vertex 2.199060e-01 -1.578412e-01 6.537995e-02
    endloop
  endfacet
  facet normal -9.842522e-01 9.820798e-02 -1.469786e-01
    outer loop
      vertex 2.199060e-01 -6.537995e-02 1.578412e-01
      vertex 2.500000e-01 1.530808e-16 0.000000e+00
      vertex 2.199060e-01 -1.208064e-01 1.208064e-01
    endloop
  endfacet
  facet normal -9.842522e-01 3.448606e-02 -1.733731e-01
    outer loop
      vertex 2.199060e-01 2.747414e-17 1.708461e-01
      vertex 2.500000e-01 1.530808e-16 0.000000e+00
      vertex 2.199060e-01 -6.537995e-02 1.578412e-01
    endloop
  endfacet
  facet normal -9.842522e-01 -3.448606e-02 -1.733731e-01
    outer loop
      vertex 2.199060e-01 6.537995e-02 1.578412e-01
      vertex 2.500000e-01 1.530808e-16 0.000000e+00
      vertex 2.199060e-01 2.747414e-17 1.708461e-01
    endloop
  endfacet
  facet normal -9.842522e-01 -9.820798e-02 -1.469786e-01
    outer loop
      vertex 2.199060e-01 1.208064e-01 1.208064e-01
      vertex 2.500000e-01 1.530808e-16 0.000000e+00
      vertex 2.199060e-01 6.537995e-02 1.578412e-01
    endloop
  endfacet
  facet normal -9.842522e-01 -1.469786e-01 -9.820798e-02
    outer loop
      vertex 2.199060e-01 1.578412e-01 6.537995e-02
      vertex 2.500000e-01 1.530808e-16 0.000000e+00
      vertex 2.199060e-01 1.208064e-01 1.208064e-01
    endloop
  endfacet
  facet normal -8.618631e-01 4.216723e-01 -2.817524e-01
    outer loop
      vertex 2.199060e-01 -1.578412e-01 6.537995e-02
      vertex 1.330222e-01 -2.969292e-01 1.229921e-01
      vertex 1.330222e-01 -2.272597e-01 2.272597e-01
    endloop
  endfacet
  facet normal -8.618631e-01 2.817524e-01 -4.216723e-01
    outer loop
      vertex 2.199060e-01 -1.208064e-01 1.208064e-01
      vertex 1.330222e-01 -2.272597e-01 2.272597e-01
      vertex 1.330222e-01 -1.229921e-01 2.969292e-01
    endloop
  endfacet
  facet normal -8.618631e-01 4.216723e-01 -2.817524e-01
    outer loop
      vertex 2.199060e-01 -1.208064e-01 1.208064e-01
      vertex 2.199060e-01 -1.578412e-01 6.537995e-02
      vertex 1.330222e-01 -2.272597e-01 2.272597e-01
    endloop
  endfacet
  facet normal -8.618631e-01 9.893829e-02 -4.973964e-01
    outer loop
      vertex 2.199060e-01 -6.537995e-02 1.578412e-01
      vertex 1.330222e-01 -1.229921e-01 2.969292e-01
      vertex 1.330222e-01 -1.967969e-17 3.213938e-01
    endloop
  endfacet
  facet normal -8.618631e-01 2.817524e-01 -4.216723e-01
    outer loop
      vertex 2.199060e-01 -6.537995e-02 1.578412e-01
      vertex 2.199060e-01 -1.208064e-01 1.208064e-01
      vertex 1.330222e-01 -1.229921e-01 2.969292e-01
    endloop
  endfacet
  facet normal -8.618631e-01 -9.893829e-02 -4.973964e-01
    outer loop
      vertex 2.199060e-01 2.747414e-17 1.708461e-01
      vertex 1.330222e-01 -1.967969e-17 3.213938e-01
      vertex 1.330222e-01 1.229921e-01 2.969292e-01
    endloop
  endfacet
  facet normal -8.618631e-01 9.893829e-02 -4.973964e-01
    outer loop
      vertex 2.199060e-01 2.747414e-17 1.708461e-01
      vertex 2.199060e-01 -6.537995e-02 1.578412e-01
      vertex 1.330222e-01 -1.967969e-17 3.213938e-01
    endloop
  endfacet
  facet normal -8.618631e-01 -2.817524e-01 -4.216723e-01
    outer loop
      vertex 2.199060e-01 6.537995e-02 1.578412e-01
      vertex 1.330222e-01 1.229921e-01 2.969292e-01
      vertex 1.330222e-01 2.272597e-01 2.272597e-01
    endloop
  endfacet
  facet normal -8.618631e-01 -9.893829e-02 -4.973964e-01
    outer loop
      vertex 2.199060e-01 6.537995e-02 1.578412e-01
      vertex 2.199060e-01 2.747414e-17 1.708461e-01
      vertex 1.330222e-01 1.229921e-01 2.969292e-01
    endloop
  endfacet
  facet normal -8.618631e-01 -4.216723e-01 -2.817524e-01
    outer loop
      vertex 2.199060e-01 1.208064e-01 1.208064e-01
      vertex 1.330222e-01 2.272597e-01 2.272597e-01
      vertex 1.330222e-01 2.969292e-01 1.229921e-01
    endloop
  endfacet
  facet normal -8.618631e-01 -2.817524e-01 -4.216723e-01
    outer loop
      vertex 2.199060e-01 1.208064e-01 1.208064e-01
      vertex 2.199060e-01 6.537995e-02 1.578412e-01
      vertex 1.330222e-01 2.272597e-01 2.272597e-01
    endloop
  endfacet
  facet normal -8.618631e-01 -4.216723e-01 -2.817524e-01
    outer loop
      vertex 2.199060e-01 1.578412e-01 6.537995e-02
      vertex 2.199060e-01 1.208064e-01 1.208064e-01
      vertex 1.330222e-01 2.969292e-01 1.229921e-01
    endloop
  endfacet
endsolid PRT0002
